<?xml version="1.0" encoding="UTF-8" standalone="no"?>
<!-- Created with Inkscape (http://www.inkscape.org/) -->

<svg
   xmlns:dc="http://purl.org/dc/elements/1.1/"
   xmlns:cc="http://creativecommons.org/ns#"
   xmlns:rdf="http://www.w3.org/1999/02/22-rdf-syntax-ns#"
   xmlns:svg="http://www.w3.org/2000/svg"
   xmlns="http://www.w3.org/2000/svg"
   xmlns:sodipodi="http://sodipodi.sourceforge.net/DTD/sodipodi-0.dtd"
   xmlns:inkscape="http://www.inkscape.org/namespaces/inkscape"
   width="202cm"
   height="102cm"
   viewBox="0 0 7157.4805 3614.1733"
   id="svg4469"
   version="1.1"
   inkscape:version="0.91 r13725"
   sodipodi:docname="braunschweig.freifunk.net-banner.svg">
  <defs
     id="defs4471">
    <inkscape:path-effect
       effect="spiro"
       id="path-effect5517"
       is_visible="true" />
    <inkscape:path-effect
       effect="spiro"
       id="path-effect5523-8-8"
       is_visible="true" />
  </defs>
  <sodipodi:namedview
     id="base"
     pagecolor="#ffffff"
     bordercolor="#666666"
     borderopacity="1.0"
     inkscape:pageopacity="0.0"
     inkscape:pageshadow="2"
     inkscape:zoom="0.050716172"
     inkscape:cx="471.93931"
     inkscape:cy="-110.65229"
     inkscape:document-units="cm"
     inkscape:current-layer="layer1"
     showgrid="true"
     units="cm"
     showguides="true"
     inkscape:guide-bbox="true"
     inkscape:window-width="1920"
     inkscape:window-height="1031"
     inkscape:window-x="0"
     inkscape:window-y="25"
     inkscape:window-maximized="1">
    <sodipodi:guide
       position="441.94174,212.59842"
       orientation="0,1"
       id="guide7680"
       inkscape:label=""
       inkscape:color="rgb(0,0,255)" />
    <sodipodi:guide
       position="433.10291,3401.5748"
       orientation="0,1"
       id="guide7682"
       inkscape:label=""
       inkscape:color="rgb(0,0,255)" />
    <sodipodi:guide
       position="6944.8819,6909.4487"
       orientation="1,0"
       id="guide7684"
       inkscape:label=""
       inkscape:color="rgb(0,0,255)" />
    <sodipodi:guide
       position="212.59843,212.59842"
       orientation="1,0"
       id="guide7686"
       inkscape:label=""
       inkscape:color="rgb(0,0,255)" />
    <sodipodi:guide
       position="1971.0602,4490.128"
       orientation="1,0"
       id="guide7688" />
    <sodipodi:guide
       position="3774.1825,4534.3222"
       orientation="1,0"
       id="guide7690" />
    <sodipodi:guide
       position="5550.7883,4799.4872"
       orientation="1,0"
       id="guide7692" />
  </sodipodi:namedview>
  <metadata
     id="metadata4474">
    <rdf:RDF>
      <cc:Work
         rdf:about="">
        <dc:format>image/svg+xml</dc:format>
        <dc:type
           rdf:resource="http://purl.org/dc/dcmitype/StillImage" />
        <dc:title></dc:title>
      </cc:Work>
    </rdf:RDF>
  </metadata>
  <g
     inkscape:label="Layer 1"
     inkscape:groupmode="layer"
     id="layer1"
     transform="translate(0,2561.7891)">
    <rect
       y="745.86584"
       x="2287.4404"
       height="1263.0366"
       width="2756.3691"
       id="rect5154-7-5-3"
       style="fill:#1a181d;fill-opacity:1;fill-rule:nonzero;stroke:none"
       inkscape:export-filename="/home/seb/work/freifunk-bs-logo/freifunk-bs-logo.png"
       inkscape:export-xdpi="600.03082"
       inkscape:export-ydpi="600.03082" />
    <rect
       y="-138.36328"
       x="-128.56371"
       height="1263.0366"
       width="2756.3691"
       id="rect5154-7-5"
       style="fill:#1a181d;fill-opacity:1;fill-rule:nonzero;stroke:none"
       inkscape:export-filename="/home/seb/work/freifunk-bs-logo/freifunk-bs-logo.png"
       inkscape:export-xdpi="600.03082"
       inkscape:export-ydpi="600.03082" />
    <rect
       y="-134.00555"
       x="4440.2202"
       height="1263.0366"
       width="2756.3691"
       id="rect5154-7"
       style="fill:#1a181d;fill-opacity:1;fill-rule:nonzero;stroke:none"
       inkscape:export-filename="/home/seb/work/freifunk-bs-logo/freifunk-bs-logo.png"
       inkscape:export-xdpi="600.03082"
       inkscape:export-ydpi="600.03082" />
    <rect
       y="-186.6022"
       x="53.149601"
       height="1081.5055"
       width="7050.1191"
       id="rect5154"
       style="fill:#1a181d;fill-opacity:1;fill-rule:nonzero;stroke:none"
       inkscape:export-filename="/home/seb/work/freifunk-bs-logo/freifunk-bs-logo.png"
       inkscape:export-xdpi="600.03082"
       inkscape:export-ydpi="600.03082" />
    <path
       style="fill:#ffffff"
       id="path5"
       d="m 282.23748,673.07965 0,-615.480258 108.45468,0 0,164.037698 1.35568,0 c 8.1341,-17.62384 18.97957,-29.82503 31.18072,-37.95915 12.20115,-8.13413 27.11368,-12.20109 44.73755,-12.20109 23.04662,0 42.0262,6.77834 52.87166,21.6909 12.20116,13.55678 17.62389,35.24778 17.62389,62.36143 l 0,347.05492 c 0,27.11375 -5.42273,48.80465 -17.62389,62.36152 -12.20115,13.55678 -29.82504,20.33522 -52.87166,20.33522 -18.97956,0 -33.89209,-4.06706 -47.44891,-13.55688 -13.55684,-9.48971 -23.04662,-23.04659 -31.18073,-40.67042 l -1.35568,0 0,42.02611 -105.74331,0 z m 147.7695,-107.09892 0,-275.20378 c 0,-10.8455 -1.35569,-18.97952 -4.06705,-23.04658 -2.71137,-4.06707 -8.13411,-5.42275 -14.91252,-5.42275 -6.77841,0 -12.20115,2.71137 -14.91252,6.77843 -2.71136,4.06697 -5.42273,12.20109 -5.42273,21.6909 l 0,275.20378 c 0,9.48972 1.35568,17.62384 5.42273,23.04659 2.71137,5.42275 8.13411,8.13413 14.91252,8.13413 6.77841,0 12.20115,-2.71138 14.91252,-6.77844 2.71136,-5.42275 4.06705,-13.55688 4.06705,-24.40228 z"
       inkscape:connector-curvature="0" />
    <path
       style="fill:#ffffff"
       id="path7"
       d="m 573.70942,673.07965 0,-493.46878 107.099,0 0,42.02622 1.35568,0 c 9.48979,-17.62384 20.33525,-29.82503 32.53641,-37.95915 12.20115,-8.13413 27.11366,-12.20109 44.73755,-12.20109 23.04662,0 42.02619,6.77834 52.87166,21.6909 12.20115,13.55678 17.62389,35.24778 17.62389,62.36143 l 0,191.15135 -109.81037,0 0,-155.90358 c 0,-10.8455 -1.35569,-18.97952 -4.06705,-23.04658 -2.71137,-4.06707 -8.1341,-5.42275 -14.91251,-5.42275 -6.77842,0 -12.20116,2.71137 -14.91253,6.77843 -2.71136,4.06697 -5.42273,12.20109 -5.42273,21.6909 l 0,382.3027 -107.099,0 z"
       inkscape:connector-curvature="0" />
    <path
       style="fill:#ffffff"
       id="path9"
       d="m 861.91307,281.28714 c 0,-37.95915 10.84547,-65.0728 32.5364,-84.05233 21.69093,-18.97962 54.22734,-28.46934 96.25353,-28.46934 46.0932,0 78.6296,10.8454 98.9649,31.18072 18.9795,21.6909 29.825,56.93868 29.825,108.4546 l 0,299.60606 c 0,13.55687 0,24.40237 1.3557,35.24777 1.3557,10.8455 2.7114,20.33532 5.4228,29.82503 l -109.8104,0 c -1.3557,-5.42265 -2.7114,-12.20109 -2.7114,-17.62384 -1.3557,-5.42275 -1.3557,-10.8455 -1.3557,-16.26825 l 0,-8.13402 -1.3557,0 c -8.1341,16.26815 -18.97952,28.46933 -31.18067,36.60346 -13.55684,8.13403 -28.46935,13.55678 -46.09324,13.55678 -23.04662,0 -40.67051,-6.77844 -52.87166,-20.33522 -12.20115,-13.55687 -17.62389,-33.89209 -17.62389,-62.36143 l 0,-104.38764 c 0,-25.75796 4.06706,-47.44896 13.55684,-63.71712 9.48978,-16.26825 24.40231,-29.82502 44.73756,-40.67052 6.77842,-4.06707 16.2682,-8.13413 28.46935,-14.91257 40.67051,-20.33521 61.00571,-40.67042 61.00571,-59.65005 l 0,-35.24778 c 0,-10.8454 -1.3556,-17.62383 -5.4227,-23.04658 -2.7114,-4.06707 -8.13409,-6.77844 -16.26819,-6.77844 -6.77842,0 -10.84546,2.71137 -14.91251,6.77844 -2.71137,4.06706 -4.06706,12.20118 -4.06706,23.04658 l 0,71.85125 -109.81036,0 0,-70.49556 z m 149.12513,280.62653 0,-131.5013 c -1.3556,1.35569 -4.067,2.71138 -6.7784,5.42275 -21.69091,16.26816 -32.53637,31.18072 -32.53637,44.7375 l 0,81.34105 c 0,10.8454 1.35568,18.97953 4.06704,23.04659 2.71138,4.06706 8.13411,5.42275 14.91253,5.42275 6.77841,0 12.2011,-2.71138 14.9125,-6.77844 4.0671,-4.06706 5.4227,-10.8455 5.4227,-21.6909 z"
       inkscape:connector-curvature="0" />
    <path
       style="fill:#ffffff"
       id="path11"
       d="m 1412.3206,179.61087 0,493.46878 -107.0991,0 0,-40.67043 -2.7113,0 c -9.4898,17.62384 -20.3353,29.82503 -32.5364,37.95906 -12.2011,8.13412 -27.1137,12.20118 -44.7375,12.20118 -23.0467,0 -42.0262,-6.77843 -52.8717,-20.33521 -10.8454,-13.55688 -17.6239,-33.89209 -17.6239,-62.36143 l 0,-420.26195 108.4547,0 0,382.3028 c 0,10.8454 1.3557,18.97953 5.4227,23.04659 2.7113,4.06706 8.1341,6.77844 16.2682,6.77844 6.7785,0 10.8455,-2.71138 14.9125,-6.77844 2.7114,-4.06706 4.067,-12.20119 4.067,-21.6909 l 0,-383.65849 108.4548,0 z"
       inkscape:connector-curvature="0" />
    <path
       style="fill:#ffffff"
       id="path13"
       d="m 1446.2126,673.07965 0,-493.46878 107.0991,0 0,42.02622 1.3556,0 c 9.4898,-17.62384 20.3353,-29.82503 32.5364,-37.95915 12.2011,-8.13413 27.1137,-12.20109 44.7375,-12.20109 23.0467,0 42.0263,6.77834 52.8718,21.6909 12.201,13.55678 17.6238,35.24778 17.6238,62.36143 l 0,418.90616 -109.8103,0 0,-383.65839 c 0,-10.8455 -1.3557,-18.97952 -4.0671,-23.04658 -2.7113,-4.06707 -8.1341,-5.42275 -14.9125,-5.42275 -6.7785,0 -12.2011,2.71137 -14.9125,6.77843 -2.7114,4.06697 -5.4227,12.20109 -5.4227,21.6909 l 0,382.3027 -107.0991,0 z"
       inkscape:connector-curvature="0" />
    <path
       style="fill:#ffffff"
       id="path15"
       d="m 1988.7645,571.40338 c 0,36.60347 -10.8454,65.07281 -32.5364,84.05243 -21.6909,18.97953 -54.2273,29.82503 -94.8979,29.82503 -40.6705,0 -71.8512,-9.48981 -94.8978,-29.82503 -23.0466,-20.33521 -33.8921,-47.44896 -33.8921,-82.69674 l 0,-92.18645 109.8104,0 0,92.18645 c 0,10.8455 1.3557,18.97963 4.067,23.04669 2.7114,4.06706 8.1341,6.77834 14.9125,6.77834 6.7785,0 12.2012,-2.71128 14.9126,-6.77834 2.7114,-4.06706 4.067,-12.20119 4.067,-23.04669 l 0,-44.73749 c 0,-20.33531 -17.6239,-44.73759 -54.2273,-73.20693 -8.1342,-6.77844 -13.5568,-10.8455 -18.9796,-14.91256 l -1.3557,-1.35569 c -50.1603,-42.02611 -74.5626,-82.69664 -74.5626,-124.72286 l 0,-43.3818 c 0,-32.5364 10.8455,-58.29446 33.8921,-75.9183 23.0466,-17.62394 54.2273,-27.11366 94.8979,-27.11366 40.6705,0 73.2069,9.48972 94.8978,28.46934 23.0467,18.97953 33.8921,46.09318 33.8921,79.98527 l 0,74.56262 -108.4547,0 0,-77.27399 c 0,-10.8454 -1.3556,-18.97953 -4.067,-23.04659 -2.7114,-4.06707 -8.1341,-6.77844 -14.9126,-6.77844 -6.7784,0 -12.2011,2.71137 -14.9125,6.77844 -2.7113,4.06706 -4.067,12.20119 -4.067,23.04659 l 0,28.46943 c 0,21.69091 17.6239,47.44887 52.8716,73.20683 8.1342,6.77844 14.9126,10.8455 18.9796,14.91257 33.892,27.11365 55.583,48.80455 63.7172,65.0728 8.134,14.91256 12.2011,35.24778 12.2011,61.00574 l 0,55.58299 z"
       inkscape:connector-curvature="0" />
    <path
       style="fill:#ffffff"
       id="path17"
       d="m 2019.1281,545.64542 0,-237.24463 c 0,-51.51592 9.4898,-88.11939 29.8251,-108.4546 18.9795,-20.33532 52.8716,-31.18072 97.6092,-31.18072 40.6705,0 71.8512,9.48972 94.8979,28.46934 23.0465,18.97953 33.892,44.73749 33.892,78.62958 l 0,77.27399 -108.4547,0 0,-77.27399 c 0,-10.8454 -1.3556,-18.97952 -4.067,-23.04659 -2.7114,-4.06706 -8.1342,-6.77844 -14.9125,-6.77844 -6.7784,0 -12.2012,2.71138 -14.9126,6.77844 -2.7113,4.06707 -4.067,12.20119 -4.067,23.04659 l 0,298.25037 c 0,10.8455 1.3557,18.97962 4.067,23.04669 2.7114,4.06706 8.1342,6.77833 14.9126,6.77833 6.7783,0 12.2011,-2.71127 14.9125,-6.77833 2.7114,-4.06707 4.067,-12.20119 4.067,-23.04669 l 0,-92.18646 108.4547,0 0,90.83077 c 0,35.24778 -10.8455,63.71712 -33.892,82.69674 -23.0467,18.97953 -54.2274,29.82503 -94.8979,29.82503 -46.0933,0 -78.6297,-10.8455 -98.9649,-31.18072 -18.9796,-21.6909 -28.4694,-58.29436 -28.4694,-108.4547 z"
       inkscape:connector-curvature="0" />
    <path
       style="fill:#ffffff"
       id="path19"
       d="m 2306.5331,673.07965 0,-615.480258 108.4547,0 0,164.037698 1.3556,0 c 8.1341,-17.62384 18.9796,-29.82503 31.1808,-37.95915 12.2011,-8.13413 27.1136,-12.20109 44.7375,-12.20109 23.0465,0 42.0262,6.77834 52.8717,21.6909 12.2011,13.55678 17.6238,35.24778 17.6238,62.36143 l 0,418.90616 -109.8104,0 0,-383.65839 c 0,-10.8455 -1.3557,-18.97952 -4.067,-23.04658 -2.7113,-4.06707 -8.1341,-5.42275 -14.9125,-5.42275 -6.7784,0 -12.2012,2.71137 -14.9126,6.77843 -2.7113,4.06697 -5.4226,12.20109 -5.4226,21.6909 l 0,382.3027 -107.099,0 z"
       inkscape:connector-curvature="0" />
    <path
       style="fill:#ffffff"
       id="path21"
       d="m 2645.1755,673.07965 -67.7842,-493.46878 109.8104,0 20.3352,254.86857 c 1.3557,16.26815 1.3557,33.89209 2.7114,52.87161 0,18.97953 1.3556,40.67053 1.3556,62.36143 l 4.0671,0 c 1.3557,-40.67053 4.0671,-81.34095 8.1341,-122.01148 0,-2.71138 0,-5.42275 1.3557,-6.77844 l 27.1137,-242.66737 113.8773,0 21.691,254.86856 c 0,2.71137 1.3557,16.26815 1.3557,42.02611 1.3557,25.75807 1.3557,50.16034 2.7114,73.20693 l 4.067,0 c 1.3556,-36.60346 4.067,-74.56261 8.1341,-112.52167 1.3557,-8.13412 1.3557,-12.20118 1.3557,-14.91256 l 21.6909,-242.66737 105.7433,0 -73.2069,493.46877 -126.0786,0 -20.3352,-226.39912 c 0,-6.77844 -1.3557,-20.33522 -2.7114,-42.02612 -1.3557,-20.33531 -1.3557,-44.73759 -2.7113,-71.85124 l -1.3557,0 c -1.3557,36.60347 -4.0671,71.85124 -8.1342,104.38764 l 0,1.35569 -29.825,233.17747 -123.3671,0 z"
       inkscape:connector-curvature="0" />
    <path
       style="fill:#ffffff"
       id="path23"
       d="m 3154.634,574.11476 c 0,10.8455 1.3557,18.97962 4.067,23.04669 2.7114,4.06706 8.1342,6.77833 14.9125,6.77833 6.7784,0 12.2012,-2.71127 14.9126,-6.77833 2.7113,-4.06707 4.067,-12.20119 4.067,-23.04669 l 0,-92.18646 108.4547,0 0,90.83077 c 0,35.24778 -10.8455,63.71712 -33.8921,82.69674 -23.0466,18.97953 -54.2274,29.82503 -94.8979,29.82503 -46.0932,0 -78.6296,-10.8455 -98.9649,-31.18072 -20.3352,-21.6909 -29.825,-56.93867 -29.825,-108.4547 l 0,-237.24463 c 0,-51.51592 9.4898,-88.11939 29.825,-108.4546 18.9797,-20.33532 52.8717,-31.18072 97.6092,-31.18072 40.6706,0 71.8513,9.48972 94.898,28.46934 23.0465,18.97953 33.892,44.73749 33.892,78.62958 l 0,168.10476 -147.7695,0 0,130.14561 z m 0,-298.25037 0,93.54224 39.3148,0 0,-93.54224 c 0,-10.8454 -1.3557,-18.97952 -4.067,-23.04659 -2.7114,-4.06706 -8.1342,-6.77844 -14.9126,-6.77844 -6.7783,0 -12.2011,2.71138 -14.9125,6.77844 -4.067,4.06707 -5.4227,12.20119 -5.4227,23.04659 z"
       inkscape:connector-curvature="0" />
    <path
       style="fill:#ffffff"
       id="path25"
       d="m 3331.9684,151.14153 0,-93.542138 108.4547,0 0,93.542138 -108.4547,0 z m 0,521.93812 0,-493.46878 108.4547,0 0,493.46878 -108.4547,0 z"
       inkscape:connector-curvature="0" />
    <path
       style="fill:#ffffff"
       id="path27"
       d="m 3622.0846,564.62504 -1.3557,0 c -8.1341,18.97953 -17.6238,32.53641 -31.1807,40.67043 -12.2011,9.48981 -28.4693,13.55688 -46.0932,13.55688 -24.4024,0 -42.0262,-6.77844 -52.8717,-20.33522 -10.8454,-13.55687 -16.2681,-33.89209 -16.2681,-63.71711 l 0,-287.40497 c 0,-24.40227 5.4227,-43.3818 17.6238,-56.93868 12.2012,-13.55687 29.825,-20.33521 52.8717,-20.33521 17.6238,0 32.5364,4.06696 44.7375,12.20109 12.2012,8.13412 23.0466,20.33531 32.5364,37.95915 l 2.7114,0 0,-40.67053 105.7433,0 0,463.64375 c 0,51.51603 -9.4898,88.1195 -29.825,108.45471 -20.3353,21.6909 -52.8717,31.18071 -98.9649,31.18071 -40.6705,0 -71.8513,-9.48981 -94.8978,-29.82502 -23.0467,-20.33522 -33.8921,-47.44897 -33.8921,-82.69674 l 0,-37.95906 108.4546,0 0,37.95906 c 0,10.8455 1.3557,18.97962 4.067,23.04668 2.7114,4.06707 8.1342,6.77844 14.9126,6.77844 6.7784,0 12.2011,-2.71137 14.9125,-6.77844 2.7113,-4.06706 4.067,-12.20118 4.067,-23.04668 l 0,-105.74324 z m -39.3148,-63.71711 c 0,10.8454 1.3556,18.97952 4.067,23.04659 2.7114,4.06706 8.1341,6.77844 14.9126,6.77844 6.7784,0 12.2011,-2.71138 14.9124,-6.77844 2.7114,-4.06707 5.4228,-12.20119 5.4228,-23.04659 l 0,-214.19804 c 0,-9.48981 -1.3557,-17.62384 -5.4228,-21.6909 -2.7113,-4.06706 -8.134,-6.77844 -14.9124,-6.77844 -6.7785,0 -12.2012,1.35569 -14.9126,5.42275 -2.7114,4.06707 -4.067,12.20109 -4.067,23.04659 l 0,214.19804 z"
       inkscape:connector-curvature="0" />
    <path
       style="fill:#ffffff"
       id="path29"
       d="m 3792.1026,673.07965 0,-126.07854 113.8775,0 0,126.07854 -113.8775,0 z"
       inkscape:connector-curvature="0" />
    <path
       style="fill:#ffffff"
       id="path31"
       d="m 3967.5244,673.07965 0,-414.8391 -27.1136,0 0,-78.62968 27.1136,0 0,-47.44886 c 0,-24.40238 6.7785,-43.381904 21.6909,-55.583092 14.9126,-13.556776 35.2478,-20.335214 61.0058,-20.335214 l 61.0058,0 0,77.273996 c -12.2012,0 -21.691,1.35568 -27.1137,4.06706 -5.4227,2.71127 -8.1341,8.13402 -8.1341,14.91246 l 0,27.11365 35.2478,0 0,78.62968 -35.2478,0 0,414.8391 -108.4547,0 z"
       inkscape:connector-curvature="0" />
    <path
       style="fill:#ffffff"
       id="path33"
       d="m 4135.1046,673.07965 0,-493.46878 107.099,0 0,42.02622 1.3557,0 c 9.4898,-17.62384 20.3352,-29.82503 32.5364,-37.95915 12.2012,-8.13413 27.1137,-12.20109 44.7376,-12.20109 23.0466,0 42.0261,6.77834 52.8716,21.6909 12.2012,13.55678 17.624,35.24778 17.624,62.36143 l 0,191.15135 -109.8104,0 0,-155.90358 c 0,-10.8455 -1.3557,-18.97952 -4.0671,-23.04658 -2.7113,-4.06707 -8.1341,-5.42275 -14.9124,-5.42275 -6.7785,0 -12.2012,2.71137 -14.9126,6.77843 -2.7114,4.06697 -5.4228,12.20109 -5.4228,21.6909 l 0,382.3027 -107.099,0 z"
       inkscape:connector-curvature="0" />
    <path
       style="fill:#ffffff"
       id="path35"
       d="m 4531.5535,574.11476 c 0,10.8455 1.3557,18.97962 4.0671,23.04669 2.7114,4.06706 8.1341,6.77833 14.9126,6.77833 6.7783,0 12.2011,-2.71127 14.9124,-6.77833 2.7114,-4.06707 4.0671,-12.20119 4.0671,-23.04669 l 0,-92.18646 108.4547,0 0,90.83077 c 0,35.24778 -10.8455,63.71712 -33.8921,82.69674 -23.0467,18.97953 -54.2274,29.82503 -94.8978,29.82503 -46.0933,0 -78.6297,-10.8455 -98.9649,-31.18072 -20.3353,-21.6909 -29.825,-56.93867 -29.825,-108.4547 l 0,-237.24463 c 0,-51.51592 9.4897,-88.11939 29.825,-108.4546 18.9795,-20.33532 52.8716,-31.18072 97.6092,-31.18072 40.6704,0 71.8511,9.48972 94.8978,28.46934 23.0466,18.97953 33.8921,44.73749 33.8921,78.62958 l 0,168.10476 -147.7695,0 0,130.14561 z m 0,-298.25037 0,93.54224 39.3149,0 0,-93.54224 c 0,-10.8454 -1.3557,-18.97952 -4.0671,-23.04659 -2.7114,-4.06706 -8.1341,-6.77844 -14.9124,-6.77844 -6.7785,0 -12.2012,2.71138 -14.9126,6.77844 -2.7114,4.06707 -5.4228,12.20119 -5.4228,23.04659 z"
       inkscape:connector-curvature="0" />
    <path
       style="fill:#ffffff"
       id="path37"
       d="m 4711.892,151.14153 0,-93.542138 108.4546,0 0,93.542138 -108.4546,0 z m 0,521.93812 0,-493.46878 108.4546,0 0,493.46878 -108.4546,0 z"
       inkscape:connector-curvature="0" />
    <path
       style="fill:#ffffff"
       id="path39"
       d="m 4875.8973,673.07965 0,-414.8391 -27.1137,0 0,-78.62968 27.1137,0 0,-47.44886 c 0,-24.40238 6.7784,-43.381904 21.6909,-55.583092 14.9125,-13.556776 35.2478,-20.335214 61.0058,-20.335214 l 61.0058,0 0,77.273996 c -12.2012,0 -21.691,1.35568 -27.1137,4.06706 -5.4227,2.71127 -8.1341,8.13402 -8.1341,14.91246 l 0,27.11365 35.2478,0 0,78.62968 -35.2478,0 0,414.8391 -108.4547,0 z"
       inkscape:connector-curvature="0" />
    <path
       style="fill:#ffffff"
       id="path41"
       d="m 5305.9556,179.61087 0,493.46878 -107.099,0 0,-40.67043 -2.7114,0 c -9.4897,17.62384 -20.3352,29.82503 -32.5364,37.95906 -12.2011,8.13412 -27.1136,12.20118 -44.7375,12.20118 -23.0467,0 -42.0262,-6.77843 -52.8717,-20.33521 -12.2011,-13.55688 -17.6238,-33.89209 -17.6238,-62.36143 l 0,-420.26195 108.4547,0 0,382.3028 c 0,10.8454 1.3557,18.97953 5.4226,23.04659 4.0671,4.06706 8.1341,6.77844 16.2683,6.77844 6.7784,0 10.8455,-2.71138 14.9124,-6.77844 2.7114,-4.06706 4.0671,-12.20119 4.0671,-21.6909 l 0,-383.65849 108.4547,0 z"
       inkscape:connector-curvature="0" />
    <path
       style="fill:#ffffff"
       id="path43"
       d="m 5337.4148,673.07965 0,-493.46878 107.0989,0 0,42.02622 1.3557,0 c 9.4898,-17.62384 20.3353,-29.82503 32.5364,-37.95915 12.2012,-8.13413 27.1138,-12.20109 44.7376,-12.20109 23.0466,0 42.0262,6.77834 52.8716,21.6909 12.2012,13.55678 17.624,35.24778 17.624,62.36143 l 0,418.90616 -109.8104,0 0,-383.65839 c 0,-10.8455 -1.3557,-18.97952 -4.0671,-23.04658 -2.7114,-4.06707 -8.134,-5.42275 -14.9124,-5.42275 -6.7785,0 -12.2012,2.71137 -14.9126,6.77843 -2.7114,4.06697 -5.4228,12.20109 -5.4228,21.6909 l 0,382.3027 -107.0989,0 z"
       inkscape:connector-curvature="0" />
    <path
       style="fill:#ffffff"
       id="path45"
       d="m 5625.0982,673.07965 0,-615.480258 108.4546,0 0,337.565208 1.3557,0 46.0933,-214.19804 111.1659,0 -54.2273,212.84235 54.2273,280.62643 -113.8773,0 -43.3819,-258.93553 -1.3557,0 0,258.93553 -108.4546,0 z"
       inkscape:connector-curvature="0" />
    <path
       style="fill:#ffffff"
       id="path49"
       d="m 6119.0137,673.07965 0,-493.46878 107.099,0 0,42.02622 1.3557,0 c 9.4898,-17.62384 20.3353,-29.82503 32.5364,-37.95915 12.2012,-8.13413 27.1137,-12.20109 44.7376,-12.20109 23.0466,0 42.0262,6.77834 52.8716,21.6909 12.2012,13.55678 17.624,35.24778 17.624,62.36143 l 0,418.90616 -109.8104,0 0,-383.65839 c 0,-10.8455 -1.3557,-18.97952 -4.0671,-23.04658 -2.7114,-4.06707 -8.1341,-5.42275 -14.9125,-5.42275 -6.7784,0 -12.2011,2.71137 -14.9125,6.77843 -2.7114,4.06697 -5.4228,12.20109 -5.4228,21.6909 l 0,382.3027 -107.099,0 z"
       inkscape:connector-curvature="0" />
    <path
       style="fill:#ffffff"
       id="path47"
       d="m 5944.1672,673.07965 0,-126.07854 113.8774,0 0,126.07854 -113.8774,0 z"
       inkscape:connector-curvature="0" />
    <path
       style="fill:#ffffff"
       id="path51"
       d="m 6519.479,574.11476 c 0,10.8455 1.3556,18.97962 4.067,23.04669 2.7114,4.06706 8.1341,6.77833 14.9126,6.77833 6.7784,0 12.2012,-2.71127 14.9125,-6.77833 2.7113,-4.06707 4.067,-12.20119 4.067,-23.04669 l 0,-92.18646 108.4547,0 0,90.83077 c 0,35.24778 -10.8455,63.71712 -33.8921,82.69674 -23.0466,18.97953 -54.2273,29.82503 -94.8978,29.82503 -46.0933,0 -78.6297,-10.8455 -98.9649,-31.18072 -20.3352,-21.6909 -29.825,-56.93867 -29.825,-108.4547 l 0,-237.24463 c 0,-51.51592 9.4898,-88.11939 29.825,-108.4546 18.9795,-20.33532 52.8716,-31.18072 97.6092,-31.18072 40.6705,0 71.8512,9.48972 94.8978,28.46934 23.0466,18.97953 33.8921,44.73749 33.8921,78.62958 l 0,168.10476 -147.7694,0 0,130.14561 z m 0,-298.25037 0,93.54224 39.3148,0 0,-93.54224 c 0,-10.8454 -1.3557,-18.97952 -4.0671,-23.04659 -2.7113,-4.06706 -8.134,-6.77844 -14.9124,-6.77844 -6.7785,0 -12.2012,2.71138 -14.9126,6.77844 -2.7114,4.06707 -5.4227,12.20119 -5.4227,23.04659 z"
       inkscape:connector-curvature="0" />
    <path
       style="fill:#ffffff"
       id="path53"
       d="m 6681.8684,259.59624 0,-79.98537 27.1138,0 0,-92.186452 109.8103,0 0,92.186452 31.1807,0 0,78.62968 -31.1807,0 0,300.96174 c 0,14.91247 1.3557,24.40228 5.4227,28.46934 4.0671,4.06707 10.8455,5.42275 21.6909,5.42275 l 4.0671,0 0,79.98527 -69.1399,0 c -27.1136,0 -44.7375,-5.42265 -55.583,-17.62384 -10.8455,-12.20119 -16.2681,-35.24777 -16.2681,-67.78418 l 0,-328.07539 -27.1138,0 z"
       inkscape:connector-curvature="0" />
    <path
       sodipodi:nodetypes="cccccccccccccccccccssccccccccccccccccccccccccccccccccccccccccccccccccccccccccccccccccccccccccccccccccc"
       inkscape:connector-curvature="0"
       id="path5352"
       d="m 6241.8507,-1464.0701 0,100.1244 -105.8178,102.4701 -4.3532,470.15202 -866.2987,26.11848 -169.7771,-143.65702 -165.4239,195.89614 0,313.43468 -121.8912,-4.35272 -8.7065,-269.90209 -230.7228,-4.3538 -28.4636,-91.4179 -424.2754,-4.35273 -21.7663,87.06519 -248.4706,8.70544 0,182.83798 -13.0598,317.7874 3268.1284,56.56453 59.8238,-11.4013 c 0,0 -59.9484,-56.25908 -65.7116,-61.35511 -5.7633,-5.09602 -13.7868,-12.154 -22.8276,-20.00178 -18.0817,-15.69558 -40.2329,-34.55042 -56.5106,-47.18746 -32.1158,-24.93441 -68.0429,-44.99636 -105.148,-61.61537 -37.3571,-16.73795 -116.8683,-37.84041 -116.8683,-37.84041 l 39.1794,-265.54936 0,-135.62024 -18.4176,0 0,39.8496 -55.5878,0 -100.7947,-140.97916 0,-101.12957 -18.4176,0 0,102.80443 -111.5105,139.3043 -29.1333,0 0,-41.18907 -18.4176,0 0,41.18907 -0.3344,0 0,91.41791 30.4728,235.07601 -113.5195,-8.70651 -34.8261,-857.59158 -102.1342,-103.1388 0,-99.4557 -18.4177,0 z m -3.3487,222.0157 28.1287,0 0,78.3597 -28.1287,0 z m 338.5495,580.32347 35.8308,0 0,35.83014 -35.8308,0 z m 57.597,0 35.8308,0 0,35.83014 -35.8308,0 z m 57.597,0 36.1655,0 0,35.83014 -36.1655,0 z m -1657.5872,27.12469 45.5417,0 0,117.53747 -45.5417,0 z m 84.7211,0 45.8766,0 0,117.53747 -45.8766,0 z m -937.96,114.18881 31.4774,0 0,60.61023 -31.4774,0 z m 68.6475,0 31.4775,0 0,60.61023 -31.4775,0 z m 68.3128,0 31.4774,0 0,60.61023 -31.4774,0 z m 68.6475,0 31.4774,0 0,60.61023 -31.4774,0 z m 68.3127,0 31.8123,0 0,60.61023 -31.8123,0 z"
       style="fill:#1a181d;fill-opacity:1;fill-rule:nonzero;stroke:none" />
    <path
       style="fill:#1a181d;fill-opacity:1;fill-rule:nonzero;stroke:none"
       d="m 2671.7682,-1663.4778 -39.5142,279.2794 0,95.4363 -4.6882,-0.3322 -14.0643,-91.7544 -36.5005,165.7593 0,149.3503 10.7158,18.7525 0,654.32836 1105.393,0 0,-347.25563 -246.4614,-175.46984 -104.8131,0 -25.4498,-216.99319 -21.4314,216.99319 -292.673,0 -24.4453,-207.95239 -20.4268,207.95239 -206.2776,0 0,-168.10389 15.069,-40.5182 0,-83.3812 -27.1241,-169.1079 -15.7387,90.7482 -9.3763,-3.0133 -1.6743,-86.3954 -40.5188,-288.3203 z m -11.0506,286.6454 23.1057,0 0,60.2759 -23.1057,0 0,-60.2759 z"
       id="path5354"
       inkscape:connector-curvature="0" />
    <path
       sodipodi:nodetypes="ccccccccccccccccccccccccccccccccsssccccccccccccccccccccccccccccccccccccccccccccccccccccccccsccccssccccsccccccccccccccccccccccccc"
       style="fill:#1a181d;fill-opacity:1;fill-rule:nonzero;stroke:none"
       d="m 2237.4167,-1011.2079 -51.5694,64.96507 -0.6697,183.17123 -43.5326,-87.06519 -888.3998,-39.17986 -30.1379,73.67053 0,-95.4363 -47.8859,0 0,212.64052 -0.3343,0.66437 1.004,231.72736 -57.5969,-1.00728 0,-274.25481 -314.10444,-4.3538 0,118.87693 -7.03219,0 0,-118.87693 -1.00407,0 -13.05977,-113.18475 -126.5794,-19.08683 0,115.52828 -7.03218,0 0,-116.53341 -127.58399,-19.08683 -86.06059,46.88126 -2.0092,-22.43658 -36.83527,21.43144 -27.45903,36.83527 0,0.33219 4.35327,487.56506 c 0,0 -55.75377,2.22243 -82.71193,8.70545 -63.1175,17.60378 -94.26916,28.18447 -144.3273,61.95076 -6.24986,4.2236 -15.22709,10.71746 -25.17738,18.08247 -9.9503,7.36501 -20.87366,15.60118 -31.015795,23.30939 -10.142132,7.70822 -19.503031,14.88848 -26.328397,20.14169 -6.825366,5.25321 -67.8783666,56.61475 -67.8783666,56.61475 l 68.1689416,8.33908 2402.232387,-18.92196 14.3502,-43.27113 0,-270.23642 c -4.3538,-30.47977 -8.7064,-191.54341 -8.7064,-191.54341 l -95.7717,-100.1255 -87.0652,0 -4.0184,-188.19476 -48.2207,-68.64805 z m -34.1563,96.10709 13.3946,0 0,42.52853 -13.3946,0 z m 26.4544,0 13.0597,0 0,42.52853 -13.0597,0 z m 27.1242,0 13.0597,0 0,42.52853 -13.0597,0 z m -1766.41879,83.71653 0,44.53772 -45.87666,19.42117 0,-44.53666 z m 192.54801,43.5326 25.11496,0 0,39.17879 -25.11496,0 z m 37.17015,2.00919 24.78008,0 0,39.17987 -24.78008,0 z m -120.88668,1.00728 21.7663,0 0,19.75763 -21.7663,0 z m -48.89045,87.06519 36.83527,0 0,32.81794 -36.83527,0 z m 140.30891,8.70759 30.47281,0 0,81.70732 -30.47281,0 z m 970.10705,7.03165 c 14.4316,-1.77559 28.237,15.82069 28.1288,16.07358 l 0,77.68893 -55.2529,0 0,-77.68893 c 0,-0.002 9.8369,-13.94651 27.1241,-16.07358 z m 106.4875,0 c 14.4315,-1.77559 28.5719,15.82069 28.4636,16.07358 l 0,77.68893 -55.5878,0 0,-77.68893 c 0,-0.002 9.837,-13.94651 27.1242,-16.07358 z m -888.3998,1.6738 87.06519,0 0,24.11036 -87.06519,0 z m 127.2491,1.33945 75.01,22.77091 -7.0321,22.77089 -75.01007,-22.77089 z m 1321.7165,47.21667 41.1886,0 0,60.2759 -41.1886,0 z m 68.3128,0 41.5234,0 0,60.2759 -41.5234,0 z m -1901.36984,34.15634 0,52.23911 -37.17013,11.05004 0,-52.23911 z"
       id="path5356"
       inkscape:connector-curvature="0" />
    <rect
       y="-459.6283"
       x="2398.9485"
       height="285.68045"
       width="269.94022"
       id="rect5358"
       style="fill:#1a181d;fill-opacity:1;fill-rule:nonzero;stroke:none" />
    <rect
       y="-500.21512"
       x="2626.4048"
       height="322.14142"
       width="1301.6364"
       id="rect5360"
       style="fill:#1a181d;fill-opacity:1;fill-rule:nonzero;stroke:none" />
    <ellipse
       style="fill:none;stroke:#de2c68;stroke-width:38.78803635;stroke-miterlimit:4;stroke-dasharray:none;stroke-opacity:1"
       cx="1343.9109"
       cy="-867.86365"
       stroke-miterlimit="4"
       id="circle5364"
       rx="737.80231"
       ry="752.22797" />
    <ellipse
       style="fill:none;stroke:#de2c68;stroke-width:38.78804016;stroke-miterlimit:4;stroke-dasharray:none;stroke-opacity:1"
       cx="2657.7869"
       cy="-1247.1616"
       stroke-miterlimit="4"
       id="circle5366"
       rx="796.43817"
       ry="810.05853" />
    <ellipse
       inkscape:export-ydpi="210.34973"
       inkscape:export-xdpi="210.34973"
       inkscape:export-filename="/home/seb/work/freifunk-bs-logo/freifunk-bs-avatar.png"
       style="fill:none;stroke:#de2c68;stroke-width:209.85032654;stroke-miterlimit:4;stroke-dasharray:none;stroke-opacity:1"
       cx="2654.3889"
       cy="-1247.1656"
       stroke-miterlimit="4"
       id="circle5368"
       rx="1042.0042"
       ry="1052.2175" />
    <polygon
       style="fill:#ffcc33;fill-opacity:1"
       points="31,44 26,44 30,48 22,48 22,52 30,52 26,56 31,56 37,50 "
       transform="matrix(32.895329,0,0,31.180199,183.11896,-2725.2843)"
       id="polygon5370" />
    <polygon
       id="polygon5372"
       transform="matrix(30.357262,0,0,31.417916,766.33357,-2135.7336)"
       points="81,59 75,53 88,53 88,47 75,47 81,41 73,41 64,50 73,59 "
       style="fill:#ffcc33;fill-opacity:1" />
    <path
       style="fill:#ffffff;fill-opacity:1;stroke:none"
       d="m 5779.5251,-596.15762 c -9.0058,-3.1034 -18.7159,-4.14334 -28.1747,-3.01746 -4.566,0.5435 -9.1613,1.62067 -13.0812,4.02448 -4.4727,2.7428 -7.7908,7.03289 -12.0748,10.06207 -3.64,2.57381 -7.8803,4.16776 -12.1599,5.41624 -4.2796,1.24848 -8.6515,2.17978 -12.8845,3.57808 -5.6687,1.87253 -11.0475,4.56918 -16.7695,6.27171 -6.7508,2.00864 -13.8538,2.5932 -20.897,2.5564 -0.9989,-0.005 -2.0039,-0.0223 -2.9899,0.13751 -0.9861,0.15978 -1.9641,0.509 -2.7234,1.15811 -0.5514,0.4714 -0.9705,1.08809 -1.2485,1.75819 -0.2779,0.6701 -0.4177,1.39284 -0.4561,2.11729 -0.077,1.44889 0.2453,2.88661 0.5867,4.29679 0.8375,3.4589 1.804,6.88628 2.5913,10.35695 1.48,6.52436 2.3298,13.21229 4.4523,19.55677 1.0694,3.19647 2.4573,6.28627 4.1366,9.20876 9.0265,-1.28786 18.1685,-1.76517 27.28,-1.42429 2.0552,0.0769 4.1572,0.206 6.0511,1.00797 0.9469,0.40098 1.8306,0.97129 2.529,1.7261 0.6984,0.75481 1.2054,1.69975 1.3708,2.7147 0.2227,1.36653 -0.1903,2.79514 -0.9833,3.93016 -0.7929,1.13503 -1.9418,1.99102 -3.1947,2.58031 -2.5058,1.17859 -5.3513,1.3175 -8.0906,1.72255 -3.5562,0.52583 -7.0219,1.52615 -10.5192,2.35804 -4.6583,1.10806 -9.3871,1.91978 -14.1483,2.42862 -0.5746,1.97205 -0.6766,4.08007 -0.295,6.09837 0.788,4.16801 3.512,7.66098 6.0374,11.0691 1.1381,1.53587 2.2705,3.10913 3.7579,4.30981 0.7437,0.60034 1.5739,1.1021 2.4755,1.41918 0.9017,0.31707 1.8772,0.44538 2.8229,0.30683 1.0666,-0.15627 2.0574,-0.64169 2.9801,-1.19913 0.9227,-0.55745 1.7987,-1.1937 2.7521,-1.69682 1.7414,-0.91895 3.7152,-1.37125 5.6842,-1.3877 1.9689,-0.0164 3.932,0.3965 5.7612,1.12525 3.6584,1.45749 6.7241,4.13726 9.2184,7.18466 5.0543,6.17519 7.9474,13.90375 9.3232,21.76418 1.3758,7.86042 1.3099,15.89938 0.9727,23.87217 -0.5142,12.15577 -1.6451,24.39986 0.1224,36.43742 1.3339,9.08435 4.2943,17.84992 7.6126,26.41107 4.2864,11.05861 9.3971,22.16976 17.9603,30.37568 8.8839,8.5132 20.6787,13.15221 32.0946,17.7429 2.1822,0.87753 4.4142,1.79288 6.1424,3.38828 2.0084,1.85403 3.1484,4.45482 4.0251,7.04373 4.6366,13.69118 3.3142,28.57186 4.4674,42.98076 1.0296,12.86379 4.0626,25.86282 1.5699,38.52471 -0.6467,3.2848 -1.7302,6.61743 -4.025,9.05507 -1.3583,1.4429 -3.1142,2.5173 -5.031,3.02015 -1.9628,0.5149 -4.0252,0.42997 -6.0538,0.38178 -2.0286,-0.0482 -4.1055,-0.0486 -6.0211,0.62076 -2.6797,0.93633 -4.8434,3.21304 -5.6817,5.92502 -0.4709,1.52338 -0.5397,3.16908 -0.1978,4.72648 0.342,1.5574 1.0939,3.02287 2.1597,4.20886 6.763,1.99676 13.6718,3.49934 20.6532,4.4918 11.3771,1.61734 22.9467,1.8759 34.3847,0.76844 3.5337,-10.49633 6.2284,-21.27501 8.0499,-32.19939 2.6529,-15.9104 3.4483,-32.06345 5.0908,-48.10965 1.388,-13.56002 3.3833,-27.05787 5.9778,-40.43955 51.4135,-2.7805 102.754,-6.91172 153.9506,-12.38796 12.4097,-1.32741 25.1251,-2.71548 37.2349,0.30381 14.9724,3.73302 27.4133,13.76227 40.3013,22.2481 11.2556,7.41102 23.2723,13.86951 33.1541,23.03262 4.4024,4.08225 8.3727,8.72206 11.0686,14.08656 3.1241,6.21636 4.4352,13.19341 5.0312,20.12506 0.7209,8.38476 0.4428,16.86649 -1.0059,25.15656 -0.1579,0.90346 -0.3306,1.80855 -0.6336,2.67419 -0.3031,0.86565 -0.7426,1.69584 -1.3789,2.3564 -0.9676,1.00457 -2.3351,1.55406 -3.7159,1.75132 -1.3808,0.19726 -2.7866,0.069 -4.1693,-0.11476 -1.3826,-0.1838 -2.763,-0.42331 -4.1575,-0.44847 -1.3946,-0.0252 -2.8227,0.17569 -4.0571,0.82504 -1.2751,0.67073 -2.2738,1.78515 -3.0187,3.01835 -1.8013,2.98215 -2.1812,6.78238 -1.0058,10.06209 l 44.2743,-1.00254 0,-68.42504 c 7.0425,2.83811 12.7153,8.88893 15.0937,16.0997 1.7,5.15403 1.7594,10.67933 2.0125,16.10058 0.3497,7.49003 1.0999,14.96135 2.2462,22.37141 -3.0431,0.44939 -6.0866,0.89616 -9.1305,1.3403 -2.85,0.41585 -5.8035,0.86738 -8.2093,2.45096 -1.757,1.15655 -3.1271,2.89047 -3.846,4.86733 -0.7189,1.97686 -0.7827,4.18584 -0.179,6.20087 l 43.2684,0 c -2.0497,-13.95122 -3.5811,-27.97859 -4.59,-42.04345 -1.0619,-14.80446 -1.5449,-29.65044 -1.4474,-44.49262 -7.1026,-4.41066 -13.5639,-9.85201 -19.1187,-16.10058 -8.3567,-9.40043 -14.5586,-20.47006 -21.131,-31.19416 -8.5701,-13.98383 -17.8913,-27.5561 -25.1558,-42.26057 -5.6985,-11.53457 -10.0956,-23.71146 -13.0812,-36.22566 -12.8074,-11.81565 -27.9397,-21.10148 -44.2746,-27.16878 -28.6715,-10.64952 -59.9764,-11.19807 -90.5615,-11.06732 -22.3795,0.0957 -45.3071,0.40164 -66.4117,-7.04462 -5.9527,-2.10026 -11.6932,-4.80136 -17.106,-8.04895 -9.2864,-7.03504 -17.7479,-15.15799 -25.156,-24.14954 -14.2129,-17.25072 -24.3597,-37.4074 -36.2247,-56.34981 -6.6316,-10.58725 -13.8398,-20.84805 -22.1373,-30.18715 -6.1528,-6.92522 -12.8931,-13.32835 -20.1247,-19.11805 l -9e-4,0.0125 z"
       id="path5515"
       inkscape:path-effect="#path-effect5517"
       inkscape:original-d="m 5779.5251,-596.15762 c -8.5726,-3.96461 -18.7729,-3.92351 -28.1747,-3.01746 -4.5412,0.42889 -9.0703,1.8514 -13.0812,4.02448 -4.6065,2.49653 -7.5275,7.46011 -12.0748,10.06207 -7.6988,4.40692 -16.716,5.942 -25.0444,8.99432 -5.6033,2.05423 -10.9883,4.79023 -16.7695,6.27171 -3.8956,0.99272 -16.5644,2.72975 -20.897,2.5564 -5.3238,-0.21445 -2.2332,-2.21149 -5.7133,1.29562 -1.9366,1.95149 -1.268,5.42733 -1.1179,8.17227 0.1939,3.55448 1.7645,6.89629 2.5913,10.35695 1.5535,6.50313 2.33,13.21716 4.4523,19.55677 1.0682,3.18992 4.1366,9.20876 4.1366,9.20876 0,0 18.4026,-3.45083 27.28,-1.42429 3.6868,0.83098 9.7805,1.6709 9.9509,5.44877 0.2215,4.9198 -7.7434,6.28869 -12.2686,8.23302 -3.3015,1.41804 -6.9941,1.66108 -10.5192,2.35804 -4.6942,0.92837 -14.1483,2.42862 -14.1483,2.42862 0,0 -0.7507,4.11473 -0.295,6.09837 0.9394,4.09596 3.2004,7.96764 6.0374,11.0691 2.4493,2.67523 5.4348,5.81869 9.0563,6.03582 2.1371,0.12509 3.5968,-2.74047 5.7322,-2.89595 7.245,-0.51825 15.7938,1.53152 20.6638,6.92221 10.4542,11.57127 8.5432,30.14068 10.2959,45.63635 1.365,12.06896 -2.4483,24.56592 0.1224,36.43742 1.9087,8.8147 4.3304,17.80634 7.6126,26.41107 4.273,11.19955 10.0042,21.74146 17.9603,30.37568 5.5172,5.98757 24.2485,14.73795 32.0946,17.7429 6.1875,2.37055 1.57,-1.1196 6.1424,3.38828 1.9259,1.89876 3.2348,4.45784 4.0251,7.04373 4.3606,14.27152 3.5979,27.8863 4.4674,42.98076 0.7175,12.46212 3.6805,26.38695 1.5699,38.52471 -0.5656,3.25425 -1.8359,6.58177 -4.025,9.05507 -1.2959,1.46629 -3.1697,2.42059 -5.031,3.02015 -3.8442,1.23843 -8.429,-0.7327 -12.0749,1.00254 -2.4702,1.17768 -4.941,3.29178 -5.6817,5.92502 -0.8256,2.93616 1.9619,8.93534 1.9619,8.93534 0,0 13.657,3.65992 20.6532,4.4918 11.3843,1.3537 34.3847,0.76844 34.3847,0.76844 0,0 6.0184,-21.32418 8.0499,-32.19939 2.2866,-12.24141 3.1754,-31.88486 5.0908,-48.10965 2.6598,-22.52777 5.9778,-40.43955 5.9778,-40.43955 0,0 104.786,-7.66384 153.9506,-12.38796 34.8011,-3.3427 11.557,-6.09836 37.2349,0.30381 15.9052,3.97086 26.6564,12.61402 40.3013,22.2481 10.2961,7.26889 23.9249,14.79513 33.1541,23.03262 4.4556,3.97623 8.4417,8.72357 11.0686,14.08656 3.0419,6.20917 4.3237,13.24753 5.0312,20.12506 0.8596,8.34829 0.7452,16.94945 -1.0059,25.15656 -0.377,1.76561 -0.5825,3.92797 -2.0125,5.03059 -4.2813,3.30607 -11.2413,-0.35742 -16.0998,2.01313 -1.2783,0.62548 -2.4092,1.73167 -3.0187,3.01835 -1.4434,3.04607 -1.0058,10.06209 -1.0058,10.06209 l 44.2743,-1.00254 0,-68.42504 c 0,0 11.9687,9.44108 15.0937,16.0997 2.2975,4.89656 1.4069,10.72598 2.0125,16.10058 0.839,7.44761 2.2462,22.37141 2.2462,22.37141 0,0 -4.7774,0.67908 -9.1305,1.3403 -3.3969,0.51825 -6.2574,0.75057 -8.2093,2.45096 -2.955,2.58411 -4.025,11.0682 -4.025,11.0682 l 43.2684,0 c 0,0 -4.0186,-19.80071 -4.59,-42.04345 -0.4128,-16.04071 -1.4474,-44.49262 -1.4474,-44.49262 0,0 -13.5431,-9.90928 -19.1187,-16.10058 -8.4047,-9.33117 -14.3944,-20.59506 -21.131,-31.19416 -8.7936,-13.83548 -18.1474,-27.44043 -25.1558,-42.26057 -5.4883,-11.60612 -13.0812,-36.22566 -13.0812,-36.22566 0,0 -27.9274,-21.4591 -44.2746,-27.16878 -28.7112,-10.02724 -60.3458,-7.61827 -90.5615,-11.06732 -22.1178,-2.52512 -44.9733,-1.04543 -66.4117,-7.04462 -6.0689,-1.69771 -17.106,-8.04895 -17.106,-8.04895 0,0 -17.7699,-15.17399 -25.156,-24.14954 -14.189,-17.24341 -23.5788,-37.94659 -36.2247,-56.34981 -7.0667,-10.28457 -13.8916,-20.82113 -22.1373,-30.18715 -6.1142,-6.94454 -11.7268,-15.23386 -20.1247,-19.11805 z"
       inkscape:connector-curvature="0"
       sodipodi:nodetypes="aaaaasssaaacaaaacaaaaaassssssssaaaacacsscssssaaaaaacccaacssccscaaacaaacaaaa" />
    <path
       sodipodi:nodetypes="caaaacaaacaacc"
       inkscape:connector-curvature="0"
       inkscape:original-d="m 6164.4579,-265.41875 c 0,0 13.232,14.6191 21.0448,20.53787 9.5676,7.24924 19.7382,14.39662 31.187,18.00292 7.4444,2.34463 15.7922,4.06379 23.3269,2.02743 6.7911,-1.83443 13.5707,-6.16896 17.2416,-12.16993 3.7425,-6.11802 3.0426,-21.29738 3.0426,-21.29738 0,0 -3.809,3.18366 -6.0853,4.05575 -4.3857,1.68253 -9.511,0.48251 -13.9453,2.02832 -3.3252,1.16159 -6.525,2.95134 -9.1279,5.32457 -2.6862,2.45007 -6.3388,8.87458 -6.3388,8.87458 0,0 -15.4867,-4.88674 -22.3128,-9.12746 -7.3751,-4.58203 -13.2442,-11.246 -19.5235,-17.24162 -8.1699,-7.80234 -23.5805,-24.34165 -23.5805,-24.34165 z"
       inkscape:path-effect="#path-effect5523-8-8"
       id="path5521"
       d="m 6164.4579,-265.41875 c 6.3559,7.48048 13.4116,14.36618 21.0448,20.53787 9.3836,7.58695 19.7528,14.14651 31.187,18.00292 7.4941,2.52753 15.6333,3.86021 23.3269,2.02743 7.018,-1.67183 13.4035,-6.06129 17.2416,-12.16993 3.9292,-6.25356 5.0636,-14.19377 3.0426,-21.29738 -1.6386,1.84074 -3.7557,3.25177 -6.0853,4.05575 -4.4514,1.53627 -9.391,0.83077 -13.9453,2.02832 -3.4426,0.90524 -6.5414,2.879 -9.1279,5.32457 -2.658,2.51316 -4.8236,5.54513 -6.3388,8.87458 -7.935,-1.5588 -15.5603,-4.67807 -22.3128,-9.12746 -7.2645,-4.78675 -13.4365,-11.02595 -19.5235,-17.24162 -7.9041,-8.07117 -15.7644,-16.18521 -23.5805,-24.34165 l 5.0712,23.3266 z"
       style="fill:#ffffff;fill-opacity:1;stroke:none" />
  </g>
</svg>
