<?xml version="1.0" encoding="UTF-8" standalone="no"?>
<!-- Created with Inkscape (http://www.inkscape.org/) -->

<svg
   xmlns:dc="http://purl.org/dc/elements/1.1/"
   xmlns:cc="http://creativecommons.org/ns#"
   xmlns:rdf="http://www.w3.org/1999/02/22-rdf-syntax-ns#"
   xmlns:svg="http://www.w3.org/2000/svg"
   xmlns="http://www.w3.org/2000/svg"
   xmlns:inkscape="http://www.inkscape.org/namespaces/inkscape"
   version="1.1"
   width="354.32501"
   height="177.16251"
   id="svg2"
   xml:space="preserve"><metadata
     id="metadata8"><rdf:RDF><cc:Work
         rdf:about=""><dc:format>image/svg+xml</dc:format><dc:type
           rdf:resource="http://purl.org/dc/dcmitype/StillImage" /></cc:Work></rdf:RDF></metadata><defs
     id="defs6"><clipPath
       id="clipPath18"><path
         d="m 0,141.73 283.46,0 L 283.46,0 0,0 0,141.73 z"
         inkscape:connector-curvature="0"
         id="path20" /></clipPath><clipPath
       id="clipPath36"><path
         d="m 0,141.73 283.46,0 L 283.46,0 0,0 0,141.73 z"
         inkscape:connector-curvature="0"
         id="path38" /></clipPath><clipPath
       id="clipPath92"><path
         d="m 0,141.73 283.46,0 L 283.46,0 0,0 0,141.73 z"
         inkscape:connector-curvature="0"
         id="path94" /></clipPath><clipPath
       id="clipPath128"><path
         d="m 0,141.73 283.46,0 L 283.46,0 0,0 0,141.73 z"
         inkscape:connector-curvature="0"
         id="path130" /></clipPath><clipPath
       id="clipPath228"><path
         d="m 0,141.73 283.46,0 L 283.46,0 0,0 0,141.73 z"
         inkscape:connector-curvature="0"
         id="path230" /></clipPath><clipPath
       id="clipPath244"><path
         d="m 0,141.73 283.46,0 L 283.46,0 0,0 0,141.73 z"
         inkscape:connector-curvature="0"
         id="path246" /></clipPath></defs><g
     transform="matrix(1.25,0,0,-1.25,0,177.1625)"
     id="g10"><path
       d="m 0,0 283.46,0 0,141.73 L 0,141.73 0,0 z"
       inkscape:connector-curvature="0"
       id="path12"
       style="fill:#ffffff;fill-opacity:1;fill-rule:nonzero;stroke:none" /><g
       id="g14"><g
         clip-path="url(#clipPath18)"
         id="g16"><g
           transform="translate(12.3682,2.5146)"
           id="g22"><path
             d="m 0,0 c -5.454,0 -9.892,4.63 -9.892,10.321 l 0,116.11 c 0,5.692 4.438,10.322 9.892,10.322 l 258.673,0 c 5.454,0 9.891,-4.63 9.891,-10.322 l 0,-116.11 C 268.564,4.63 264.127,0 258.673,0 L 0,0 z"
             inkscape:connector-curvature="0"
             id="path24"
             style="fill:#ffffff;fill-opacity:1;fill-rule:nonzero;stroke:none" /></g><g
           transform="translate(271.041,141.7676)"
           id="g26"><path
             d="m 0,0 -258.673,0 c -6.844,0 -12.391,-5.741 -12.391,-12.822 l 0,-116.11 c 0,-7.081 5.547,-12.821 12.391,-12.821 l 258.673,0 c 6.844,0 12.392,5.74 12.392,12.821 l 0,116.11 C 12.392,-5.741 6.844,0 0,0 m 0,-5 c 4.076,0 7.392,-3.509 7.392,-7.822 l 0,-116.11 c 0,-4.312 -3.316,-7.821 -7.392,-7.821 l -258.673,0 c -4.076,0 -7.391,3.509 -7.391,7.821 l 0,116.11 c 0,4.313 3.315,7.822 7.391,7.822 L 0,-5"
             inkscape:connector-curvature="0"
             id="path28"
             style="fill:#2b2b2a;fill-opacity:1;fill-rule:nonzero;stroke:none" /></g><path
           d="m 144.566,8.23 -5.669,0 0,101.667 5.669,0 0,-101.667 z"
           inkscape:connector-curvature="0"
           id="path30"
           style="fill:#2b2b2a;fill-opacity:1;fill-rule:nonzero;stroke:none" /></g></g><g
       id="g32"><g
         clip-path="url(#clipPath36)"
         id="g34"><g
           transform="translate(22.0273,102.1279)"
           id="g40"><path
             d="M 0,0 C 3.877,4.589 8.889,8.219 14.516,10.344 16.481,7.872 18.473,5.419 20.414,2.924 18.034,1.766 15.423,1.103 13.226,-0.423 4.996,-5.866 0.252,-15.578 -0.372,-25.278 c -0.563,-5.785 0.376,-11.692 2.58,-17.063 2.356,-5.324 5.867,-10.311 10.842,-13.474 2.464,-1.717 5.351,-2.592 8.179,-3.502 -1.937,-2.436 -3.874,-4.872 -5.819,-7.305 C 6.421,-63.551 -0.967,-56.613 -5.199,-48.18 -13.007,-32.96 -11.162,-13.102 0,0"
             inkscape:connector-curvature="0"
             id="path42"
             style="fill:#dc206c;fill-opacity:1;fill-rule:nonzero;stroke:none" /></g><g
           transform="translate(98.52,105.0557)"
           id="g44"><path
             d="m 0,0 c 1.94,2.492 3.93,4.939 5.891,7.416 7.983,-2.987 14.611,-9.053 18.78,-16.435 5.127,-8.967 6.793,-19.761 4.996,-29.905 -1.446,-8.278 -5.296,-16.197 -11.262,-22.158 -3.741,-3.807 -8.378,-6.698 -13.409,-8.464 -1.941,2.445 -3.91,4.869 -5.815,7.337 1.878,0.623 3.811,1.105 5.587,1.991 4.808,2.374 8.805,6.295 11.378,10.987 3.218,5.175 4.644,11.305 4.812,17.356 1.134,0 2.264,0.008 3.402,0.024 -1.282,1.437 -2.891,2.599 -3.85,4.297 2.085,0.091 4.174,0.039 6.258,0.052 l 0,7.387 c -2.233,0 -4.461,0 -6.694,0.005 1.518,1.525 3.044,3.046 4.557,4.575 -2.36,0.005 -4.723,-0.011 -7.088,0.016 C 14.923,-10.171 10.942,-5.332 5.659,-2.46 3.866,-1.43 1.826,-0.963 0,0"
             inkscape:connector-curvature="0"
             id="path46"
             style="fill:#dc206c;fill-opacity:1;fill-rule:nonzero;stroke:none" /></g><g
           transform="translate(36.1196,92.0249)"
           id="g48"><path
             d="M 0,0 C 2.632,3.562 6.25,6.326 10.299,8.091 11.677,6.354 13.055,4.621 14.429,2.883 9.724,1.458 5.794,-1.981 3.515,-6.31 0.974,-10.929 0.124,-16.373 0.767,-21.58 c -0.787,0.806 -1.585,1.604 -2.384,2.404 -1.446,0 -2.891,-0.003 -4.337,0.02 C -6.086,-12.359 -4.177,-5.426 0,0"
             inkscape:connector-curvature="0"
             id="path50"
             style="fill:#dc206c;fill-opacity:1;fill-rule:nonzero;stroke:none" /></g><g
           transform="translate(94.5313,100.1196)"
           id="g52"><path
             d="m 0,0 c 6.38,-2.667 11.309,-8.095 13.969,-14.412 -1.434,-1.43 -2.881,-2.851 -4.281,-4.313 2.216,-2.16 4.404,-4.36 6.577,-6.568 0.155,-8.009 -2.656,-16.231 -8.455,-21.876 -2.359,-2.414 -5.295,-4.159 -8.389,-5.456 -1.306,1.681 -2.708,3.291 -3.958,5.016 3.003,0.962 5.858,2.476 8.035,4.803 8.393,8.822 8.354,24.281 -0.116,33.038 C 1.337,-7.6 -1.322,-6.15 -4.122,-5.211 -2.752,-3.471 -1.374,-1.738 0,0"
             inkscape:connector-curvature="0"
             id="path54"
             style="fill:#dc206c;fill-opacity:1;fill-rule:nonzero;stroke:none" /></g><g
           transform="translate(47.7607,84.0054)"
           id="g56"><path
             d="M 0,0 C 1.677,2.553 4.133,4.542 6.944,5.719 7.763,4.685 8.589,3.655 9.417,2.629 7.013,1.822 4.832,0.32 3.414,-1.808 0.271,-6.369 0.052,-12.715 2.723,-17.543 4.197,-20.309 6.82,-22.403 9.871,-23.178 9.069,-24.191 8.27,-25.217 7.459,-26.227 3.77,-24.878 0.707,-22.055 -1.05,-18.553 -4.006,-12.774 -3.65,-5.395 0,0"
             inkscape:connector-curvature="0"
             id="path58"
             style="fill:#dc206c;fill-opacity:1;fill-rule:nonzero;stroke:none" /></g><g
           transform="translate(86.2334,89.7173)"
           id="g60"><path
             d="m 0,0 c 3.665,-1.467 6.608,-4.429 8.261,-7.991 2.575,-5.519 2.268,-12.343 -0.966,-17.532 -1.786,-2.935 -4.572,-5.218 -7.791,-6.416 -0.81,1.013 -1.613,2.032 -2.42,3.046 3.351,0.834 6.138,3.29 7.56,6.413 2.68,5.623 1.633,13.115 -3.183,17.264 -1.13,0.998 -2.541,1.582 -3.914,2.145 C -1.622,-2.062 -0.804,-1.034 0,0"
             inkscape:connector-curvature="0"
             id="path62"
             style="fill:#dc206c;fill-opacity:1;fill-rule:nonzero;stroke:none" /></g><g
           transform="translate(112.9121,88.0283)"
           id="g64"><path
             d="M 0,0 C 2.213,0.011 4.429,0.008 6.641,0.008 5.14,-1.522 3.599,-3.016 2.124,-4.569 5.04,-4.601 7.96,-4.577 10.877,-4.584 l 0,-4.394 c -2.922,-0.012 -5.844,0.021 -8.765,-0.02 1.387,-1.485 2.86,-2.891 4.274,-4.353 -2.069,-0.014 -4.138,0 -6.202,-0.014 -2.272,2.247 -4.533,4.498 -6.768,6.776 C -4.383,-4.4 -2.184,-2.208 0,0"
             inkscape:connector-curvature="0"
             id="path66"
             style="fill:#fab427;fill-opacity:1;fill-rule:nonzero;stroke:none" /></g><g
           transform="translate(55.8794,77.5049)"
           id="g68"><path
             d="M 0,0 C 0.811,2.188 2.483,3.994 4.545,5.068 4.995,4.485 5.451,3.902 5.906,3.319 1.05,1.397 0.075,-5.686 3.617,-9.261 4.329,-10.096 5.354,-10.529 6.341,-10.945 5.894,-11.502 5.451,-12.06 5.011,-12.619 0.179,-10.767 -1.989,-4.64 0,0"
             inkscape:connector-curvature="0"
             id="path70"
             style="fill:#dc206c;fill-opacity:1;fill-rule:nonzero;stroke:none" /></g><g
           transform="translate(80.5386,82.5684)"
           id="g72"><path
             d="m 0,0 c 4.293,-2.128 6.336,-7.611 4.728,-12.083 -0.803,-2.525 -2.764,-4.581 -5.195,-5.6 -0.441,0.551 -0.879,1.103 -1.314,1.649 5.003,1.614 6.314,8.643 3.007,12.428 -0.68,0.852 -1.666,1.342 -2.597,1.861 C -0.916,-1.162 -0.459,-0.579 0,0"
             inkscape:connector-curvature="0"
             id="path74"
             style="fill:#dc206c;fill-opacity:1;fill-rule:nonzero;stroke:none" /></g><g
           transform="translate(64.1133,72.8208)"
           id="g76"><path
             d="M 0,0 C -0.619,3.526 2.412,7.044 5.954,7.148 9.341,7.436 12.607,4.628 12.783,1.221 13.07,-1.737 10.758,-4.281 8.154,-5.331 9.46,-17.352 10.806,-29.368 12.144,-41.383 8.358,-41.4 4.568,-41.389 0.783,-41.39 1.897,-29.332 3.055,-17.271 4.153,-5.208 2.112,-4.18 0.288,-2.359 0,0"
             inkscape:connector-curvature="0"
             id="path78"
             style="fill:#fab427;fill-opacity:1;fill-rule:nonzero;stroke:none" /></g><g
           transform="translate(28.457,71.6113)"
           id="g80"><path
             d="M 0,0 C 1.844,0.007 3.694,0.004 5.542,0 7.368,-1.842 9.205,-3.675 11.034,-5.515 9.165,-7.316 7.427,-9.261 5.49,-10.99 c -1.721,-0.359 -3.534,-0.069 -5.286,-0.144 1.205,1.209 2.415,2.411 3.613,3.626 -2.452,0.016 -4.903,0.007 -7.356,0.007 l 0,3.671 c 2.436,0.003 4.873,-0.006 7.312,0.003 C 2.539,-2.524 1.266,-1.267 0,0"
             inkscape:connector-curvature="0"
             id="path82"
             style="fill:#fab427;fill-opacity:1;fill-rule:nonzero;stroke:none" /></g><g
           transform="translate(33.9673,58.9766)"
           id="g84"><path
             d="M 0,0 C 1.709,1.392 3.198,3.029 4.736,4.603 7.088,-0.56 11.434,-5.041 17.072,-6.43 15.727,-8.116 14.376,-9.801 13.026,-11.481 7.496,-9.329 2.936,-5.126 0,0"
             inkscape:connector-curvature="0"
             id="path86"
             style="fill:#dc206c;fill-opacity:1;fill-rule:nonzero;stroke:none" /></g></g></g><g
       id="g88"><g
         clip-path="url(#clipPath92)"
         id="g90"><g
           transform="translate(42.2227,29.8896)"
           id="g96"><path
             d="m 0,0 3.556,0 0,-5.376 0.056,0 c 0.522,1.102 1.353,1.652 2.492,1.652 1.549,0 2.324,-0.916 2.324,-2.744 l 0,-13.692 -3.584,0 0,12.516 c 0,0.317 -0.042,0.555 -0.126,0.713 -0.084,0.159 -0.257,0.239 -0.518,0.239 -0.429,0 -0.644,-0.318 -0.644,-0.952 l 0,-12.516 L 0,-20.16 0,0 z"
             inkscape:connector-curvature="0"
             id="path98"
             style="fill:#2b2b2a;fill-opacity:1;fill-rule:nonzero;stroke:none" /></g><g
           transform="translate(55.2988,12.9775)"
           id="g100"><path
             d="m 0,0 c 0,-0.653 0.219,-0.979 0.658,-0.979 0.438,0 0.658,0.326 0.658,0.979 l 0,9.772 c 0,0.653 -0.229,0.98 -0.687,0.98 -0.248,0 -0.415,-0.079 -0.501,-0.237 C 0.042,10.354 0,10.108 0,9.772 L 0,0 z m -3.584,8.681 c 0,0.783 0.07,1.459 0.21,2.029 0.14,0.569 0.373,1.045 0.7,1.428 0.326,0.383 0.756,0.668 1.288,0.854 0.532,0.187 1.199,0.28 2.002,0.28 0.802,0 1.47,-0.093 2.002,-0.28 0.532,-0.186 0.961,-0.471 1.288,-0.854 0.326,-0.383 0.56,-0.859 0.7,-1.428 0.14,-0.57 0.21,-1.246 0.21,-2.029 l 0,-7.729 c 0,-0.784 -0.07,-1.461 -0.21,-2.03 C 4.466,-1.647 4.232,-2.124 3.906,-2.506 3.579,-2.889 3.15,-3.174 2.618,-3.36 2.086,-3.546 1.418,-3.64 0.616,-3.64 c -0.803,0 -1.47,0.094 -2.002,0.28 -0.532,0.186 -0.962,0.471 -1.288,0.854 -0.327,0.382 -0.56,0.859 -0.7,1.428 -0.14,0.569 -0.21,1.246 -0.21,2.03 l 0,7.729 z"
             inkscape:connector-curvature="0"
             id="path102"
             style="fill:#2b2b2a;fill-opacity:1;fill-rule:nonzero;stroke:none" /></g><g
           transform="translate(60.6743,25.8574)"
           id="g104"><path
             d="m 0,0 0.896,0 0,2.996 3.584,0 0,-2.996 1.036,0 0,-2.576 -1.036,0 0,-9.8 c 0,-0.43 0.046,-0.728 0.14,-0.895 0.093,-0.168 0.355,-0.252 0.784,-0.252 l 0.112,0 0,-2.605 -2.24,0 c -0.504,0 -0.91,0.061 -1.218,0.183 -0.308,0.121 -0.551,0.302 -0.728,0.545 -0.178,0.242 -0.294,0.541 -0.35,0.896 -0.056,0.355 -0.084,0.756 -0.084,1.204 l 0,10.724 L 0,-2.576 0,0 z"
             inkscape:connector-curvature="0"
             id="path106"
             style="fill:#2b2b2a;fill-opacity:1;fill-rule:nonzero;stroke:none" /></g><g
           transform="translate(75.1221,13.0615)"
           id="g108"><path
             d="m 0,0 c 0,-1.214 -0.359,-2.138 -1.078,-2.772 -0.718,-0.634 -1.759,-0.952 -3.122,-0.952 -1.344,0 -2.384,0.323 -3.122,0.966 -0.738,0.644 -1.106,1.544 -1.106,2.702 l 0,2.996 3.584,0 0,-3.024 c 0,-0.653 0.215,-0.979 0.644,-0.979 0.429,0 0.644,0.326 0.644,0.979 l 0,1.456 c 0,0.279 -0.051,0.531 -0.154,0.756 -0.103,0.225 -0.257,0.443 -0.462,0.658 -0.205,0.215 -0.457,0.434 -0.756,0.658 -0.299,0.224 -0.635,0.494 -1.008,0.812 -0.411,0.336 -0.77,0.643 -1.078,0.925 -0.308,0.279 -0.569,0.568 -0.784,0.867 -0.215,0.299 -0.373,0.63 -0.476,0.994 -0.102,0.363 -0.154,0.807 -0.154,1.33 l 0,1.428 c 0,1.082 0.368,1.918 1.106,2.506 0.738,0.588 1.769,0.882 3.094,0.882 1.344,0 2.385,-0.313 3.122,-0.938 C -0.369,11.624 0,10.752 0,9.632 l 0,-2.464 -3.556,0 0,2.52 c 0,0.653 -0.215,0.98 -0.644,0.98 -0.429,0 -0.644,-0.327 -0.644,-0.98 l 0,-0.869 c 0,-0.316 0.052,-0.591 0.154,-0.825 0.103,-0.233 0.252,-0.453 0.448,-0.658 0.196,-0.206 0.439,-0.415 0.728,-0.63 0.289,-0.215 0.62,-0.472 0.994,-0.769 0.467,-0.374 0.863,-0.71 1.19,-1.009 C -1.003,4.63 -0.742,4.335 -0.546,4.046 -0.35,3.757 -0.21,3.438 -0.126,3.094 -0.042,2.749 0,2.333 0,1.849 L 0,0 z"
             inkscape:connector-curvature="0"
             id="path110"
             style="fill:#2b2b2a;fill-opacity:1;fill-rule:nonzero;stroke:none" /></g><g
           transform="translate(79.686,13.2852)"
           id="g112"><path
             d="m 0,0 c 0,-0.635 0.214,-0.951 0.644,-0.951 0.261,0 0.434,0.078 0.518,0.237 0.084,0.159 0.126,0.397 0.126,0.714 l 0,8.961 C 1.288,9.277 1.246,9.516 1.162,9.674 1.078,9.832 0.905,9.912 0.644,9.912 0.214,9.912 0,9.595 0,8.961 L 0,0 z m -3.556,12.572 3.5,0 0,-1.343 0.056,0 c 0.597,1.101 1.446,1.652 2.548,1.652 1.549,0 2.324,-0.916 2.324,-2.744 l 0,-11.284 c 0,-1.83 -0.775,-2.745 -2.324,-2.745 -1.102,0 -1.932,0.513 -2.492,1.54 l -0.056,0 0,-4.843 -3.556,0 0,19.767 z"
             inkscape:connector-curvature="0"
             id="path114"
             style="fill:#2b2b2a;fill-opacity:1;fill-rule:nonzero;stroke:none" /></g><g
           transform="translate(89.1782,12.9775)"
           id="g116"><path
             d="m 0,0 c 0,-0.653 0.219,-0.979 0.658,-0.979 0.438,0 0.658,0.326 0.658,0.979 l 0,9.772 c 0,0.653 -0.229,0.98 -0.687,0.98 -0.248,0 -0.415,-0.079 -0.501,-0.237 C 0.042,10.354 0,10.108 0,9.772 L 0,0 z m -3.584,8.681 c 0,0.783 0.07,1.459 0.21,2.029 0.14,0.569 0.373,1.045 0.7,1.428 0.326,0.383 0.756,0.668 1.288,0.854 0.532,0.187 1.199,0.28 2.002,0.28 0.802,0 1.47,-0.093 2.002,-0.28 0.532,-0.186 0.961,-0.471 1.288,-0.854 0.326,-0.383 0.56,-0.859 0.7,-1.428 0.14,-0.57 0.21,-1.246 0.21,-2.029 l 0,-7.729 c 0,-0.784 -0.07,-1.461 -0.21,-2.03 C 4.466,-1.647 4.232,-2.124 3.906,-2.506 3.579,-2.889 3.15,-3.174 2.618,-3.36 2.086,-3.546 1.418,-3.64 0.616,-3.64 c -0.803,0 -1.47,0.094 -2.002,0.28 -0.532,0.186 -0.962,0.471 -1.288,0.854 -0.327,0.382 -0.56,0.859 -0.7,1.428 -0.14,0.569 -0.21,1.246 -0.21,2.03 l 0,7.729 z"
             inkscape:connector-curvature="0"
             id="path118"
             style="fill:#2b2b2a;fill-opacity:1;fill-rule:nonzero;stroke:none" /></g><g
           transform="translate(94.5537,25.8574)"
           id="g120"><path
             d="m 0,0 0.896,0 0,2.996 3.584,0 0,-2.996 1.036,0 0,-2.576 -1.036,0 0,-9.8 c 0,-0.43 0.046,-0.728 0.14,-0.895 0.093,-0.168 0.355,-0.252 0.784,-0.252 l 0.112,0 0,-2.605 -2.24,0 c -0.504,0 -0.91,0.061 -1.218,0.183 -0.308,0.121 -0.551,0.302 -0.728,0.545 -0.178,0.242 -0.294,0.541 -0.35,0.896 -0.056,0.355 -0.084,0.756 -0.084,1.204 l 0,10.724 L 0,-2.576 0,0 z"
             inkscape:connector-curvature="0"
             id="path122"
             style="fill:#2b2b2a;fill-opacity:1;fill-rule:nonzero;stroke:none" /></g></g></g><g
       id="g124"><g
         clip-path="url(#clipPath128)"
         id="g126"><g
           transform="translate(48.083,126.6841)"
           id="g132"><path
             d="M 0,0 C 0,0.295 -0.039,0.517 -0.117,0.665 -0.195,0.813 -0.355,0.886 -0.598,0.886 -0.997,0.886 -1.196,0.591 -1.196,0 l 0,-8.367 c 0,-0.609 0.199,-0.913 0.598,-0.913 0.243,0 0.403,0.078 0.481,0.235 C -0.039,-8.889 0,-8.663 0,-8.367 L 0,0 z m -4.498,7.101 3.302,0 0,-4.993 0.052,0 c 0.502,1.023 1.274,1.535 2.314,1.535 1.438,0 2.158,-0.85 2.158,-2.549 l 0,-10.555 c 0,-1.682 -0.72,-2.522 -2.158,-2.522 -1.144,0 -1.933,0.554 -2.366,1.663 l -0.052,0 0,-1.3 -3.25,0 0,18.721 z"
             inkscape:connector-curvature="0"
             id="path134"
             style="fill:#2b2b2a;fill-opacity:1;fill-rule:nonzero;stroke:none" /></g><g
           transform="translate(52.4248,130.0405)"
           id="g136"><path
             d="m 0,0 3.25,0 0,-1.248 0.052,0 c 0.554,1.022 1.343,1.534 2.366,1.534 1.438,0 2.158,-0.849 2.158,-2.548 l 0,-5.798 -3.328,0 0,4.706 c 0,0.294 -0.039,0.516 -0.117,0.663 C 4.303,-2.544 4.143,-2.47 3.9,-2.47 3.501,-2.47 3.302,-2.765 3.302,-3.354 l 0,-11.622 -3.302,0 L 0,0 z"
             inkscape:connector-curvature="0"
             id="path138"
             style="fill:#2b2b2a;fill-opacity:1;fill-rule:nonzero;stroke:none" /></g><g
           transform="translate(65.5288,122.4224)"
           id="g140"><path
             d="m 0,0 c -0.407,-0.312 -0.713,-0.559 -0.917,-0.741 -0.204,-0.182 -0.305,-0.438 -0.305,-0.767 l 0,-2.47 c 0,-0.295 0.04,-0.516 0.119,-0.663 0.08,-0.148 0.244,-0.221 0.492,-0.221 0.407,0 0.611,0.295 0.611,0.884 L 0,0 z m -4.55,4.55 c 0,1.144 0.329,2.002 0.988,2.574 0.659,0.572 1.629,0.858 2.912,0.858 0.763,0 1.395,-0.087 1.898,-0.26 C 1.75,7.549 2.149,7.284 2.444,6.929 2.739,6.574 2.947,6.127 3.068,5.59 3.189,5.053 3.25,4.429 3.25,3.718 l 0,-9.126 c 0,-0.347 0.017,-0.676 0.052,-0.988 0.034,-0.312 0.095,-0.633 0.182,-0.962 l -3.328,0 c -0.087,0.381 -0.13,0.728 -0.13,1.04 l 0,0.234 -0.052,0 c -0.488,-1.023 -1.281,-1.534 -2.38,-1.534 -1.429,0 -2.144,0.841 -2.144,2.522 l 0,3.172 c 0,0.728 0.131,1.348 0.392,1.859 0.262,0.511 0.732,0.949 1.412,1.313 0.384,0.208 0.746,0.394 1.085,0.559 0.34,0.165 0.632,0.329 0.877,0.494 0.243,0.165 0.435,0.342 0.575,0.533 C -0.07,3.024 0,3.25 0,3.51 l 0,1.066 c 0,0.607 -0.212,0.91 -0.637,0.91 -0.39,0 -0.585,-0.303 -0.585,-0.91 l 0,-2.184 -3.328,0 0,2.158 z"
             inkscape:connector-curvature="0"
             id="path142"
             style="fill:#2b2b2a;fill-opacity:1;fill-rule:nonzero;stroke:none" /></g><g
           transform="translate(77.6704,115.0645)"
           id="g144"><path
             d="m 0,0 -3.25,0 0,1.248 -0.078,0 c -0.538,-1.005 -1.318,-1.508 -2.34,-1.508 -1.439,0 -2.158,0.841 -2.158,2.522 l 0,12.714 3.302,0 0,-11.622 c 0,-0.295 0.043,-0.516 0.13,-0.663 0.086,-0.148 0.251,-0.221 0.494,-0.221 0.381,0 0.572,0.295 0.572,0.884 l 0,11.622 3.328,0 L 0,0 z"
             inkscape:connector-curvature="0"
             id="path146"
             style="fill:#2b2b2a;fill-opacity:1;fill-rule:nonzero;stroke:none" /></g><g
           transform="translate(78.71,130.0405)"
           id="g148"><path
             d="m 0,0 3.25,0 0,-1.248 0.052,0 c 0.554,1.022 1.343,1.534 2.366,1.534 1.438,0 2.158,-0.849 2.158,-2.548 l 0,-12.714 -3.328,0 0,11.622 c 0,0.294 -0.039,0.516 -0.117,0.663 C 4.303,-2.544 4.143,-2.47 3.9,-2.47 3.501,-2.47 3.302,-2.765 3.302,-3.354 l 0,-11.622 -3.302,0 L 0,0 z"
             inkscape:connector-curvature="0"
             id="path150"
             style="fill:#2b2b2a;fill-opacity:1;fill-rule:nonzero;stroke:none" /></g><g
           transform="translate(95.2979,118.1587)"
           id="g152"><path
             d="m 0,0 c 0,-1.127 -0.334,-1.985 -1.001,-2.574 -0.667,-0.589 -1.634,-0.884 -2.899,-0.884 -1.248,0 -2.215,0.299 -2.899,0.897 -0.685,0.598 -1.027,1.434 -1.027,2.509 l 0,2.782 3.328,0 0,-2.808 c 0,-0.607 0.199,-0.91 0.598,-0.91 0.399,0 0.598,0.303 0.598,0.91 l 0,1.352 c 0,0.26 -0.048,0.494 -0.143,0.702 C -3.541,2.184 -3.684,2.387 -3.874,2.587 -4.065,2.786 -4.299,2.99 -4.576,3.198 -4.854,3.406 -5.166,3.657 -5.512,3.952 -5.894,4.264 -6.227,4.55 -6.513,4.81 -6.799,5.07 -7.042,5.338 -7.241,5.616 -7.44,5.893 -7.588,6.201 -7.683,6.539 -7.778,6.877 -7.826,7.288 -7.826,7.774 l 0,1.326 c 0,1.005 0.342,1.781 1.027,2.327 0.684,0.546 1.642,0.819 2.873,0.819 1.248,0 2.214,-0.291 2.899,-0.871 C -0.343,10.794 0,9.984 0,8.944 l 0,-2.288 -3.302,0 0,2.34 c 0,0.606 -0.199,0.91 -0.598,0.91 -0.399,0 -0.598,-0.304 -0.598,-0.91 l 0,-0.806 c 0,-0.295 0.047,-0.551 0.143,-0.767 0.095,-0.217 0.234,-0.421 0.416,-0.611 0.182,-0.191 0.407,-0.386 0.676,-0.585 0.268,-0.2 0.576,-0.438 0.923,-0.715 0.433,-0.347 0.801,-0.659 1.105,-0.936 0.303,-0.278 0.546,-0.551 0.728,-0.819 0.182,-0.269 0.312,-0.564 0.39,-0.884 C -0.039,2.552 0,2.167 0,1.716 L 0,0 z"
             inkscape:connector-curvature="0"
             id="path154"
             style="fill:#2b2b2a;fill-opacity:1;fill-rule:nonzero;stroke:none" /></g><g
           transform="translate(96.1816,126.1406)"
           id="g156"><path
             d="m 0,0 c 0,0.71 0.061,1.334 0.182,1.872 0.121,0.537 0.329,0.983 0.624,1.339 0.295,0.355 0.689,0.62 1.183,0.793 0.494,0.173 1.122,0.26 1.885,0.26 1.248,0 2.214,-0.286 2.899,-0.858 C 7.458,2.834 7.8,2.045 7.8,1.04 l 0,-2.366 -3.302,0 0,2.34 c 0,0.606 -0.2,0.91 -0.598,0.91 -0.399,0 -0.598,-0.304 -0.598,-0.91 l 0,-9.074 c 0,-0.607 0.199,-0.91 0.598,-0.91 0.398,0 0.598,0.303 0.598,0.91 l 0,2.808 3.302,0 0,-2.782 C 7.8,-9.109 7.462,-9.945 6.786,-10.543 6.11,-11.141 5.148,-11.44 3.9,-11.44 c -0.763,0 -1.396,0.091 -1.898,0.273 -0.503,0.182 -0.901,0.45 -1.196,0.806 -0.295,0.355 -0.503,0.797 -0.624,1.326 C 0.061,-8.507 0,-7.887 0,-7.176 L 0,0 z"
             inkscape:connector-curvature="0"
             id="path158"
             style="fill:#2b2b2a;fill-opacity:1;fill-rule:nonzero;stroke:none" /></g><g
           transform="translate(104.9175,133.7847)"
           id="g160"><path
             d="m 0,0 3.302,0 0,-4.992 0.052,0 c 0.485,1.022 1.257,1.534 2.314,1.534 1.438,0 2.158,-0.85 2.158,-2.548 l 0,-12.714 -3.328,0 0,11.622 c 0,0.294 -0.039,0.515 -0.117,0.663 -0.078,0.147 -0.238,0.221 -0.481,0.221 -0.399,0 -0.598,-0.295 -0.598,-0.884 l 0,-11.622 L 0,-18.72 0,0 z"
             inkscape:connector-curvature="0"
             id="path162"
             style="fill:#2b2b2a;fill-opacity:1;fill-rule:nonzero;stroke:none" /></g><g
           transform="translate(113.0293,130.0405)"
           id="g164"><path
             d="m 0,0 3.354,0 0.624,-7.748 c 0.035,-0.381 0.061,-0.858 0.078,-1.43 0.017,-0.572 0.026,-1.265 0.026,-2.08 l 0.13,0 c 0.035,1.074 0.082,1.932 0.143,2.574 0.061,0.641 0.108,1.083 0.143,1.326 L 5.33,0 8.788,0 9.464,-7.748 c 0.017,-0.139 0.035,-0.499 0.052,-1.079 0.017,-0.581 0.052,-1.391 0.104,-2.431 l 0.13,0 c 0.052,1.109 0.108,1.985 0.169,2.626 0.06,0.641 0.1,1.057 0.117,1.248 L 10.712,0 l 3.198,0 -2.236,-14.976 -3.822,0 -0.624,6.864 c -0.018,0.173 -0.035,0.546 -0.052,1.118 -0.017,0.572 -0.044,1.352 -0.078,2.34 l -0.13,0 C 6.933,-5.521 6.89,-6.219 6.838,-6.747 6.786,-7.276 6.743,-7.653 6.708,-7.878 l -0.884,-7.098 -3.77,0 L 0,0 z"
             inkscape:connector-curvature="0"
             id="path166"
             style="fill:#2b2b2a;fill-opacity:1;fill-rule:nonzero;stroke:none" /></g><g
           transform="translate(130.4492,124.3203)"
           id="g168"><path
             d="m 0,0 1.196,0 0,2.834 c 0,0.606 -0.199,0.91 -0.598,0.91 C 0.199,3.744 0,3.44 0,2.834 L 0,0 z m 0,-6.24 c 0,-0.607 0.199,-0.91 0.598,-0.91 0.399,0 0.598,0.303 0.598,0.91 l 0,2.808 3.302,0 0,-2.782 C 4.498,-7.289 4.16,-8.125 3.484,-8.723 2.808,-9.321 1.846,-9.62 0.598,-9.62 c -0.763,0 -1.395,0.091 -1.898,0.273 -0.503,0.182 -0.901,0.451 -1.196,0.806 -0.295,0.355 -0.503,0.797 -0.624,1.326 -0.121,0.528 -0.182,1.148 -0.182,1.859 l 0,7.176 c 0,0.711 0.061,1.335 0.182,1.872 0.121,0.537 0.329,0.984 0.624,1.339 0.295,0.355 0.689,0.62 1.183,0.793 0.494,0.173 1.122,0.26 1.885,0.26 1.248,0 2.214,-0.286 2.899,-0.858 C 4.156,4.654 4.498,3.865 4.498,2.86 l 0,-5.096 -4.498,0 0,-4.004 z"
             inkscape:connector-curvature="0"
             id="path170"
             style="fill:#2b2b2a;fill-opacity:1;fill-rule:nonzero;stroke:none" /></g><path
           d="m 135.987,130.041 3.302,0 0,-14.976 -3.302,0 0,14.976 z m 0,3.744 3.302,0 0,-2.834 -3.302,0 0,2.834 z"
           inkscape:connector-curvature="0"
           id="path172"
           style="fill:#2b2b2a;fill-opacity:1;fill-rule:nonzero;stroke:none" /><g
           transform="translate(143.6309,120.2905)"
           id="g174"><path
             d="m 0,0 c 0,-0.295 0.039,-0.52 0.117,-0.676 0.078,-0.156 0.238,-0.234 0.481,-0.234 0.398,0 0.598,0.303 0.598,0.91 l 0,6.5 c 0,0.589 -0.2,0.884 -0.598,0.884 C 0.355,7.384 0.195,7.31 0.117,7.163 0.039,7.016 0,6.794 0,6.5 L 0,0 z m 1.145,-1.924 c -0.469,-1.11 -1.249,-1.664 -2.341,-1.664 -0.745,0 -1.283,0.203 -1.612,0.611 -0.329,0.407 -0.494,1.044 -0.494,1.911 l 0,8.762 c 0,0.762 0.182,1.343 0.546,1.742 0.364,0.398 0.893,0.598 1.586,0.598 1.023,0 1.811,-0.512 2.366,-1.534 l 0.077,0 0,1.248 3.225,0 0,-14.092 c 0,-0.711 -0.06,-1.33 -0.182,-1.859 C 4.195,-6.729 3.986,-7.171 3.691,-7.527 3.396,-7.882 2.998,-8.151 2.496,-8.333 1.993,-8.515 1.361,-8.606 0.598,-8.606 c -1.248,0 -2.21,0.299 -2.886,0.897 -0.676,0.598 -1.014,1.435 -1.014,2.509 l 0,1.144 3.302,0 0,-1.17 c 0,-0.607 0.199,-0.91 0.598,-0.91 0.398,0 0.598,0.303 0.598,0.91 l 0,3.302 -0.051,0 z"
             inkscape:connector-curvature="0"
             id="path176"
             style="fill:#2b2b2a;fill-opacity:1;fill-rule:nonzero;stroke:none" /></g><path
           d="m 149.402,118.886 3.432,0 0,-3.822 -3.432,0 0,3.822 z"
           inkscape:connector-curvature="0"
           id="path178"
           style="fill:#2b2b2a;fill-opacity:1;fill-rule:nonzero;stroke:none" /><g
           transform="translate(154.6543,127.7007)"
           id="g180"><path
             d="m 0,0 -0.807,0 0,2.34 0.807,0 0,1.43 c 0,0.745 0.221,1.317 0.662,1.716 0.442,0.398 1.054,0.598 1.833,0.598 l 1.872,0 0,-2.34 c -0.711,0 -1.065,-0.2 -1.065,-0.598 l 0,-0.806 1.065,0 0,-2.34 -1.065,0 0,-12.636 -3.302,0 L 0,0 z"
             inkscape:connector-curvature="0"
             id="path182"
             style="fill:#2b2b2a;fill-opacity:1;fill-rule:nonzero;stroke:none" /></g><g
           transform="translate(159.6201,130.0405)"
           id="g184"><path
             d="m 0,0 3.25,0 0,-1.248 0.052,0 c 0.554,1.022 1.344,1.534 2.366,1.534 1.438,0 2.158,-0.849 2.158,-2.548 l 0,-5.798 -3.328,0 0,4.706 c 0,0.294 -0.039,0.516 -0.117,0.663 C 4.303,-2.544 4.143,-2.47 3.9,-2.47 3.501,-2.47 3.302,-2.765 3.302,-3.354 l 0,-11.622 -3.302,0 L 0,0 z"
             inkscape:connector-curvature="0"
             id="path186"
             style="fill:#2b2b2a;fill-opacity:1;fill-rule:nonzero;stroke:none" /></g><g
           transform="translate(171.4756,124.3203)"
           id="g188"><path
             d="m 0,0 1.196,0 0,2.834 c 0,0.606 -0.199,0.91 -0.598,0.91 C 0.199,3.744 0,3.44 0,2.834 L 0,0 z m 0,-6.24 c 0,-0.607 0.199,-0.91 0.598,-0.91 0.399,0 0.598,0.303 0.598,0.91 l 0,2.808 3.302,0 0,-2.782 C 4.498,-7.289 4.16,-8.125 3.484,-8.723 2.808,-9.321 1.846,-9.62 0.598,-9.62 c -0.763,0 -1.396,0.091 -1.898,0.273 -0.503,0.182 -0.901,0.451 -1.196,0.806 -0.295,0.355 -0.503,0.797 -0.624,1.326 -0.121,0.528 -0.182,1.148 -0.182,1.859 l 0,7.176 c 0,0.711 0.061,1.335 0.182,1.872 0.121,0.537 0.329,0.984 0.624,1.339 0.295,0.355 0.689,0.62 1.183,0.793 0.494,0.173 1.123,0.26 1.885,0.26 1.248,0 2.214,-0.286 2.899,-0.858 C 4.155,4.654 4.498,3.865 4.498,2.86 l 0,-5.096 -4.498,0 0,-4.004 z"
             inkscape:connector-curvature="0"
             id="path190"
             style="fill:#2b2b2a;fill-opacity:1;fill-rule:nonzero;stroke:none" /></g><path
           d="m 177.014,130.041 3.302,0 0,-14.976 -3.302,0 0,14.976 z m 0,3.744 3.302,0 0,-2.834 -3.302,0 0,2.834 z"
           inkscape:connector-curvature="0"
           id="path192"
           style="fill:#2b2b2a;fill-opacity:1;fill-rule:nonzero;stroke:none" /><g
           transform="translate(181.9277,127.7007)"
           id="g194"><path
             d="m 0,0 -0.807,0 0,2.34 0.807,0 0,1.43 c 0,0.745 0.221,1.317 0.662,1.716 0.442,0.398 1.054,0.598 1.833,0.598 l 1.872,0 0,-2.34 c -0.711,0 -1.065,-0.2 -1.065,-0.598 l 0,-0.806 1.065,0 0,-2.34 -1.065,0 0,-12.636 -3.302,0 L 0,0 z"
             inkscape:connector-curvature="0"
             id="path196"
             style="fill:#2b2b2a;fill-opacity:1;fill-rule:nonzero;stroke:none" /></g><g
           transform="translate(194.7197,115.0645)"
           id="g198"><path
             d="m 0,0 -3.25,0 0,1.248 -0.078,0 c -0.537,-1.005 -1.318,-1.508 -2.34,-1.508 -1.439,0 -2.158,0.841 -2.158,2.522 l 0,12.714 3.302,0 0,-11.622 c 0,-0.295 0.043,-0.516 0.129,-0.663 0.087,-0.148 0.252,-0.221 0.495,-0.221 0.381,0 0.572,0.295 0.572,0.884 l 0,11.622 3.328,0 L 0,0 z"
             inkscape:connector-curvature="0"
             id="path200"
             style="fill:#2b2b2a;fill-opacity:1;fill-rule:nonzero;stroke:none" /></g><g
           transform="translate(195.7598,130.0405)"
           id="g202"><path
             d="m 0,0 3.25,0 0,-1.248 0.052,0 c 0.554,1.022 1.344,1.534 2.366,1.534 1.438,0 2.158,-0.849 2.158,-2.548 l 0,-12.714 -3.328,0 0,11.622 c 0,0.294 -0.039,0.516 -0.117,0.663 C 4.303,-2.544 4.143,-2.47 3.9,-2.47 3.501,-2.47 3.302,-2.765 3.302,-3.354 l 0,-11.622 -3.302,0 L 0,0 z"
             inkscape:connector-curvature="0"
             id="path204"
             style="fill:#2b2b2a;fill-opacity:1;fill-rule:nonzero;stroke:none" /></g><g
           transform="translate(204.625,133.7847)"
           id="g206"><path
             d="m 0,0 3.302,0 0,-10.27 0.052,0 1.404,6.526 3.38,0 -1.638,-6.474 1.638,-8.502 -3.484,0 -1.3,7.852 -0.052,0 0,-7.852 L 0,-18.72 0,0 z"
             inkscape:connector-curvature="0"
             id="path208"
             style="fill:#2b2b2a;fill-opacity:1;fill-rule:nonzero;stroke:none" /></g><path
           d="m 213.413,118.886 3.432,0 0,-3.822 -3.432,0 0,3.822 z"
           inkscape:connector-curvature="0"
           id="path210"
           style="fill:#2b2b2a;fill-opacity:1;fill-rule:nonzero;stroke:none" /><g
           transform="translate(218.1445,130.0405)"
           id="g212"><path
             d="m 0,0 3.25,0 0,-1.248 0.052,0 c 0.554,1.022 1.344,1.534 2.366,1.534 1.438,0 2.158,-0.849 2.158,-2.548 l 0,-12.714 -3.328,0 0,11.622 c 0,0.294 -0.039,0.516 -0.117,0.663 C 4.303,-2.544 4.143,-2.47 3.9,-2.47 3.501,-2.47 3.302,-2.765 3.302,-3.354 l 0,-11.622 -3.302,0 L 0,0 z"
             inkscape:connector-curvature="0"
             id="path214"
             style="fill:#2b2b2a;fill-opacity:1;fill-rule:nonzero;stroke:none" /></g><g
           transform="translate(230.2598,124.3203)"
           id="g216"><path
             d="m 0,0 1.196,0 0,2.834 c 0,0.606 -0.199,0.91 -0.598,0.91 C 0.199,3.744 0,3.44 0,2.834 L 0,0 z m 0,-6.24 c 0,-0.607 0.199,-0.91 0.598,-0.91 0.399,0 0.598,0.303 0.598,0.91 l 0,2.808 3.302,0 0,-2.782 C 4.498,-7.289 4.16,-8.125 3.484,-8.723 2.808,-9.321 1.846,-9.62 0.598,-9.62 c -0.763,0 -1.396,0.091 -1.898,0.273 -0.503,0.182 -0.901,0.451 -1.196,0.806 -0.295,0.355 -0.503,0.797 -0.624,1.326 -0.121,0.528 -0.182,1.148 -0.182,1.859 l 0,7.176 c 0,0.711 0.061,1.335 0.182,1.872 0.121,0.537 0.329,0.984 0.624,1.339 0.295,0.355 0.689,0.62 1.183,0.793 0.494,0.173 1.123,0.26 1.885,0.26 1.248,0 2.214,-0.286 2.899,-0.858 C 4.155,4.654 4.498,3.865 4.498,2.86 l 0,-5.096 -4.498,0 0,-4.004 z"
             inkscape:connector-curvature="0"
             id="path218"
             style="fill:#2b2b2a;fill-opacity:1;fill-rule:nonzero;stroke:none" /></g><g
           transform="translate(235.2783,130.0405)"
           id="g220"><path
             d="m 0,0 0.832,0 0,2.782 3.327,0 0,-2.782 0.963,0 0,-2.392 -0.963,0 0,-9.1 c 0,-0.399 0.044,-0.676 0.131,-0.832 0.086,-0.156 0.329,-0.234 0.728,-0.234 l 0.104,0 0,-2.418 -2.08,0 c -0.469,0 -0.846,0.056 -1.132,0.169 -0.285,0.113 -0.511,0.282 -0.676,0.507 -0.165,0.225 -0.272,0.503 -0.325,0.832 -0.052,0.329 -0.077,0.702 -0.077,1.118 l 0,9.958 L 0,-2.392 0,0 z"
             inkscape:connector-curvature="0"
             id="path222"
             style="fill:#2b2b2a;fill-opacity:1;fill-rule:nonzero;stroke:none" /></g></g></g><g
       id="g224"><g
         clip-path="url(#clipPath228)"
         id="g226"><g
           transform="translate(202.4648,71.9033)"
           id="g232"><path
             d="m 0,0 c -0.521,0.178 -1.082,0.24 -1.628,0.174 -0.265,-0.032 -0.53,-0.093 -0.757,-0.233 -0.259,-0.158 -0.451,-0.406 -0.697,-0.581 -0.211,-0.149 -0.457,-0.241 -0.702,-0.314 -0.248,-0.071 -0.5,-0.126 -0.745,-0.206 -0.328,-0.107 -0.639,-0.263 -0.97,-0.362 -0.391,-0.117 -0.801,-0.15 -1.208,-0.15 -0.058,0.002 -0.116,0 -0.172,-0.006 -0.058,-0.01 -0.113,-0.029 -0.157,-0.067 -0.033,-0.027 -0.057,-0.064 -0.073,-0.103 -0.016,-0.039 -0.024,-0.08 -0.027,-0.121 -0.004,-0.084 0.014,-0.167 0.033,-0.25 0.049,-0.199 0.106,-0.396 0.151,-0.597 0.086,-0.377 0.136,-0.763 0.259,-1.13 0.059,-0.185 0.14,-0.364 0.237,-0.532 0.522,0.074 1.05,0.102 1.578,0.082 0.118,-0.005 0.238,-0.013 0.349,-0.058 0.053,-0.024 0.106,-0.056 0.147,-0.101 0.039,-0.043 0.069,-0.097 0.079,-0.156 0.012,-0.079 -0.011,-0.161 -0.057,-0.227 -0.046,-0.066 -0.113,-0.116 -0.185,-0.149 -0.145,-0.067 -0.309,-0.076 -0.469,-0.101 -0.205,-0.03 -0.405,-0.086 -0.607,-0.136 -0.269,-0.063 -0.542,-0.11 -0.817,-0.14 -0.034,-0.114 -0.04,-0.235 -0.018,-0.352 0.046,-0.24 0.203,-0.442 0.35,-0.64 0.064,-0.089 0.13,-0.18 0.216,-0.249 0.044,-0.035 0.092,-0.064 0.145,-0.081 0.051,-0.019 0.107,-0.027 0.162,-0.017 0.062,0.007 0.118,0.036 0.172,0.069 0.054,0.031 0.104,0.068 0.159,0.097 0.102,0.053 0.215,0.079 0.329,0.08 0.113,0 0.227,-0.022 0.332,-0.064 0.212,-0.084 0.389,-0.24 0.533,-0.416 0.293,-0.358 0.459,-0.803 0.538,-1.258 0.081,-0.454 0.077,-0.918 0.057,-1.379 -0.029,-0.703 -0.096,-1.411 0.008,-2.106 0.077,-0.525 0.247,-1.033 0.44,-1.526 0.247,-0.64 0.543,-1.282 1.037,-1.756 0.514,-0.493 1.195,-0.76 1.855,-1.026 0.126,-0.051 0.256,-0.103 0.354,-0.195 0.118,-0.109 0.183,-0.259 0.234,-0.407 0.268,-0.791 0.192,-1.652 0.258,-2.485 0.06,-0.744 0.236,-1.495 0.09,-2.227 -0.038,-0.188 -0.099,-0.381 -0.233,-0.523 -0.078,-0.083 -0.179,-0.144 -0.29,-0.175 -0.112,-0.03 -0.232,-0.025 -0.349,-0.02 -0.117,0.004 -0.238,0.004 -0.348,-0.036 -0.156,-0.055 -0.281,-0.186 -0.329,-0.343 -0.028,-0.089 -0.032,-0.183 -0.012,-0.273 0.019,-0.091 0.064,-0.175 0.126,-0.245 0.391,-0.114 0.79,-0.202 1.193,-0.257 0.658,-0.095 1.326,-0.11 1.987,-0.046 0.205,0.607 0.361,1.229 0.466,1.861 0.152,0.921 0.2,1.853 0.294,2.78 0.08,0.784 0.196,1.565 0.345,2.337 2.971,0.161 5.94,0.4 8.899,0.716 0.716,0.077 1.452,0.157 2.15,-0.017 0.867,-0.216 1.586,-0.795 2.329,-1.285 0.651,-0.428 1.346,-0.802 1.917,-1.333 0.254,-0.235 0.485,-0.504 0.64,-0.813 0.18,-0.36 0.256,-0.762 0.29,-1.163 0.042,-0.485 0.026,-0.974 -0.057,-1.453 -0.009,-0.053 -0.019,-0.105 -0.038,-0.154 -0.017,-0.052 -0.043,-0.099 -0.079,-0.136 -0.056,-0.059 -0.136,-0.091 -0.215,-0.103 -0.08,-0.012 -0.161,-0.005 -0.241,0.006 -0.079,0.011 -0.159,0.025 -0.24,0.027 -0.081,0 -0.163,-0.011 -0.235,-0.048 -0.073,-0.038 -0.131,-0.103 -0.174,-0.174 -0.104,-0.173 -0.127,-0.391 -0.057,-0.582 l 2.557,0.059 0,3.954 c 0.407,-0.164 0.736,-0.514 0.873,-0.931 0.098,-0.297 0.102,-0.617 0.117,-0.93 0.019,-0.433 0.063,-0.865 0.13,-1.294 -0.176,-0.025 -0.352,-0.052 -0.528,-0.076 -0.166,-0.025 -0.336,-0.051 -0.475,-0.142 -0.102,-0.067 -0.18,-0.167 -0.221,-0.282 -0.042,-0.113 -0.047,-0.242 -0.011,-0.358 l 2.501,0 c -0.119,0.806 -0.208,1.618 -0.266,2.43 -0.062,0.856 -0.088,1.713 -0.084,2.571 -0.411,0.254 -0.784,0.569 -1.105,0.931 -0.483,0.544 -0.84,1.183 -1.221,1.802 -0.495,0.808 -1.033,1.594 -1.453,2.442 -0.332,0.667 -0.585,1.37 -0.757,2.095 -0.74,0.683 -1.614,1.219 -2.559,1.569 -1.656,0.617 -3.467,0.65 -5.233,0.641 C 9.522,-8.38 8.198,-8.397 6.979,-7.967 6.634,-7.846 6.302,-7.689 5.989,-7.502 5.453,-7.095 4.964,-6.625 4.536,-6.105 3.714,-5.107 3.128,-3.943 2.442,-2.848 2.06,-2.236 1.643,-1.644 1.163,-1.104 0.808,-0.705 0.418,-0.333 0,0.001"
             inkscape:connector-curvature="0"
             id="path234"
             style="fill:#fab427;fill-opacity:1;fill-rule:nonzero;stroke:none" /></g><g
           transform="translate(224.7109,52.7891)"
           id="g236"><path
             d="m 0,0 c 0.368,-0.434 0.775,-0.83 1.217,-1.187 0.542,-0.44 1.141,-0.818 1.803,-1.042 0.432,-0.146 0.903,-0.222 1.347,-0.116 0.405,0.096 0.776,0.349 0.997,0.702 0.227,0.362 0.293,0.821 0.176,1.232 C 5.444,-0.518 5.322,-0.6 5.188,-0.646 4.93,-0.733 4.646,-0.693 4.382,-0.763 4.183,-0.814 4.004,-0.929 3.854,-1.069 3.7,-1.216 3.575,-1.391 3.487,-1.583 3.028,-1.493 2.588,-1.313 2.197,-1.056 1.778,-0.779 1.422,-0.418 1.07,-0.059 0.613,0.407 0.159,0.876 -0.293,1.348 L 0,0"
             inkscape:connector-curvature="0"
             id="path238"
             style="fill:#fab427;fill-opacity:1;fill-rule:nonzero;stroke:none" /></g></g></g><g
       id="g240"><g
         clip-path="url(#clipPath244)"
         id="g242"><g
           transform="translate(161.3555,111.1064)"
           id="g248"><path
             d="m 0,0 c 6.463,0.002 12.927,0 19.391,0 0.001,-6.462 0,-12.926 0,-19.39 -6.464,0 -12.928,-0.002 -19.393,0 C 0,-12.926 -0.002,-6.462 0,0"
             inkscape:connector-curvature="0"
             id="path250"
             style="fill:#de216e;fill-opacity:1;fill-rule:nonzero;stroke:none" /></g><g
           transform="translate(183.5068,111.1055)"
           id="g252"><path
             d="m 0,0 c 0.926,0.003 1.853,0.001 2.778,0.001 l 0,-2.77 c 0.923,-0.006 1.848,0 2.772,-0.004 0.001,-1.842 0,-3.683 0.001,-5.525 1.844,-10e-4 3.689,0 5.536,-10e-4 -10e-4,0.92 0,1.838 -10e-4,2.756 -0.921,0.001 -1.841,0 -2.759,0 -10e-4,0.923 -10e-4,1.847 0,2.77 0.918,0.002 1.838,0 2.759,0.002 10e-4,0.925 -0.003,1.85 10e-4,2.774 0.924,-0.002 1.846,0 2.767,-0.002 0,-0.925 0,-1.847 0,-2.772 0.925,-0.002 1.85,0 2.775,0 10e-4,-0.924 0,-1.846 10e-4,-2.77 -0.926,-0.004 -1.851,0.002 -2.776,-0.002 -0.004,-0.918 0.005,-1.836 -0.007,-2.755 1.852,0 3.701,-10e-4 5.553,0 0,1.842 -0.003,3.685 0.001,5.527 0.897,-0.037 1.805,0.071 2.695,-0.056 0.137,-0.126 0.062,-0.332 0.089,-0.495 -0.011,-2.584 -0.002,-5.169 -0.006,-7.754 -0.926,-0.005 -1.852,0 -2.778,-0.002 l 0,-11.074 -5.547,0 c 0,-0.925 0,-1.849 0,-2.775 -0.921,-0.002 -1.846,-0.002 -2.767,-0.002 -10e-4,2.769 0,5.536 0,8.305 0.92,0 1.841,0 2.762,-0.001 0.008,0.925 10e-4,1.85 0.005,2.775 -0.924,-0.001 -1.846,-0.001 -2.767,0 0,0.925 -10e-4,1.85 0,2.772 -2.772,10e-4 -5.541,-0.004 -8.313,0.004 0.002,0.925 0.004,1.85 0,2.774 C 1.849,-8.298 0.925,-8.303 0,-8.296 L 0,0 z"
             inkscape:connector-curvature="0"
             id="path254"
             style="fill:#de216e;fill-opacity:1;fill-rule:nonzero;stroke:none" /></g><g
           transform="translate(205.6953,108.3789)"
           id="g256"><path
             d="m 0,0 c -0.015,0.904 -0.035,1.817 0.015,2.721 0.909,0.022 1.82,0 2.73,0.007 0,-0.925 0.002,-1.85 0,-2.774 C 1.832,-0.016 0.905,-0.11 0,0"
             inkscape:connector-curvature="0"
             id="path258"
             style="fill:#de216e;fill-opacity:1;fill-rule:nonzero;stroke:none" /></g><g
           transform="translate(219.5107,111.1055)"
           id="g260"><path
             d="m 0,0 c 1.852,0.003 3.702,0.003 5.555,0 -0.003,-0.924 -10e-4,-1.848 0,-2.771 0.922,0 1.846,-0.002 2.771,0 l 0,2.772 c 2.769,0.002 5.536,0.002 8.305,0 0,-0.922 0.002,-1.845 0,-2.77 0.923,-0.006 1.847,0 2.77,-0.004 0.001,0.925 0,1.849 0.001,2.774 0.925,0 1.85,0.002 2.779,-0.001 l 0,-2.773 c -0.926,-0.002 -1.853,-10e-4 -2.779,0 0,-0.923 0.002,-1.847 0,-2.77 -0.924,0 -1.848,0.004 -2.772,-0.002 0.003,-0.917 0,-1.834 0.001,-2.753 0.923,-0.002 1.847,0.004 2.77,-0.004 0.005,-0.924 0.001,-1.85 0.003,-2.776 -1.841,-0.01 -3.682,0.018 -5.524,-0.012 -0.064,-0.917 -0.011,-1.837 -0.025,-2.756 2.776,-0.008 5.551,0 8.326,-0.004 0,-2.767 -0.002,-5.533 0,-8.301 l 8.299,0 c 0.004,-2.774 -0.003,-5.548 0.004,-8.322 0.921,-0.006 1.843,-0.003 2.767,-0.004 0.004,0.928 0,1.853 0.001,2.778 0.925,0.003 1.851,-0.004 2.773,0.004 0.01,1.847 -10e-4,3.696 0.008,5.543 2.766,0.004 5.531,0.001 8.298,0.001 10e-4,-0.926 0,-1.85 0,-2.778 l -5.542,0 c 0,-1.849 -0.001,-3.698 0.002,-5.548 0.919,0.001 1.84,0 2.763,0.001 0.007,0.927 10e-4,1.852 0.003,2.777 l 2.774,0 c 10e-4,-2.769 10e-4,-5.536 0,-8.305 -1.846,10e-4 -3.69,-0.001 -5.536,10e-4 -0.012,-0.924 -0.004,-1.851 -0.006,-2.774 1.848,0 3.692,-0.004 5.542,0 0.004,-2.768 0,-5.537 0,-8.308 -1.847,-10e-4 -3.694,0 -5.542,-10e-4 -0.013,-0.877 0.023,-1.756 -0.013,-2.634 -0.014,-0.033 -0.043,-0.099 -0.058,-0.133 -1.821,-0.01 -3.644,0 -5.466,-0.005 0.034,0.896 -0.072,1.802 0.055,2.686 0.159,0.119 0.367,0.083 0.556,0.093 0.721,-0.006 1.445,-0.007 2.166,-0.002 0,0.917 -0.001,1.836 0.002,2.754 0.918,0 1.835,10e-4 2.752,0 0.008,1.849 10e-4,3.698 0.004,5.549 -0.918,-0.003 -1.838,0 -2.756,0 -0.018,-0.92 0.038,-1.841 -0.027,-2.76 -0.917,-0.033 -1.835,-0.001 -2.752,-0.013 0,1.848 -0.001,3.695 0,5.544 -0.924,0.007 -1.847,0 -2.769,0.004 -0.003,-1.56 -0.003,-3.12 0,-4.683 -0.006,-0.255 0.029,-0.521 -0.046,-0.773 -0.115,-0.123 -0.288,-0.09 -0.435,-0.096 -0.767,0.01 -1.532,-0.002 -2.299,0.01 0.001,1.847 0.001,3.695 0,5.542 -0.919,-0.002 -1.838,-10e-4 -2.759,-10e-4 -0.006,-1.85 -0.002,-3.698 -0.003,-5.545 -2.769,-0.004 -5.54,-0.002 -8.31,-0.002 -0.001,-0.927 0.002,-1.851 -0.002,-2.777 -0.817,-0.003 -1.636,0.002 -2.452,-0.01 -0.133,-0.026 -0.311,0.019 -0.328,0.174 0.002,0.87 0.005,1.742 0.003,2.613 -0.919,0 -1.839,0 -2.76,0.002 0.002,0.924 -0.004,1.849 0.004,2.774 0.919,-0.006 1.838,-0.002 2.758,-0.002 0,-0.925 0,-1.846 0,-2.77 0.925,-0.004 1.85,-0.002 2.776,-0.002 -10e-4,0.924 -10e-4,1.847 0,2.772 0.924,0.002 1.848,-0.004 2.772,0.004 -0.004,0.923 0.004,1.847 -0.004,2.77 -2.768,-0.002 -5.537,0 -8.304,-10e-4 -0.002,0.712 0,1.423 -0.006,2.134 0.008,0.186 -0.017,0.383 0.072,0.553 0.163,0.109 0.363,0.078 0.548,0.084 0.716,-0.005 1.43,-0.003 2.144,-0.002 l 0,2.757 -2.757,0 c 0.01,-0.881 -0.03,-1.765 0.031,-2.646 -0.024,-0.019 -0.071,-0.057 -0.094,-0.077 -0.377,-0.049 -0.756,-0.038 -1.134,-0.038 -2.374,0.005 -4.748,-0.004 -7.12,0.005 0.002,1.844 0,3.689 0,5.532 -3.692,0.003 -7.384,-0.002 -11.078,0.003 l 0,2.77 -2.768,0 c -0.002,-0.922 -0.002,-1.845 0,-2.77 l 2.77,0 c -0.002,-0.927 0.006,-1.853 -0.005,-2.779 -1.789,0.023 -3.583,-0.046 -5.369,0.037 -0.064,-0.062 -0.127,-0.124 -0.191,-0.184 0.077,-0.867 0.023,-1.739 0.038,-2.609 -0.926,-0.009 -1.852,-10e-4 -2.778,-0.004 l 0,-2.765 c 0.915,0.003 1.831,-0.002 2.747,0.004 0.037,-0.439 0.038,-0.88 0.033,-1.32 -0.928,-0.007 -1.855,-0.002 -2.781,-0.003 -0.002,0.441 0,0.878 -0.002,1.318 -1.847,-0.001 -3.695,10e-4 -5.543,-0.001 -10e-4,-0.439 -10e-4,-0.878 -10e-4,-1.317 l -2.767,0 c 0.003,-0.782 -0.002,-1.562 0,-2.344 0.011,-0.157 -0.004,-0.313 0.016,-0.47 -0.034,-2.316 -0.005,-4.633 -0.016,-6.949 -0.921,-10e-4 -1.84,-10e-4 -2.761,0 0,1.844 0.001,3.689 0,5.532 -1.85,0.004 -3.699,0.002 -5.55,0.002 0.006,-0.925 -0.003,-1.849 0.007,-2.775 0.923,-0.005 1.846,10e-4 2.767,-10e-4 0.001,-0.918 0,-1.837 0.004,-2.755 -0.925,-0.007 -1.851,-10e-4 -2.776,-0.004 l 0,-2.767 2.772,0 c -0.002,0.924 0,1.846 -0.002,2.77 0.926,-0.002 1.853,0.002 2.78,-0.003 l 0,-2.767 c 0.92,0 1.84,0 2.759,-0.002 0,-2.765 0.001,-5.533 0,-8.3 -0.921,0.028 -1.842,-0.069 -2.761,0.003 0,1.839 0.002,3.679 -0.002,5.519 -1.848,0.008 -3.697,0.002 -5.546,0.002 l 0,-2.766 c -1.805,-0.024 -3.617,0.036 -5.423,-0.034 -0.018,0.026 -0.058,0.075 -0.078,0.1 -0.073,0.852 -0.042,1.71 -0.026,2.564 0.017,0.034 0.05,0.103 0.066,0.136 0.892,0.019 1.79,-0.005 2.683,0.003 l 0,2.77 c -0.893,0.01 -1.79,-0.01 -2.683,0.005 -0.126,0.195 -0.064,0.439 -0.083,0.655 0.022,0.682 -0.038,1.366 0.043,2.044 0.02,0.027 0.057,0.077 0.077,0.101 0.88,-0.059 1.764,-0.018 2.646,-0.03 l 0,2.752 c -0.893,0.032 -1.802,-0.057 -2.685,0.042 -0.104,0.904 0.022,1.828 -0.068,2.738 -0.925,0.002 -1.848,0 -2.771,0 0.004,-0.925 -0.007,-1.849 0.005,-2.774 0.891,-0.019 1.789,0.024 2.677,-0.017 0.069,-0.882 0.063,-1.792 0.004,-2.676 -0.164,-0.102 -0.364,-0.059 -0.546,-0.071 -2.561,0.008 -5.124,0.003 -7.686,0.002 -0.008,0.921 -0.001,1.84 -0.002,2.76 0.922,0.038 1.844,-0.032 2.767,0.01 0.008,0.922 10e-4,1.844 0.004,2.766 -1.849,0.006 -3.701,-0.01 -5.551,0.008 0.002,0.92 0,1.839 0,2.757 1.851,0.018 3.702,0.004 5.552,0.009 0.001,-0.925 0.001,-1.848 0,-2.772 0.925,0 1.851,-0.002 2.774,0 -10e-4,0.924 -10e-4,1.847 0,2.772 1.843,0 3.684,0 5.526,-10e-4 -0.001,0.924 0.003,1.851 -0.001,2.775 -2.767,-0.004 -5.534,0 -8.3,-10e-4 0.031,0.894 -0.067,1.8 0.047,2.684 0.125,0.096 0.285,0.085 0.433,0.087 1.684,-0.006 3.373,-0.002 5.058,-0.002 0.002,0.918 0.002,1.838 0,2.757 l -5.537,0 c -0.005,-0.894 0.008,-1.79 0.003,-2.684 -0.034,-0.014 -0.103,-0.046 -0.137,-0.063 -0.829,-0.029 -1.662,-0.011 -2.491,-0.008 -0.039,0.017 -0.116,0.053 -0.153,0.069 0,0.894 0.008,1.791 0.006,2.686 l -5.537,0 c 0.002,-1.84 0,-3.683 0.002,-5.525 0.919,0.003 1.838,-0.002 2.756,0.004 0.005,-0.926 -0.007,-1.853 0.008,-2.779 -1.845,-0.003 -3.69,0 -5.536,-0.003 0,0.927 0.001,1.851 0,2.776 -0.925,0.002 -1.848,0.001 -2.772,0.001 -0.002,0.922 0,1.844 -0.002,2.766 0.925,0.004 1.849,0 2.774,0.003 0.001,0.921 0,1.84 0.001,2.758 0.924,0.001 1.845,0.001 2.768,0 0.004,2.775 -0.003,5.552 0.003,8.326 2.767,0.003 5.532,-0.001 8.298,0.003 0.018,-0.926 0.005,-1.853 0.01,-2.781 -1.85,-0.002 -3.701,0.005 -5.549,-0.002 0.01,-0.919 -0.032,-1.837 0.021,-2.753 0.917,-0.039 1.836,-0.004 2.756,-0.015 0.001,-0.925 -0.004,-1.853 0.003,-2.778 0.922,0.001 1.843,0.001 2.763,0 0.008,0.925 10e-4,1.853 0.004,2.778 l 5.54,0 c 0,0.926 -0.005,1.849 0.004,2.774 0.918,-0.004 1.838,0 2.757,-0.002 l 0,11.077 c 0.926,0.002 1.853,0.002 2.778,0.002 l 0,-11.081 c -0.925,-0.001 -1.85,0.005 -2.776,-0.002 0.001,-0.921 0.001,-1.842 0,-2.761 0.926,-0.015 1.851,-0.003 2.776,-0.007 10e-4,-0.925 -0.003,-1.849 0.004,-2.774 0.922,-0.006 1.845,-0.003 2.768,-0.004 0,-0.92 0.001,-1.841 0,-2.761 -1.851,-0.002 -3.699,0.009 -5.55,-0.005 0.003,-0.918 0.003,-1.835 0,-2.754 0.926,-0.011 1.851,-0.002 2.776,-0.006 0.003,-0.924 0,-1.851 0.003,-2.774 1.85,0.002 3.698,-0.004 5.547,0 0.001,0.927 -0.003,1.851 0.002,2.774 0.919,0 1.837,0.003 2.757,-10e-4 0.002,0.922 0.001,1.844 0.001,2.765 -0.921,0.003 -1.841,0 -2.76,10e-4 0.001,0.921 0,1.841 0.001,2.761 0.918,0.001 1.837,0 2.756,0.001 0.005,0.927 0.002,1.852 0.004,2.777 l 2.767,0 c 0,-0.925 0,-1.85 10e-4,-2.777 0.924,-0.001 1.849,0 2.774,0 0.002,-0.921 -0.003,-1.841 0.002,-2.76 0.923,10e-4 1.846,10e-4 2.769,0 0,0.919 -0.002,1.839 0,2.76 0.821,0.003 1.64,-0.003 2.461,-0.002 0.128,-0.023 0.243,0.046 0.352,0.103 -0.076,0.888 -0.039,1.782 -0.061,2.673 -0.919,0.003 -1.837,-0.005 -2.754,0.007 0.003,0.922 0.002,1.843 0,2.765 0.924,0.008 1.85,0.001 2.776,0.005 0.021,2.766 -0.02,5.534 0.007,8.301 l 2.753,0 c 0.002,-1.842 0,-3.685 0.002,-5.527 l 2.768,0 c 0.001,2.768 0,5.534 0,8.301 -0.924,-0.001 -1.846,-0.001 -2.77,0 l 0,2.773 c 0.922,10e-4 1.846,0 2.771,0 -0.002,0.924 10e-4,1.847 -0.002,2.77 -0.924,0.015 -1.847,0.004 -2.769,0.008 0,0.92 -0.002,1.839 0,2.758 0.924,0 1.848,0.002 2.772,-10e-4 -0.002,-0.918 0.006,-1.837 -0.005,-2.757 1.85,0.003 3.698,0 5.548,10e-4 0,1.842 -10e-4,3.685 0,5.527 L 0,-2.771 0,0 z"
             inkscape:connector-curvature="0"
             id="path262"
             style="fill:#de216e;fill-opacity:1;fill-rule:nonzero;stroke:none" /></g><g
           transform="translate(244.4512,91.7168)"
           id="g264"><path
             d="m 0,0 c 0.001,6.464 -0.003,12.927 0.001,19.392 6.464,-0.002 12.928,0 19.39,-0.002 0.001,-6.463 0.001,-12.926 0,-19.39 L 0,0 z"
             inkscape:connector-curvature="0"
             id="path266"
             style="fill:#de216e;fill-opacity:1;fill-rule:nonzero;stroke:none" /></g><g
           transform="translate(164.1299,108.3311)"
           id="g268"><path
             d="m 0,0 c 4.616,0 9.231,0.003 13.849,-0.001 0.005,-4.614 10e-4,-9.231 10e-4,-13.848 -4.615,-0.002 -9.232,0 -13.847,0 C -0.002,-9.233 0.002,-4.615 0,0"
             inkscape:connector-curvature="0"
             id="path270"
             style="fill:#fffefe;fill-opacity:1;fill-rule:nonzero;stroke:none" /></g><g
           transform="translate(247.2168,108.3286)"
           id="g272"><path
             d="m 0,0 c 4.616,0.006 9.233,0.001 13.85,0.002 0,-4.615 0.003,-9.231 -10e-4,-13.847 C 9.233,-13.851 4.616,-13.847 0,-13.847 -0.002,-9.231 0,-4.614 0,0"
             inkscape:connector-curvature="0"
             id="path274"
             style="fill:#fffefe;fill-opacity:1;fill-rule:nonzero;stroke:none" /></g><g
           transform="translate(166.8975,105.564)"
           id="g276"><path
             d="m 0,0 c 2.77,0.003 5.538,-0.001 8.305,0.003 0.009,-2.771 0.002,-5.54 0.005,-8.311 -2.771,-10e-4 -5.539,0 -8.31,0 L 0,0 z"
             inkscape:connector-curvature="0"
             id="path278"
             style="fill:#de216e;fill-opacity:1;fill-rule:nonzero;stroke:none" /></g><g
           transform="translate(222.291,102.8052)"
           id="g280"><path
             d="m 0,0 c 0.002,0.921 -0.001,1.839 0.002,2.757 1.848,0 3.694,0.003 5.544,0 0,-0.919 0,-1.838 10e-4,-2.756 C 6.468,0 7.39,0 8.312,0 l 0,-8.323 c -0.919,0 -1.839,0.001 -2.76,-0.002 C 5.542,-6.478 5.55,-4.628 5.55,-2.78 4.624,-2.77 3.697,-2.778 2.773,-2.775 2.771,-1.851 2.775,-0.926 2.77,-0.001 1.847,0.005 0.925,0 0.003,0.002 -0.006,-0.923 0,-1.849 -0.002,-2.775 c -0.916,-10e-4 -1.832,0 -2.746,-10e-4 -0.011,0.77 -0.042,1.541 -0.034,2.311 0.023,0.15 -0.048,0.347 0.094,0.452 C -1.793,0.022 -0.895,-0.01 0,0"
             inkscape:connector-curvature="0"
             id="path282"
             style="fill:#fffefe;fill-opacity:1;fill-rule:nonzero;stroke:none" /></g><g
           transform="translate(230.6055,105.5625)"
           id="g284"><path
             d="m 0,0 c 0.918,0.001 1.839,0.001 2.757,0 l 0,-2.755 c -0.919,-10e-4 -1.839,0 -2.758,-10e-4 C 0,-1.836 -0.001,-0.918 0,0"
             inkscape:connector-curvature="0"
             id="path286"
             style="fill:#fffefe;fill-opacity:1;fill-rule:nonzero;stroke:none" /></g><g
           transform="translate(249.9902,105.564)"
           id="g288"><path
             d="M 0,0 C 2.77,0.002 5.539,0.001 8.309,0 8.312,-2.768 8.307,-5.537 8.312,-8.304 5.541,-8.314 2.771,-8.307 0.001,-8.308 0,-5.539 0.001,-2.769 0,0"
             inkscape:connector-curvature="0"
             id="path290"
             style="fill:#de216e;fill-opacity:1;fill-rule:nonzero;stroke:none" /></g><g
           transform="translate(194.5947,102.8052)"
           id="g292"><path
             d="m 0,0 c 0.919,-0.023 1.84,0.045 2.754,-0.033 0.029,-0.912 0,-1.829 0.012,-2.743 -0.924,10e-4 -1.843,0 -2.767,0 0,0.927 0,1.853 0.001,2.776"
             inkscape:connector-curvature="0"
             id="path294"
             style="fill:#fffefe;fill-opacity:1;fill-rule:nonzero;stroke:none" /></g><g
           transform="translate(197.3604,100.0249)"
           id="g296"><path
             d="m 0,0 c 0.925,0.002 1.85,0.006 2.775,0 -0.004,-0.923 0,-1.846 -0.003,-2.768 -0.922,0 -1.847,-0.001 -2.772,0 L 0,0 z"
             inkscape:connector-curvature="0"
             id="path298"
             style="fill:#fffefe;fill-opacity:1;fill-rule:nonzero;stroke:none" /></g><g
           transform="translate(211.2119,100.0273)"
           id="g300"><path
             d="M 0,0 C 0.924,-0.002 1.85,0.005 2.772,-0.004 2.771,-0.926 2.774,-1.848 2.771,-2.771 1.847,-2.77 0.924,-2.771 0,-2.77 0.001,-1.847 0.001,-0.922 0,0"
             inkscape:connector-curvature="0"
             id="path302"
             style="fill:#fffefe;fill-opacity:1;fill-rule:nonzero;stroke:none" /></g><g
           transform="translate(219.5293,97.2549)"
           id="g304"><path
             d="M 0,0 C 1.844,0.002 3.686,-0.001 5.529,0.002 5.527,-0.914 5.549,-1.829 5.521,-2.744 4.604,-2.815 3.681,-2.752 2.761,-2.773 2.76,-3.695 2.764,-4.615 2.76,-5.535 c 0.923,-0.009 1.848,-0.002 2.773,-0.006 0,0.924 0.008,1.846 -0.006,2.768 0.927,-0.005 1.856,0 2.782,-0.004 -10e-4,-0.919 -10e-4,-1.84 -10e-4,-2.761 l 2.765,0 0,-2.764 c 0.92,0 1.838,-0.001 2.758,0.002 0.005,-0.926 0.001,-1.851 0.002,-2.777 -0.919,0 -1.839,0.003 -2.76,-10e-4 l 0,-2.77 c -1.844,-0.002 -3.69,0.002 -5.537,-0.002 -0.005,0.925 0,1.849 -10e-4,2.772 0.923,10e-4 1.849,0 2.774,10e-4 0,0.926 0.001,1.851 -10e-4,2.777 l -2.773,0 c -0.004,-0.926 -0.002,-1.851 -0.002,-2.777 -3.693,0.004 -7.386,-0.003 -11.078,0.004 0.004,2.766 0,5.531 0.002,8.299 0.923,0 1.847,0 2.77,-0.003 -10e-4,-0.919 -10e-4,-1.84 0,-2.761 0.735,-0.003 1.471,0.001 2.206,-0.006 0.18,0.012 0.381,-0.029 0.54,0.087 C 0.011,-3.641 -0.048,-1.819 0,0"
             inkscape:connector-curvature="0"
             id="path306"
             style="fill:#fffefe;fill-opacity:1;fill-rule:nonzero;stroke:none" /></g><g
           transform="translate(189.0566,94.4819)"
           id="g308"><path
             d="M 0,0 C 0.926,-0.004 1.853,0.005 2.778,-0.005 2.778,-0.923 2.777,-1.842 2.78,-2.76 1.853,-2.771 0.926,-2.764 0,-2.765 0,-1.844 -0.002,-0.922 0,0"
             inkscape:connector-curvature="0"
             id="path310"
             style="fill:#de216e;fill-opacity:1;fill-rule:nonzero;stroke:none" /></g><g
           transform="translate(197.3604,94.478)"
           id="g312"><path
             d="m 0,0 c 0.925,0.004 1.85,0 2.773,0.002 0,-0.92 -0.001,-1.841 0,-2.76 C 1.85,-2.761 0.925,-2.764 0,-2.757 0,-1.838 0.001,-0.919 0,0"
             inkscape:connector-curvature="0"
             id="path314"
             style="fill:#fffefe;fill-opacity:1;fill-rule:nonzero;stroke:none" /></g><g
           transform="translate(230.6045,94.4805)"
           id="g316"><path
             d="m 0,0 c 0.919,-0.002 1.839,0 2.758,0 0,-0.922 -10e-4,-1.843 0,-2.764 -0.918,0.002 -1.839,0 -2.758,0 0,0.921 0.001,1.842 0,2.764"
             inkscape:connector-curvature="0"
             id="path318"
             style="fill:#fffefe;fill-opacity:1;fill-rule:nonzero;stroke:none" /></g><g
           transform="translate(236.1416,94.4805)"
           id="g320"><path
             d="m 0,0 c 0.923,0 1.847,0 2.771,-0.002 0,-2.766 0,-5.532 0,-8.3 -0.924,0.002 -1.848,0.002 -2.771,0 -0.001,0.926 0.002,1.85 -0.001,2.776 -0.926,0.004 -1.853,-0.008 -2.778,0.008 0.003,0.918 0.002,1.836 0.003,2.754 0.925,0 1.85,-0.002 2.776,0 L 0,0 z"
             inkscape:connector-curvature="0"
             id="path322"
             style="fill:#fffefe;fill-opacity:1;fill-rule:nonzero;stroke:none" /></g><g
           transform="translate(219.5498,91.6401)"
           id="g324"><path
             d="M 0,0 C 0.157,0.111 0.358,0.07 0.543,0.082 1.275,0.074 2.009,0.078 2.743,0.078 2.74,-0.844 2.743,-1.765 2.741,-2.687 1.814,-2.683 0.887,-2.693 -0.039,-2.681 -0.011,-1.789 -0.094,-0.886 0,0"
             inkscape:connector-curvature="0"
             id="path326"
             style="fill:#de216e;fill-opacity:1;fill-rule:nonzero;stroke:none" /></g><g
           transform="translate(177.9844,88.9546)"
           id="g328"><path
             d="m 0,0 2.76,0 c 0.006,-0.926 0.002,-1.851 0.002,-2.778 -0.921,0.002 -1.845,0 -2.766,0.002 C -0.002,-1.851 -0.009,-0.926 0,0"
             inkscape:connector-curvature="0"
             id="path330"
             style="fill:#de216e;fill-opacity:1;fill-rule:nonzero;stroke:none" /></g><g
           transform="translate(189.0566,88.9546)"
           id="g332"><path
             d="m 0,0 c 0.922,0.002 1.844,-0.001 2.765,0.002 0.027,-0.925 0.007,-1.853 0.013,-2.78 0.919,0.004 1.838,0 2.758,0.004 C 5.541,-3.699 5.535,-4.622 5.54,-5.545 4.619,-5.553 3.698,-5.548 2.777,-5.549 2.776,-4.627 2.774,-3.707 2.778,-2.784 1.852,-2.769 0.926,-2.78 0,-2.778 0,-1.851 -0.003,-0.926 0,0"
             inkscape:connector-curvature="0"
             id="path334"
             style="fill:#de216e;fill-opacity:1;fill-rule:nonzero;stroke:none" /></g><g
           transform="translate(233.3643,86.1743)"
           id="g336"><path
             d="M 0,0 C 0.926,0.006 1.851,0.001 2.776,0.002 2.775,-0.92 2.777,-1.844 2.773,-2.768 1.851,-2.765 0.927,-2.771 0.004,-2.765 -0.004,-1.843 0.001,-0.921 0,0"
             inkscape:connector-curvature="0"
             id="path338"
             style="fill:#fffefe;fill-opacity:1;fill-rule:nonzero;stroke:none" /></g><g
           transform="translate(238.9131,86.1768)"
           id="g340"><path
             d="m 0,0 8.301,0 c 10e-4,-0.922 10e-4,-1.847 10e-4,-2.77 l -2.764,0 c -0.002,-1.846 10e-4,-3.691 -0.002,-5.537 -0.919,-10e-4 -1.84,0 -2.76,-10e-4 -0.002,-0.921 -0.002,-1.84 0,-2.762 C 1.85,-11.078 0.925,-11.071 0,-11.074 c 0.004,1.842 0,3.684 0.002,5.525 0.894,0.011 1.79,-0.019 2.685,0.011 0.019,0.022 0.059,0.064 0.079,0.085 0.033,0.892 10e-4,1.787 0.012,2.682 C 1.853,-2.766 0.925,-2.774 0,-2.766 0.002,-1.844 0,-0.922 0,0"
             inkscape:connector-curvature="0"
             id="path342"
             style="fill:#fffefe;fill-opacity:1;fill-rule:nonzero;stroke:none" /></g><g
           transform="translate(216.7559,80.6299)"
           id="g344"><path
             d="M 0,0 C 0.92,-0.001 1.838,0 2.756,-0.001 2.734,-0.919 2.808,-1.839 2.751,-2.757 3.68,-2.764 4.608,-2.758 5.537,-2.761 5.534,-3.683 5.537,-4.606 5.534,-5.53 3.691,-5.528 1.847,-5.526 0.003,-5.531 -0.004,-3.687 0,-1.843 0,0"
             inkscape:connector-curvature="0"
             id="path346"
             style="fill:#de216e;fill-opacity:1;fill-rule:nonzero;stroke:none" /></g><g
           transform="translate(252.7637,80.6274)"
           id="g348"><path
             d="m 0,0 5.534,0 c 0,-0.919 0.001,-1.836 0,-2.757 -1.845,-10e-4 -3.688,-10e-4 -5.532,0 C -0.001,-1.836 0.002,-0.919 0,0"
             inkscape:connector-curvature="0"
             id="path350"
             style="fill:#fffefe;fill-opacity:1;fill-rule:nonzero;stroke:none" /></g><g
           transform="translate(169.6543,77.8613)"
           id="g352"><path
             d="M 0,0 C 0.764,0.018 1.527,0.001 2.294,0.011 2.441,0.009 2.605,0.036 2.729,-0.073 2.851,-0.956 2.745,-1.866 2.78,-2.76 1.854,-2.759 0.93,-2.763 0.003,-2.756 -0.004,-1.838 0.003,-0.918 0,0"
             inkscape:connector-curvature="0"
             id="path354"
             style="fill:#de216e;fill-opacity:1;fill-rule:nonzero;stroke:none" /></g><g
           transform="translate(208.4404,77.8691)"
           id="g356"><path
             d="m 0,0 c 0.925,0 1.849,0.001 2.771,0 10e-4,-0.922 10e-4,-1.844 0,-2.767 0.924,0.002 1.85,0.002 2.773,0 0.002,-0.438 0.002,-0.878 0.002,-1.319 l -2.775,0 c 0,0.441 0,0.881 -0.005,1.319 C 1.843,-2.769 0.922,-2.768 0,-2.768 L 0,0 z"
             inkscape:connector-curvature="0"
             id="path358"
             style="fill:#de216e;fill-opacity:1;fill-rule:nonzero;stroke:none" /></g><g
           transform="translate(247.2168,77.8652)"
           id="g360"><path
             d="M 0,0 C 0.924,0.006 1.849,0.001 2.773,0.001 2.774,-0.92 2.773,-1.84 2.774,-2.763 1.849,-2.759 0.923,-2.768 -0.002,-2.756 0.002,-1.838 0,-0.92 0,0"
             inkscape:connector-curvature="0"
             id="path362"
             style="fill:#fffefe;fill-opacity:1;fill-rule:nonzero;stroke:none" /></g><g
           transform="translate(161.3574,72.3286)"
           id="g364"><path
             d="M 0,0 C 0.925,-0.004 1.85,0.006 2.774,-0.005 2.743,-0.895 2.831,-1.793 2.731,-2.679 2.579,-2.809 2.369,-2.766 2.186,-2.778 1.456,-2.772 0.726,-2.776 -0.004,-2.77 0,-1.846 -0.006,-0.923 0,0"
             inkscape:connector-curvature="0"
             id="path366"
             style="fill:#de216e;fill-opacity:1;fill-rule:nonzero;stroke:none" /></g><g
           transform="translate(183.5088,72.3223)"
           id="g368"><path
             d="m 0,0 c 0.924,0.01 1.849,0.001 2.774,0.005 0,-0.923 -10e-4,-1.848 0,-2.771 C 1.849,-2.762 0.924,-2.772 -0.002,-2.76 0.001,-1.839 0.001,-0.919 0,0"
             inkscape:connector-curvature="0"
             id="path370"
             style="fill:#fffefe;fill-opacity:1;fill-rule:nonzero;stroke:none" /></g><g
           transform="translate(164.1318,69.4922)"
           id="g372"><path
             d="M 0,0 C 0.168,0.096 0.366,0.058 0.55,0.068 1.289,0.063 2.027,0.064 2.766,0.064 2.766,-0.86 2.77,-1.785 2.765,-2.709 1.844,-2.723 0.922,-2.715 0.001,-2.714 0.001,-1.809 -0.016,-0.903 0,0"
             inkscape:connector-curvature="0"
             id="path374"
             style="fill:#de216e;fill-opacity:1;fill-rule:nonzero;stroke:none" /></g><g
           transform="translate(249.9922,69.4941)"
           id="g376"><path
             d="M 0,0 C 0.159,0.1 0.355,0.059 0.538,0.066 1.281,0.059 2.026,0.066 2.773,0.061 2.774,-1.762 2.766,-3.583 2.78,-5.405 2.319,-5.552 1.812,-5.442 1.33,-5.474 0.888,-5.445 0.42,-5.549 -0.005,-5.405 0.002,-3.604 -0.005,-1.8 0,0"
             inkscape:connector-curvature="0"
             id="path378"
             style="fill:#de216e;fill-opacity:1;fill-rule:nonzero;stroke:none" /></g><g
           transform="translate(230.6045,66.7822)"
           id="g380"><path
             d="M 0,0 C 0.87,0.014 1.741,-0.044 2.608,0.034 2.67,-0.029 2.731,-0.095 2.797,-0.16 2.712,-1.945 2.784,-3.737 2.76,-5.524 4.609,-5.537 6.458,-5.527 8.309,-5.529 l 0,2.767 c 0.768,0.004 1.538,-0.002 2.305,0.004 0.148,-0.002 0.319,0.028 0.436,-0.092 0.087,-0.887 0.01,-1.788 0.037,-2.679 l 2.761,0 c 10e-4,-0.926 0,-1.85 10e-4,-2.776 l 2.761,0 c 0.01,1.834 -0.02,3.67 0.017,5.502 0.553,0.105 1.143,0.011 1.709,0.044 0.33,-0.029 0.703,0.082 1.005,-0.091 0.059,-0.175 0.043,-0.364 0.051,-0.55 -0.009,-2.558 -0.002,-5.118 -0.004,-7.674 l 13.849,0 c -0.007,-0.91 0.014,-1.822 -0.005,-2.732 -1.841,-0.102 -3.692,0.023 -5.537,-0.051 0,-1.842 -0.001,-3.683 0.002,-5.525 -0.921,-0.003 -1.842,0 -2.759,0 -0.003,1.736 -0.003,3.47 0,5.207 0.02,0.158 -0.016,0.395 -0.24,0.341 -0.91,0.021 -1.82,-0.019 -2.729,-0.023 -0.86,0.033 -1.718,0.028 -2.577,0.023 -0.009,-0.926 -0.002,-1.852 -0.004,-2.778 -0.926,0 -1.852,0 -2.778,0.003 -0.003,0.925 0.006,1.851 -0.005,2.775 -1.839,0.002 -3.679,0 -5.52,0.002 -0.002,0.919 -0.002,1.84 -0.002,2.758 l 2.764,0 0,2.769 c -0.921,-0.003 -1.841,0 -2.76,-0.003 0,-0.921 -0.002,-1.843 0,-2.766 -1.851,-0.008 -3.701,0 -5.55,-0.003 l 0,-2.755 c -1.847,-0.002 -3.692,-0.002 -5.539,0 l 0,2.758 2.76,0 0,5.542 C 1.839,-5.535 0.919,-5.532 0,-5.535 -0.002,-3.688 -0.002,-1.845 0,0"
             inkscape:connector-curvature="0"
             id="path382"
             style="fill:#de216e;fill-opacity:1;fill-rule:nonzero;stroke:none" /></g><g
           transform="translate(241.6895,66.7773)"
           id="g384"><path
             d="M 0,0 C 1.842,0.001 3.684,0.003 5.527,0.001 5.524,-0.908 5.535,-1.82 5.521,-2.726 3.91,-2.802 2.28,-2.732 0.662,-2.759 0.444,-2.745 0.206,-2.808 0.011,-2.688 -0.022,-1.796 0.012,-0.896 0,0"
             inkscape:connector-curvature="0"
             id="path386"
             style="fill:#de216e;fill-opacity:1;fill-rule:nonzero;stroke:none" /></g><g
           transform="translate(161.3535,64.0195)"
           id="g388"><path
             d="M 0,0 C 0.926,0.004 1.853,0.005 2.776,-0.001 2.775,-1.847 2.776,-3.695 2.775,-5.542 1.853,-5.545 0.926,-5.545 0.002,-5.545 0,-3.695 0.003,-1.847 0,0"
             inkscape:connector-curvature="0"
             id="path390"
             style="fill:#de216e;fill-opacity:1;fill-rule:nonzero;stroke:none" /></g><g
           transform="translate(169.6553,61.2471)"
           id="g392"><path
             d="M 0,0 C 1.851,0.006 3.701,0.003 5.553,0.006 5.552,-0.92 5.552,-1.847 5.553,-2.772 3.701,-2.77 1.851,-2.772 0,-2.77 -0.001,-1.847 -0.001,-0.92 0,0"
             inkscape:connector-curvature="0"
             id="path394"
             style="fill:#de216e;fill-opacity:1;fill-rule:nonzero;stroke:none" /></g><g
           transform="translate(177.9795,61.25)"
           id="g396"><path
             d="M 0,0 C 0.896,-0.03 1.802,0.064 2.689,-0.044 2.854,-0.462 2.733,-0.938 2.767,-1.383 2.731,-1.826 2.857,-2.309 2.688,-2.729 1.804,-2.839 0.896,-2.742 0.001,-2.772 0.001,-1.85 0.001,-0.923 0,0"
             inkscape:connector-curvature="0"
             id="path398"
             style="fill:#de216e;fill-opacity:1;fill-rule:nonzero;stroke:none" /></g><g
           transform="translate(258.3848,61.209)"
           id="g400"><path
             d="m 0,0 c 1.812,0.098 3.64,0.013 5.457,0.044 l 0,-2.778 -5.543,0 c -0.002,0.731 10e-4,1.462 -0.005,2.19 C -0.083,-0.359 -0.118,-0.156 0,0"
             inkscape:connector-curvature="0"
             id="path402"
             style="fill:#de216e;fill-opacity:1;fill-rule:nonzero;stroke:none" /></g><g
           transform="translate(161.3555,55.708)"
           id="g404"><path
             d="M 0,0 5.542,0 C 5.545,-1.721 5.541,-3.442 5.546,-5.161 5.561,-5.278 5.531,-5.387 5.456,-5.481 4.577,-5.612 3.666,-5.499 2.772,-5.538 2.769,-4.609 2.785,-3.681 2.762,-2.755 1.845,-2.752 0.923,-2.809 0.006,-2.731 -0.014,-1.821 0.006,-0.91 0,0"
             inkscape:connector-curvature="0"
             id="path406"
             style="fill:#de216e;fill-opacity:1;fill-rule:nonzero;stroke:none" /></g><g
           transform="translate(175.2061,55.708)"
           id="g408"><path
             d="M 0,0 C 1.64,0.003 3.28,-0.005 4.919,0.003 5.102,-0.003 5.295,0.023 5.463,-0.064 5.568,-0.226 5.533,-0.423 5.545,-0.605 5.538,-1.326 5.544,-2.05 5.537,-2.771 3.69,-2.785 1.847,-2.747 0,-2.758 L 0,0 z"
             inkscape:connector-curvature="0"
             id="path410"
             style="fill:#de216e;fill-opacity:1;fill-rule:nonzero;stroke:none" /></g><g
           transform="translate(169.668,52.8555)"
           id="g412"><path
             d="m 0,0 c 0.021,0.019 0.064,0.062 0.085,0.082 0.893,0.039 1.786,0.003 2.679,0.013 0.007,-0.926 0.003,-1.852 0.004,-2.781 -0.929,-0.002 -1.854,0.006 -2.781,-0.002 0.002,-0.92 0.002,-1.838 0,-2.759 0.926,-0.013 1.852,-0.003 2.781,-0.008 0,-0.924 0,-1.85 -10e-4,-2.775 -0.928,0 -1.854,0 -2.78,0.002 -0.001,0.923 -0.001,1.849 -0.001,2.773 -0.92,0 -1.84,-0.005 -2.758,0.005 0.008,0.872 -0.007,1.747 0.004,2.616 0.018,0.041 0.053,0.12 0.07,0.159 0.893,-0.011 1.79,-0.008 2.685,-0.008 C -0.001,-1.79 -0.034,-0.893 0,0"
             inkscape:connector-curvature="0"
             id="path414"
             style="fill:#de216e;fill-opacity:1;fill-rule:nonzero;stroke:none" /></g><g
           transform="translate(180.7471,52.9502)"
           id="g416"><path
             d="m 0,0 c 0.92,0.003 1.838,0.003 2.756,0 0.013,-0.926 0.003,-1.852 0.007,-2.78 l -2.764,0 c 0,0.928 -0.004,1.854 0.001,2.78"
             inkscape:connector-curvature="0"
             id="path418"
             style="fill:#de216e;fill-opacity:1;fill-rule:nonzero;stroke:none" /></g><g
           transform="translate(186.2822,50.1729)"
           id="g420"><path
             d="M 0,0 C 0.007,0.929 -0.01,1.854 0.011,2.78 0.931,2.775 1.852,2.783 2.771,2.775 2.774,-0.913 2.784,-4.604 2.768,-8.292 1.889,-8.336 1.006,-8.323 0.127,-8.298 c -0.033,0.016 -0.099,0.052 -0.131,0.069 0,0.893 0.011,1.786 0.004,2.681 -1.637,-0.003 -3.272,0.005 -4.909,-0.005 -0.184,0.008 -0.376,-0.015 -0.552,0.049 -0.017,0.035 -0.049,0.109 -0.065,0.149 -0.021,0.794 -0.022,1.592 0,2.385 0.016,0.038 0.048,0.113 0.065,0.149 0.884,0.118 1.792,0.015 2.686,0.049 l 0,2.769 c 0.924,0.008 1.85,0 2.775,0.003"
             inkscape:connector-curvature="0"
             id="path422"
             style="fill:#de216e;fill-opacity:1;fill-rule:nonzero;stroke:none" /></g><g
           transform="translate(177.9805,50.1729)"
           id="g424"><path
             d="M 0,0 C 0.923,0 1.845,0.003 2.767,-0.003 2.751,-0.883 2.794,-1.765 2.75,-2.645 2.734,-2.678 2.701,-2.742 2.685,-2.775 1.791,-2.78 0.896,-2.768 0.002,-2.772 c 0,-0.924 -0.003,-1.85 0.002,-2.773 C 0.896,-5.556 1.792,-5.53 2.685,-5.551 2.818,-5.743 2.751,-5.989 2.771,-6.21 2.747,-6.89 2.809,-7.574 2.726,-8.254 2.705,-8.277 2.665,-8.323 2.645,-8.347 c -1.529,0.068 -3.06,0.019 -4.59,0.029 -0.259,0.023 -0.549,-0.056 -0.783,0.085 -0.064,0.181 -0.044,0.374 -0.052,0.559 0.009,1.634 0.003,3.268 0.006,4.902 0.925,10e-4 1.851,-0.003 2.774,0.004 -0.001,0.924 -0.001,1.844 0,2.768"
             inkscape:connector-curvature="0"
             id="path426"
             style="fill:#de216e;fill-opacity:1;fill-rule:nonzero;stroke:none" /></g><g
           transform="translate(191.834,50.1729)"
           id="g428"><path
             d="m 0,0 c 0.92,0 1.841,0.003 2.76,-0.003 0,-1.359 0,-2.721 0.001,-4.083 3.188,0.008 6.378,-0.016 9.567,0.013 0.5,-0.016 1.001,-0.029 1.502,0.005 0.053,-1.431 0.009,-2.865 0.022,-4.299 -0.015,-0.852 0.039,-1.705 -0.039,-2.557 0.065,-0.061 0.127,-0.121 0.192,-0.184 1.786,0.082 3.58,0.012 5.369,0.035 0,-0.906 0.019,-1.813 0,-2.719 -0.165,-0.092 -0.358,-0.054 -0.54,-0.063 -0.742,0.009 -1.484,0.001 -2.226,0.001 0,-1.846 -0.002,-3.695 0.001,-5.544 0.922,0 1.84,0.002 2.763,-0.003 0.01,1.523 0.004,3.045 0.004,4.568 0.005,0.295 -0.03,0.595 0.042,0.883 0.114,0.12 0.284,0.099 0.438,0.104 0.766,-0.008 1.532,0 2.296,-0.008 -0.002,-0.92 0,-1.843 0,-2.769 l 2.769,0 0,2.769 -2.771,0 0,5.539 c -0.925,0.002 -1.85,-0.003 -2.774,0.002 10e-4,1.409 0.002,2.816 0,4.224 0.924,0.008 1.849,0 2.774,0.006 0.002,-0.487 0.002,-0.975 0.002,-1.462 0.923,-0.003 1.844,0 2.766,-0.003 0.004,0.487 0.004,0.972 0.003,1.459 2.768,0.006 5.539,0 8.309,0.003 0,-0.487 0,-0.975 -0.002,-1.462 l -2.771,0 c -0.037,-0.895 0.076,-1.804 -0.057,-2.685 -0.162,-0.111 -0.367,-0.075 -0.55,-0.085 -0.726,0.003 -1.45,0.007 -2.173,0 0.005,-2.768 0.007,-5.536 0.007,-8.3 0.924,-0.008 1.85,-0.003 2.773,-0.005 0.002,-0.926 -0.002,-1.85 0.003,-2.775 l 5.551,0 c -0.015,-0.921 -0.002,-1.842 -0.007,-2.763 -1.85,-0.002 -3.697,0 -5.547,-0.002 -0.002,0.923 -0.001,1.841 -0.001,2.762 l -11.078,0 c 0.001,-0.921 0.001,-1.839 0,-2.762 l -2.77,0 c -0.002,-0.921 0,-1.842 -0.002,-2.763 l -11.079,0 c -0.001,-0.926 -0.001,-1.849 -0.001,-2.772 4.619,-0.003 9.236,0 13.852,-0.003 0.001,-0.924 0.001,-1.847 0,-2.773 0.924,0 1.85,0 2.772,0.002 0,1.85 -0.002,3.7 0.002,5.546 0.923,0.002 1.847,0 2.769,0 0,0.923 0,1.844 0.001,2.765 0.92,0 1.838,-0.002 2.756,0 0.013,-0.921 -0.027,-1.844 0.031,-2.765 1.839,0.002 3.678,0 5.519,0 0.003,-0.926 10e-4,-1.849 0.002,-2.775 -1.851,-0.005 -3.7,0.005 -5.549,-0.005 10e-4,-0.924 -0.018,-1.845 0.029,-2.768 0.916,0.002 1.832,0 2.747,0 -0.001,-0.925 0.003,-1.852 -0.002,-2.778 -1.843,-0.002 -3.688,-0.002 -5.531,0 0,-2.768 0.001,-5.535 -0.002,-8.303 -0.925,0.003 -1.847,0 -2.772,0.003 l 0,2.773 c -0.923,0.003 -1.848,0.003 -2.771,0 -0.001,-0.923 0,-1.85 0,-2.773 -0.924,-0.003 -1.848,0 -2.773,-0.003 -0.002,0.926 0,1.853 -0.002,2.776 -0.919,0.003 -1.837,-0.002 -2.757,0.003 -0.049,0.921 0.032,1.843 0.004,2.762 -1.851,0.007 -3.702,0 -5.552,0.007 0.003,0.916 0,1.837 0.001,2.755 0.924,0.005 1.846,-0.002 2.769,0.005 0.005,0.924 0.004,1.848 10e-4,2.773 l -5.544,0 c -0.004,-0.928 0.006,-1.854 -0.005,-2.78 -0.891,0.027 -1.792,-0.049 -2.677,0.038 -0.068,0.095 -0.096,0.2 -0.085,0.313 0,2.657 0.002,5.317 -10e-4,7.977 l -5.535,0 c 0.034,0.893 -0.076,1.806 0.053,2.686 0.037,0.017 0.113,0.051 0.15,0.066 0.854,0.036 1.711,0 2.566,0.013 0.016,0.921 0.003,1.839 0.008,2.758 -0.926,0.009 -1.852,0 -2.777,0.002 -0.003,-0.893 0.004,-1.787 0.006,-2.683 -0.157,-0.11 -0.36,-0.066 -0.541,-0.082 -1.67,0.01 -3.342,0 -5.015,0.005 0,0.921 0.002,1.839 -10e-4,2.758 1.849,0.009 3.698,0.005 5.547,0.005 0.008,1.846 0.001,3.698 0.004,5.544 -0.747,0 -1.494,0.008 -2.24,-0.001 -0.178,0.009 -0.372,-0.032 -0.535,0.063 -0.007,0.906 0.003,1.813 0.004,2.719 l 2.771,0 c -0.003,0.921 0.004,1.842 -0.006,2.762 0.928,-0.002 1.856,-0.009 2.784,0.005 C -0.003,-5.538 0,-2.768 0,0"
             inkscape:connector-curvature="0"
             id="path430"
             style="fill:#de216e;fill-opacity:1;fill-rule:nonzero;stroke:none" /></g><g
           transform="translate(236.1406,50.1729)"
           id="g432"><path
             d="m 0,0 2.772,0 c 0.002,-0.926 0,-1.85 0,-2.772 l -2.769,0 C 0,-3.698 0.003,-4.625 0,-5.548 c -0.926,0 -1.854,0 -2.778,0.003 l 0,2.773 c 0.924,10e-4 1.852,0 2.778,0 -0.001,0.925 -0.001,1.848 0,2.772"
             inkscape:connector-curvature="0"
             id="path434"
             style="fill:#de216e;fill-opacity:1;fill-rule:nonzero;stroke:none" /></g><g
           transform="translate(241.6895,50.1729)"
           id="g436"><path
             d="M 0,0 C 0.921,0 1.842,0.003 2.764,-0.003 2.758,-0.875 2.774,-1.747 2.758,-2.621 2.739,-2.657 2.704,-2.734 2.686,-2.772 1.792,-2.785 0.895,-2.768 0,-2.772 -0.002,-1.85 -0.002,-0.926 0,0"
             inkscape:connector-curvature="0"
             id="path438"
             style="fill:#de216e;fill-opacity:1;fill-rule:nonzero;stroke:none" /></g><g
           transform="translate(261.0693,50.1729)"
           id="g440"><path
             d="M 0,0 C 0.923,-0.003 1.85,0.005 2.773,-0.003 2.772,-0.926 2.772,-1.847 2.775,-2.768 1.85,-2.777 0.923,-2.772 -0.002,-2.772 -0.002,-1.847 -0.004,-0.924 0,0"
             inkscape:connector-curvature="0"
             id="path442"
             style="fill:#de216e;fill-opacity:1;fill-rule:nonzero;stroke:none" /></g><g
           transform="translate(244.5293,47.3516)"
           id="g444"><path
             d="m 0,0 c 0.044,0.01 0.135,0.038 0.178,0.049 l 5.285,0 c 0.002,-0.924 -0.002,-1.85 0.002,-2.773 l 2.769,0 c 0.002,-0.923 0,-1.847 0,-2.767 0.922,0 1.845,-0.003 2.767,0.002 0.021,0.921 0.005,1.842 0.012,2.765 l 5.525,0 c 0.002,-0.926 0.002,-1.847 0.002,-2.77 l -2.769,0 c -0.005,-0.857 0.005,-1.716 -0.002,-2.572 -0.017,-0.044 -0.053,-0.131 -0.07,-0.175 -0.889,-0.033 -1.789,0 -2.681,-0.011 -0.011,-0.926 -0.003,-1.852 -0.005,-2.777 -0.928,-0.003 -1.853,0 -2.78,-0.003 -0.001,1.849 10e-4,3.693 -0.001,5.538 l -2.769,0 0,-2.76 C 4.572,-8.265 3.68,-8.229 2.792,-8.27 2.768,-8.285 2.722,-8.318 2.698,-8.334 c -0.029,-0.897 -0.003,-1.798 -0.01,-2.698 -0.922,0 -1.845,0.003 -2.766,0 0.002,3.619 -0.004,7.238 0.002,10.855 C -0.057,-0.134 -0.02,-0.046 0,0"
             inkscape:connector-curvature="0"
             id="path446"
             style="fill:#de216e;fill-opacity:1;fill-rule:nonzero;stroke:none" /></g><g
           transform="translate(227.8369,46.0869)"
           id="g448"><path
             d="m 0,0 2.768,0 c 0,-0.487 0.001,-0.975 -0.004,-1.462 -0.921,0 -1.842,0.003 -2.763,-0.003 C 0,-0.978 0,-0.49 0,0"
             inkscape:connector-curvature="0"
             id="path450"
             style="fill:#de216e;fill-opacity:1;fill-rule:nonzero;stroke:none" /></g><g
           transform="translate(197.3604,44.6221)"
           id="g452"><path
             d="M 0,0 C 0.925,0.006 1.85,0.003 2.772,0.003 2.775,-0.921 2.773,-1.842 2.773,-2.762 L 0,-2.762 0,0 z"
             inkscape:connector-curvature="0"
             id="path454"
             style="fill:#fffefe;fill-opacity:1;fill-rule:nonzero;stroke:none" /></g><g
           transform="translate(225.0625,44.6279)"
           id="g456"><path
             d="M 0,0 2.772,0 C 2.752,-0.896 2.831,-1.799 2.735,-2.686 2.578,-2.804 2.37,-2.761 2.188,-2.773 1.516,-2.763 0.844,-2.775 0.172,-2.768 0.14,-2.75 0.074,-2.712 0.043,-2.693 -0.058,-1.807 0.027,-0.898 0,0"
             inkscape:connector-curvature="0"
             id="path458"
             style="fill:#de216e;fill-opacity:1;fill-rule:nonzero;stroke:none" /></g><g
           transform="translate(247.2168,44.6221)"
           id="g460"><path
             d="M 0,0 C 0.925,0.006 1.85,0.003 2.774,0.003 2.773,-0.921 2.773,-1.842 2.774,-2.762 1.849,-2.76 0.924,-2.768 -0.002,-2.757 0,-1.839 -0.002,-0.921 0,0"
             inkscape:connector-curvature="0"
             id="path462"
             style="fill:#fffefe;fill-opacity:1;fill-rule:nonzero;stroke:none" /></g><g
           transform="translate(161.3555,41.8604)"
           id="g464"><path
             d="m 0,0 5.542,0 c 0.002,-0.921 0.002,-1.842 0,-2.761 l 2.755,0 c 0.009,-0.926 0.002,-1.848 0.005,-2.772 0.904,-0.01 1.811,0 2.716,0.003 0.086,-0.164 0.053,-0.357 0.066,-0.539 -0.005,-0.749 -0.004,-1.495 -0.004,-2.244 -0.929,0 -1.853,0.004 -2.778,0 -0.003,-0.926 0.004,-1.85 -0.003,-2.776 -0.92,0.003 -1.838,0 -2.755,0 -0.006,2.776 0,5.551 -0.003,8.328 -0.92,0 -1.84,-0.002 -2.761,0 -0.011,-2.777 -0.002,-5.552 -0.007,-8.328 l -2.772,0 C -0.002,-7.393 0,-3.696 0,0"
             inkscape:connector-curvature="0"
             id="path466"
             style="fill:#de216e;fill-opacity:1;fill-rule:nonzero;stroke:none" /></g><g
           transform="translate(172.4287,36.9248)"
           id="g468"><path
             d="M 0,0 C 0.01,1.645 0,3.291 0.007,4.936 0.886,4.925 1.767,4.958 2.646,4.922 2.678,4.907 2.747,4.874 2.781,4.858 2.787,3.966 2.771,3.07 2.779,2.175 4.416,2.178 6.053,2.17 7.688,2.181 7.871,2.175 8.06,2.198 8.236,2.134 8.256,2.099 8.29,2.023 8.307,1.985 c 0.031,-0.861 0,-1.726 0.01,-2.59 l -2.763,0 0,-2.77 C 4.629,-3.378 3.701,-3.378 2.775,-3.373 2.778,-2.449 2.777,-1.526 2.777,-0.605 1.887,-0.572 0.982,-0.672 0.101,-0.551 -0.03,-0.397 0.012,-0.185 0,0"
             inkscape:connector-curvature="0"
             id="path470"
             style="fill:#de216e;fill-opacity:1;fill-rule:nonzero;stroke:none" /></g><g
           transform="translate(180.8203,41.791)"
           id="g472"><path
             d="M 0,0 C 0.201,0.11 0.439,0.062 0.659,0.074 2.194,0.056 3.729,0.09 5.263,0.059 5.301,0.043 5.375,0.013 5.411,-0.003 c 0.125,-0.885 0.018,-1.796 0.054,-2.69 -1.82,0.007 -3.644,-0.013 -5.461,0.009 -0.019,0.037 -0.052,0.106 -0.068,0.142 -0.021,0.795 -0.021,1.593 0,2.385 C -0.049,-0.118 -0.016,-0.041 0,0"
             inkscape:connector-curvature="0"
             id="path474"
             style="fill:#de216e;fill-opacity:1;fill-rule:nonzero;stroke:none" /></g><g
           transform="translate(194.5195,39.1074)"
           id="g476"><path
             d="m 0,0 c 0.109,0.908 -0.028,1.84 0.074,2.75 l 2.767,0 C 2.84,1.832 2.841,0.911 2.84,-0.008 1.944,-0.028 1.044,0.036 0.154,-0.038 -0.007,-0.18 0.041,-0.402 0.034,-0.592 0.054,-1.323 0,-2.057 0.078,-2.788 l 5.538,0 c 0.001,1.847 0.001,3.693 0,5.538 l 2.769,0 c 0.004,-0.918 0,-1.839 0.004,-2.76 0.816,-0.003 1.634,0.002 2.453,0.002 0.131,0.029 0.248,-0.043 0.358,-0.102 -0.096,-0.887 -0.003,-1.783 -0.039,-2.672 -0.925,-0.006 -1.85,0.002 -2.776,-0.006 0.003,-0.921 0,-1.847 0.003,-2.77 l -8.314,0 c 0.001,0.923 0,1.847 0.001,2.77 -0.919,0.008 -1.84,0 -2.76,0.003 0.002,0.926 -0.005,1.851 0.004,2.777 C -1.788,0.003 -0.89,-0.03 0,0"
             inkscape:connector-curvature="0"
             id="path478"
             style="fill:#fffefe;fill-opacity:1;fill-rule:nonzero;stroke:none" /></g><g
           transform="translate(222.2588,41.75)"
           id="g480"><path
             d="M 0,0 C 0.026,0.015 0.079,0.056 0.105,0.074 0.945,0.151 1.791,0.095 2.634,0.11 2.676,0.092 2.762,0.059 2.804,0.043 2.807,-1.778 2.803,-3.604 2.806,-5.431 c -0.924,0 -1.849,0.003 -2.772,0 C 0.01,-3.619 0.069,-1.809 0,0"
             inkscape:connector-curvature="0"
             id="path482"
             style="fill:#de216e;fill-opacity:1;fill-rule:nonzero;stroke:none" /></g><g
           transform="translate(227.8428,41.7852)"
           id="g484"><path
             d="M 0,0 C 0.157,0.108 0.354,0.069 0.536,0.08 1.277,0.072 2.019,0.075 2.762,0.075 c 10e-4,-0.921 0,-1.842 0,-2.761 l 2.758,0 0,2.758 c 2.775,0.005 5.55,0.003 8.329,0 0,-0.918 -0.002,-1.837 0,-2.755 -1.85,-0.012 -3.7,0.003 -5.548,-0.007 -0.004,-0.926 0,-1.849 -0.002,-2.776 -1.847,0 -3.693,0.003 -5.539,0 0.003,-0.923 0.002,-1.844 0.002,-2.767 1.844,-0.005 3.69,0 5.537,-0.002 0.002,-0.924 -0.002,-1.847 0.002,-2.773 0.922,-0.003 1.845,-0.006 2.767,0 0.002,1.847 0.002,3.695 0.001,5.542 1.844,0.008 3.693,0 5.536,0.006 0.009,-0.924 0.003,-1.85 0.004,-2.775 l 2.762,0 c 0.001,0.922 0.001,1.846 0,2.769 0.927,0.003 1.854,0.008 2.78,-0.002 -0.004,-0.921 0,-1.845 -0.002,-2.767 0.924,0.002 1.846,0 2.77,0.002 0.006,-1.847 0,-3.694 0.004,-5.54 0.924,-0.002 1.848,0.002 2.772,-0.002 0.008,-0.919 0.004,-1.84 0.002,-2.761 -0.926,-0.007 -1.848,0 -2.773,-0.002 -0.007,-2.775 0.005,-5.551 -0.007,-8.328 -0.922,0.002 -1.843,0.002 -2.762,0 -0.015,0.926 -0.004,1.854 -0.008,2.78 -0.924,0 -1.849,0 -2.773,-0.003 -0.011,-0.916 0.021,-1.834 -0.014,-2.747 -0.913,-0.066 -1.835,-0.01 -2.751,-0.028 0,-0.918 10e-4,-1.839 0,-2.757 l -2.76,0 c 0,-0.924 -0.002,-1.845 0,-2.766 -0.925,-0.009 -1.851,-0.002 -2.777,-0.005 -0.004,-0.925 0.005,-1.849 -0.006,-2.775 -6.465,0.006 -12.931,-0.002 -19.398,0.003 0.001,0.926 -0.004,1.85 0.003,2.775 l 2.775,0 c 0.001,0.923 0,1.844 0.001,2.77 0.923,0 1.846,0 2.771,-0.002 0.005,0.918 0,1.839 0.002,2.757 l 5.54,0 c 0.002,0.926 0,1.852 0,2.778 l -2.766,0 0,2.773 c 3.693,0.002 7.384,-0.003 11.076,0.002 -0.002,1.847 0,3.691 -10e-4,5.536 l -2.768,0 c -0.004,-0.921 0,-1.842 -0.003,-2.763 l -5.536,0 c -0.002,1.842 -0.002,3.683 -0.002,5.524 -0.918,0.027 -1.841,-0.046 -2.754,0.036 -0.027,1.837 -0.004,3.676 -0.012,5.515 l 2.766,0 0,2.775 c -0.922,0.002 -1.844,0 -2.765,0.002 C 0.004,-1.793 -0.022,-0.895 0,0"
             inkscape:connector-curvature="0"
             id="path486"
             style="fill:#de216e;fill-opacity:1;fill-rule:nonzero;stroke:none" /></g><g
           transform="translate(258.3857,39.0645)"
           id="g488"><path
             d="m 0,0 c 1.811,0.087 3.639,0.013 5.456,0.035 10e-4,-2.774 10e-4,-5.553 0,-8.328 l -8.298,0 c -0.008,0.929 -0.002,1.853 -0.004,2.778 1.844,0.002 3.685,0 5.527,0 l 0,2.77 -2.768,0 c -0.001,0.813 0,1.621 -0.002,2.43 C -0.104,-0.195 -0.075,-0.093 0,0"
             inkscape:connector-curvature="0"
             id="path490"
             style="fill:#de216e;fill-opacity:1;fill-rule:nonzero;stroke:none" /></g><g
           transform="translate(183.5059,36.3174)"
           id="g492"><path
             d="m 0,0 c 0.869,0.005 1.74,0.018 2.608,-0.003 0.033,-0.023 0.094,-0.069 0.124,-0.09 0.109,-0.882 0.017,-1.785 0.047,-2.678 -0.927,0.003 -1.852,0 -2.778,0.005 C 0.001,-1.845 0.003,-0.924 0,0"
             inkscape:connector-curvature="0"
             id="path494"
             style="fill:#de216e;fill-opacity:1;fill-rule:nonzero;stroke:none" /></g><g
           transform="translate(177.9805,33.5498)"
           id="g496"><path
             d="m 0,0 c 0.921,0.002 1.845,0 2.766,0 0,-0.926 0.004,-1.853 -0.003,-2.778 -0.919,0.003 -1.839,0 -2.759,0 C -0.005,-1.853 0.002,-0.926 0,0"
             inkscape:connector-curvature="0"
             id="path498"
             style="fill:#de216e;fill-opacity:1;fill-rule:nonzero;stroke:none" /></g><g
           transform="translate(197.3604,30.7715)"
           id="g500"><path
             d="m 0,0 c 0.925,0.003 1.85,0 2.772,0.003 0.003,-0.921 0.001,-1.842 0,-2.763 -0.922,0 -1.847,-0.002 -2.771,0.003 C 0,-1.839 0,-0.921 0,0"
             inkscape:connector-curvature="0"
             id="path502"
             style="fill:#fffefe;fill-opacity:1;fill-rule:nonzero;stroke:none" /></g><g
           transform="translate(205.6875,30.7715)"
           id="g504"><path
             d="m 0,0 c 0.918,0.003 1.835,0 2.753,0 l 0,-2.76 -2.755,0 C 0,-1.839 -0.002,-0.921 0,0"
             inkscape:connector-curvature="0"
             id="path506"
             style="fill:#fffefe;fill-opacity:1;fill-rule:nonzero;stroke:none" /></g><g
           transform="translate(241.6914,30.7715)"
           id="g508"><path
             d="M 0,0 8.299,0 C 8.3,-2.765 8.3,-5.532 8.299,-8.297 5.532,-8.3 2.766,-8.3 0,-8.297 L 0,0 z"
             inkscape:connector-curvature="0"
             id="path510"
             style="fill:#fffefe;fill-opacity:1;fill-rule:nonzero;stroke:none" /></g><g
           transform="translate(161.3555,28.0117)"
           id="g512"><path
             d="m 0,0 19.391,0 c 0,-6.464 0.001,-12.93 0,-19.394 -6.464,0.003 -12.928,0 -19.391,0.003 C -0.002,-12.927 -0.002,-6.464 0,0"
             inkscape:connector-curvature="0"
             id="path514"
             style="fill:#de216e;fill-opacity:1;fill-rule:nonzero;stroke:none" /></g><g
           transform="translate(258.2979,28.0117)"
           id="g516"><path
             d="m 0,0 5.545,0 c -0.001,-0.923 0,-1.844 -0.001,-2.765 L 0,-2.765 0,0 z"
             inkscape:connector-curvature="0"
             id="path518"
             style="fill:#de216e;fill-opacity:1;fill-rule:nonzero;stroke:none" /></g><g
           transform="translate(244.4512,28.0117)"
           id="g520"><path
             d="m 0,0 c 0.922,0 1.844,0 2.766,-0.002 l 0,-2.763 -2.766,0 C -0.002,-1.844 -0.002,-0.923 0,0"
             inkscape:connector-curvature="0"
             id="path522"
             style="fill:#de216e;fill-opacity:1;fill-rule:nonzero;stroke:none" /></g><g
           transform="translate(164.1328,25.2471)"
           id="g524"><path
             d="m 0,0 13.847,0 c 0.003,-4.617 0,-9.234 0.001,-13.849 C 9.232,-13.854 4.614,-13.851 -0.003,-13.851 -0.001,-9.234 -0.005,-4.617 0,0"
             inkscape:connector-curvature="0"
             id="path526"
             style="fill:#fffefe;fill-opacity:1;fill-rule:nonzero;stroke:none" /></g><g
           transform="translate(166.8975,22.4717)"
           id="g528"><path
             d="m 0,0 c 2.771,0 5.539,0.003 8.31,0 10e-4,-2.771 0,-5.538 10e-4,-8.308 -2.77,-0.003 -5.54,0 -8.311,0 L 0,0 z"
             inkscape:connector-curvature="0"
             id="path530"
             style="fill:#de216e;fill-opacity:1;fill-rule:nonzero;stroke:none" /></g><g
           transform="translate(183.5098,22.4717)"
           id="g532"><path
             d="m 0,0 c 0.925,0.005 1.85,0 2.773,0.003 0.003,-2.771 0.002,-5.541 0.002,-8.311 -0.925,0 -1.852,-0.005 -2.778,0.002 C -0.001,-5.538 -0.007,-2.771 0,0"
             inkscape:connector-curvature="0"
             id="path534"
             style="fill:#de216e;fill-opacity:1;fill-rule:nonzero;stroke:none" /></g><g
           transform="translate(189.0566,22.4717)"
           id="g536"><path
             d="M 0,0 C 0.924,0 1.851,0.005 2.776,-0.003 2.782,-1.796 2.772,-3.591 2.782,-5.384 2.766,-5.54 2.581,-5.587 2.452,-5.559 1.635,-5.546 0.817,-5.553 0.001,-5.551 -0.004,-3.701 0,-1.85 0,0"
             inkscape:connector-curvature="0"
             id="path538"
             style="fill:#de216e;fill-opacity:1;fill-rule:nonzero;stroke:none" /></g><g
           transform="translate(255.542,22.4717)"
           id="g540"><path
             d="m 0,0 c 0.918,0 1.839,0.003 2.758,0 -10e-4,-0.924 0,-1.85 0,-2.772 L 0,-2.772 C -0.002,-1.85 -0.003,-0.924 0,0"
             inkscape:connector-curvature="0"
             id="path542"
             style="fill:#de216e;fill-opacity:1;fill-rule:nonzero;stroke:none" /></g><g
           transform="translate(261.0654,22.4668)"
           id="g544"><path
             d="m 0,0 c 0.926,0.013 1.852,0.002 2.776,0.008 0.001,-0.927 0,-1.85 0.001,-2.774 C 1.852,-2.771 0.926,-2.771 0,-2.766 0.002,-1.842 0.002,-0.921 0,0"
             inkscape:connector-curvature="0"
             id="path546"
             style="fill:#de216e;fill-opacity:1;fill-rule:nonzero;stroke:none" /></g><g
           transform="translate(208.4385,16.9189)"
           id="g548"><path
             d="m 0,0 c 0.008,0.928 0,1.854 0.004,2.78 l 2.769,0 C 2.772,1.854 2.771,0.928 2.774,0 3.699,0.002 4.625,0 5.55,0.002 5.541,-0.916 5.548,-1.837 5.546,-2.753 c -2.766,-0.002 -5.532,0 -8.299,-0.002 0.002,0.918 0,1.836 0.002,2.755 0.917,0.002 1.834,0 2.751,0"
             inkscape:connector-curvature="0"
             id="path550"
             style="fill:#fffefe;fill-opacity:1;fill-rule:nonzero;stroke:none" /></g><g
           transform="translate(213.9863,19.6992)"
           id="g552"><path
             d="m 0,0 2.769,0 c 0,-0.926 0.002,-1.853 0,-2.778 C 1.845,-2.773 0.923,-2.783 0.002,-2.773 -0.002,-1.847 0.002,-0.924 0,0"
             inkscape:connector-curvature="0"
             id="path554"
             style="fill:#fffefe;fill-opacity:1;fill-rule:nonzero;stroke:none" /></g><g
           transform="translate(233.3652,19.6963)"
           id="g556"><path
             d="m 0,0 c 0.925,0.005 1.85,0.003 2.774,0.003 0.002,-0.926 -0.003,-1.853 0.004,-2.78 0.921,0 1.843,0.002 2.764,0 0.015,0.925 0.004,1.854 0.008,2.78 l 5.534,0 c 0.002,-0.926 0.002,-1.853 0.002,-2.778 l -5.538,0 C 5.547,-3.693 5.55,-4.614 5.546,-5.532 c -0.923,0.002 -1.846,0.002 -2.768,0 -0.004,0.918 0,1.839 -0.002,2.757 -0.818,0 -1.637,0.004 -2.457,-0.005 -0.13,-0.026 -0.308,0.017 -0.325,0.172 C -0.001,-1.739 0,-0.869 0,0"
             inkscape:connector-curvature="0"
             id="path558"
             style="fill:#fffefe;fill-opacity:1;fill-rule:nonzero;stroke:none" /></g><g
           transform="translate(191.7959,16.7695)"
           id="g560"><path
             d="M 0,0 C 0.063,0.064 0.125,0.129 0.188,0.19 1.029,0.103 1.88,0.19 2.724,0.142 2.834,-0.015 2.79,-0.221 2.803,-0.405 2.797,-1.139 2.799,-1.872 2.798,-2.605 1.93,-2.598 1.061,-2.624 0.192,-2.598 0.156,-2.583 0.082,-2.549 0.046,-2.534 0,-1.69 0.087,-0.841 0,0"
             inkscape:connector-curvature="0"
             id="path562"
             style="fill:#de216e;fill-opacity:1;fill-rule:nonzero;stroke:none" /></g><g
           transform="translate(230.6045,16.9209)"
           id="g564"><path
             d="M 0,0 C 0.87,0.016 1.742,-0.038 2.61,0.036 2.671,-0.025 2.73,-0.087 2.794,-0.151 2.712,-1.938 2.78,-3.734 2.758,-5.524 l -5.524,0 c -10e-4,0.922 -10e-4,1.843 0,2.767 l 2.766,0 C 0.001,-1.839 0,-0.921 0,0"
             inkscape:connector-curvature="0"
             id="path566"
             style="fill:#fffefe;fill-opacity:1;fill-rule:nonzero;stroke:none" /></g><g
           transform="translate(247.208,16.9209)"
           id="g568"><path
             d="m 0,0 c 0.928,0.003 1.856,0 2.786,0 -0.003,-0.915 0,-1.834 -0.003,-2.755 0.924,-0.005 1.847,0 2.772,0 -10e-4,0.916 0,1.837 0,2.755 l 5.536,0 c 0.001,-0.918 0.001,-1.839 0,-2.757 l -5.535,0 0,-2.767 c -0.925,-0.003 -1.848,0 -2.772,-0.005 l 0,-2.771 c -0.926,0 -1.851,-0.003 -2.777,0 C 0.003,-5.532 0.016,-2.768 0,0"
             inkscape:connector-curvature="0"
             id="path570"
             style="fill:#de216e;fill-opacity:1;fill-rule:nonzero;stroke:none" /></g><g
           transform="translate(261.0674,16.9209)"
           id="g572"><path
             d="m 0,0 c 0.925,0.003 1.85,0 2.774,0 10e-4,-2.768 10e-4,-5.532 0,-8.3 -2.766,0 -5.532,-0.003 -8.301,0 0,0.926 -10e-4,1.85 0.002,2.776 l 5.524,0 c 0,1.841 0,3.682 0.001,5.524"
             inkscape:connector-curvature="0"
             id="path574"
             style="fill:#de216e;fill-opacity:1;fill-rule:nonzero;stroke:none" /></g><g
           transform="translate(189.0566,14.1641)"
           id="g576"><path
             d="M 0,0 C 0.73,0.002 1.462,-0.003 2.192,0.005 2.376,-0.005 2.586,0.038 2.741,-0.088 2.83,-0.973 2.752,-1.87 2.78,-2.76 1.854,-2.78 0.927,-2.763 0.001,-2.771 -0.004,-1.847 0,-0.924 0,0"
             inkscape:connector-curvature="0"
             id="path578"
             style="fill:#de216e;fill-opacity:1;fill-rule:nonzero;stroke:none" /></g><g
           transform="translate(191.834,11.3965)"
           id="g580"><path
             d="m 0,0 2.76,0 c 0.001,-0.926 0,-1.85 0,-2.775 -0.921,-0.003 -1.84,0 -2.761,0 C 0,-1.85 -0.001,-0.926 0,0"
             inkscape:connector-curvature="0"
             id="path582"
             style="fill:#de216e;fill-opacity:1;fill-rule:nonzero;stroke:none" /></g><g
           transform="translate(197.3604,11.3965)"
           id="g584"><path
             d="m 0,0 2.775,0 c 10e-4,-0.926 10e-4,-1.85 0,-2.775 -0.925,0 -1.85,-0.003 -2.775,0 C -0.001,-1.85 -0.001,-0.926 0,0"
             inkscape:connector-curvature="0"
             id="path586"
             style="fill:#de216e;fill-opacity:1;fill-rule:nonzero;stroke:none" /></g><g
           transform="translate(241.6895,11.3965)"
           id="g588"><path
             d="m 0,0 2.763,0 c 10e-4,-0.926 0,-1.85 0,-2.775 -0.921,-0.003 -1.843,0 -2.765,0 C 0,-1.85 -0.002,-0.926 0,0"
             inkscape:connector-curvature="0"
             id="path590"
             style="fill:#de216e;fill-opacity:1;fill-rule:nonzero;stroke:none" /></g></g></g></g></svg>