<?xml version="1.0" encoding="UTF-8" standalone="no"?>
<!-- Created with Inkscape (http://www.inkscape.org/) -->

<svg
   xmlns:dc="http://purl.org/dc/elements/1.1/"
   xmlns:cc="http://creativecommons.org/ns#"
   xmlns:rdf="http://www.w3.org/1999/02/22-rdf-syntax-ns#"
   xmlns:svg="http://www.w3.org/2000/svg"
   xmlns="http://www.w3.org/2000/svg"
   xmlns:sodipodi="http://sodipodi.sourceforge.net/DTD/sodipodi-0.dtd"
   xmlns:inkscape="http://www.inkscape.org/namespaces/inkscape"
   width="92mm"
   height="52mm"
   viewBox="0 0 325.98425 184.25197"
   id="svg2"
   version="1.1"
   inkscape:version="0.91 r13725"
   sodipodi:docname="FreifunkBS_visitenkarte_rückseite.svg">
  <defs
     id="defs4">
    <inkscape:path-effect
       is_visible="true"
       id="path-effect5523"
       effect="spiro" />
    <inkscape:path-effect
       is_visible="true"
       id="path-effect5517"
       effect="spiro" />
    <inkscape:path-effect
       is_visible="true"
       id="path-effect5104"
       effect="spiro" />
    <inkscape:path-effect
       effect="spiro"
       id="path-effect5100"
       is_visible="true" />
    <inkscape:path-effect
       is_visible="true"
       id="path-effect5096"
       effect="spiro" />
    <inkscape:perspective
       id="perspective2877"
       inkscape:persp3d-origin="372.04724 : 350.78739 : 1"
       inkscape:vp_z="744.09448 : 526.18109 : 1"
       inkscape:vp_y="0 : 1000 : 0"
       inkscape:vp_x="0 : 526.18109 : 1"
       sodipodi:type="inkscape:persp3d" />
    <inkscape:perspective
       sodipodi:type="inkscape:persp3d"
       inkscape:vp_x="0 : 0.5 : 1"
       inkscape:vp_y="0 : 1000 : 0"
       inkscape:vp_z="1 : 0.5 : 1"
       inkscape:persp3d-origin="0.5 : 0.33333333 : 1"
       id="perspective2887" />
    <inkscape:path-effect
       is_visible="true"
       id="path-effect2972"
       effect="spiro" />
    <inkscape:path-effect
       is_visible="true"
       id="path-effect2976"
       effect="spiro" />
    <inkscape:path-effect
       is_visible="true"
       id="path-effect2980"
       effect="spiro" />
    <inkscape:path-effect
       is_visible="true"
       id="path-effect2984"
       effect="spiro" />
    <inkscape:path-effect
       is_visible="true"
       id="path-effect2988"
       effect="spiro" />
    <inkscape:path-effect
       is_visible="true"
       id="path-effect2992"
       effect="spiro" />
    <inkscape:path-effect
       effect="spiro"
       id="path-effect4952"
       is_visible="true" />
    <inkscape:path-effect
       is_visible="true"
       id="path-effect4950"
       effect="spiro" />
    <inkscape:path-effect
       effect="spiro"
       id="path-effect4723"
       is_visible="true" />
    <inkscape:path-effect
       is_visible="true"
       id="path-effect3258"
       effect="spiro" />
    <inkscape:path-effect
       effect="spiro"
       id="path-effect3098"
       is_visible="true" />
    <inkscape:path-effect
       is_visible="true"
       id="path-effect3146"
       effect="spiro" />
    <inkscape:path-effect
       is_visible="true"
       id="path-effect3142"
       effect="spiro" />
    <inkscape:path-effect
       is_visible="true"
       id="path-effect3138"
       effect="spiro" />
    <inkscape:path-effect
       is_visible="true"
       id="path-effect3134"
       effect="spiro" />
    <inkscape:path-effect
       is_visible="true"
       id="path-effect3130"
       effect="spiro" />
    <inkscape:path-effect
       is_visible="true"
       id="path-effect3126"
       effect="spiro" />
    <inkscape:path-effect
       is_visible="true"
       id="path-effect3122"
       effect="spiro" />
    <inkscape:path-effect
       is_visible="true"
       id="path-effect3118"
       effect="spiro" />
    <inkscape:path-effect
       is_visible="true"
       id="path-effect3114"
       effect="spiro" />
    <inkscape:path-effect
       is_visible="true"
       id="path-effect3110"
       effect="spiro" />
    <inkscape:path-effect
       is_visible="true"
       id="path-effect3102"
       effect="spiro" />
    <inkscape:path-effect
       effect="spiro"
       id="path-effect3291"
       is_visible="true" />
    <inkscape:path-effect
       effect="spiro"
       id="path-effect2992-9"
       is_visible="true" />
    <inkscape:path-effect
       effect="spiro"
       id="path-effect2988-9"
       is_visible="true" />
    <inkscape:path-effect
       effect="spiro"
       id="path-effect2984-7"
       is_visible="true" />
    <inkscape:path-effect
       effect="spiro"
       id="path-effect2980-8"
       is_visible="true" />
    <inkscape:path-effect
       effect="spiro"
       id="path-effect2976-7"
       is_visible="true" />
    <inkscape:path-effect
       effect="spiro"
       id="path-effect2972-7"
       is_visible="true" />
    <inkscape:perspective
       id="perspective2887-6"
       inkscape:persp3d-origin="0.5 : 0.33333333 : 1"
       inkscape:vp_z="1 : 0.5 : 1"
       inkscape:vp_y="0 : 1000 : 0"
       inkscape:vp_x="0 : 0.5 : 1"
       sodipodi:type="inkscape:persp3d" />
    <inkscape:perspective
       sodipodi:type="inkscape:persp3d"
       inkscape:vp_x="0 : 526.18109 : 1"
       inkscape:vp_y="0 : 1000 : 0"
       inkscape:vp_z="744.09448 : 526.18109 : 1"
       inkscape:persp3d-origin="372.04724 : 350.78739 : 1"
       id="perspective2877-5" />
    <inkscape:path-effect
       is_visible="true"
       id="path-effect5523-8"
       effect="spiro" />
    <inkscape:path-effect
       is_visible="true"
       id="path-effect5523-8-8"
       effect="spiro" />
  </defs>
  <sodipodi:namedview
     id="base"
     pagecolor="#ffffff"
     bordercolor="#666666"
     borderopacity="1.0"
     inkscape:pageopacity="0.0"
     inkscape:pageshadow="2"
     inkscape:zoom="0.35"
     inkscape:cx="375"
     inkscape:cy="520"
     inkscape:document-units="mm"
     inkscape:current-layer="layer1"
     showgrid="false"
     showguides="true"
     inkscape:guide-bbox="true"
     borderlayer="true"
     inkscape:object-nodes="true"
     inkscape:snap-smooth-nodes="true"
     inkscape:snap-global="true"
     inkscape:snap-center="true"
     inkscape:snap-object-midpoints="false">
    <sodipodi:guide
       position="3.5433071,-3.5433071"
       orientation="1,0"
       id="guide4171"
       inkscape:label=""
       inkscape:color="rgb(0,0,255)" />
    <sodipodi:guide
       position="-3.5433071,3.5433071"
       orientation="0,1"
       id="guide4173"
       inkscape:label=""
       inkscape:color="rgb(0,0,255)" />
    <sodipodi:guide
       position="322.44094,-3.5433071"
       orientation="1,0"
       id="guide4175"
       inkscape:label=""
       inkscape:color="rgb(0,0,255)" />
    <sodipodi:guide
       position="-3.5433071,180.70866"
       orientation="0,1"
       id="guide4177"
       inkscape:label=""
       inkscape:color="rgb(0,0,255)" />
    <sodipodi:guide
       position="311.81102,-3.5433071"
       orientation="1,0"
       id="guide5003"
       inkscape:label=""
       inkscape:color="rgb(0,0,255)" />
    <sodipodi:guide
       position="14.173228,-3.5433071"
       orientation="1,0"
       id="guide5005"
       inkscape:label=""
       inkscape:color="rgb(0,0,255)" />
    <sodipodi:guide
       position="-3.5433071,170.07874"
       orientation="0,1"
       id="guide5007"
       inkscape:label=""
       inkscape:color="rgb(0,0,255)" />
  </sodipodi:namedview>
  <metadata
     id="metadata7">
    <rdf:RDF>
      <cc:Work
         rdf:about="">
        <dc:format>image/svg+xml</dc:format>
        <dc:type
           rdf:resource="http://purl.org/dc/dcmitype/StillImage" />
        <dc:title></dc:title>
      </cc:Work>
    </rdf:RDF>
  </metadata>
  <g
     inkscape:label="Layer 1"
     inkscape:groupmode="layer"
     id="layer1"
     transform="translate(0,-868.11023)">
    <rect
       style="color:#000000;clip-rule:nonzero;display:inline;overflow:visible;visibility:visible;opacity:1;isolation:auto;mix-blend-mode:normal;color-interpolation:sRGB;color-interpolation-filters:linearRGB;solid-color:#000000;solid-opacity:1;fill:#ffffff;fill-opacity:1;fill-rule:evenodd;stroke:none;stroke-width:1;stroke-linecap:butt;stroke-linejoin:miter;stroke-miterlimit:4;stroke-dasharray:none;stroke-dashoffset:0;stroke-opacity:1;marker:none;color-rendering:auto;image-rendering:auto;shape-rendering:auto;text-rendering:auto;enable-background:accumulate"
       id="rect5881"
       width="422.38678"
       height="272.20483"
       x="-69.45916"
       y="812.07104" />
    <path
       style="opacity:1;fill:#000000;fill-opacity:1;fill-rule:nonzero;stroke:none;stroke-width:0.50486392"
       d="m 69.692325,988.98656 0,4.18545 -0.203604,-0.0162 -0.617754,-4.02118 -1.601071,7.26732 0,6.55005 0.471992,0.8214 0,25.1474 -23.226633,-0.03 0,-10.6788 -12.23177,-0.1705 0,4.6306 -0.271179,0 0,-4.6306 -0.03903,0 -0.509486,-4.4045 -4.928454,-0.7458 0,4.4991 -0.275287,0 0,-4.5381 -4.965433,-0.7417 -3.350692,1.8243 -0.08012,-0.8731 -1.433956,0.8341 -1.07033,1.4423 0.170513,18.9909 c 0,0 -6.8279263,0.083 -7.8258393,0.3222 -2.336423,0.6516 -3.4887917,1.043 -5.3417964,2.293 -0.9254062,0.6252 -3.4667968,2.5957 -3.4667968,2.5957 l -0.1111796,15.2891 331.7341311,1.5405 -1.67206,-16.7866 c 0,0 -2.07419,-1.8556 -3.2793,-2.791 -1.18883,-0.9231 -2.51905,-1.6659 -3.89258,-2.2813 -1.38286,-0.6195 -4.32617,-1.4004 -4.32617,-1.4004 l 1.45117,-9.832 0,-5.0176 -0.68164,0 0,1.4746 -2.05859,0 -3.73047,-5.2207 0,-3.7422 -0.68164,0 0,3.8047 -4.12891,5.1582 -1.07813,0 0,-1.5254 -0.68164,0 0,1.5254 -0.0117,0 0,3.3828 1.12695,8.7032 -6.49927,-0.3223 -1.28907,-31.74805 -3.78125,-3.8164 0,-3.68164 -0.68164,0 0,3.70508 -3.91797,3.79296 -0.16015,17.40625 -32.06836,0.9668 -6.28516,-5.3203 -6.12304,7.2539 0,11.6016 -19.56836,-0.1602 -0.32227,-9.9922 -8.53906,-0.1601 -1.05469,-3.3848 -15.70312,-0.1602 -0.80664,3.2227 -9.19727,0.3223 0,6.5859 -13.41406,0.1113 c -0.12247,-2.1423 -0.22461,-5.8144 -0.22461,-5.8144 l -3.54492,-3.7051 -3.22266,0 -0.14844,-6.9668 -1.78515,-2.541 -1.90821,2.4062 -0.0254,6.7793 -1.61133,-3.2226 -32.88671,-1.4512 -1.11524,2.7285 0,-3.5332 -1.77148,0 0.0215,15.7188 -13.02619,0.076 0,-11.2792 -10.80954,-7.6954 -4.59498,0 -1.115197,-9.5138 -0.94167,9.5138 -12.834014,0 -1.071237,-9.1181 -0.895397,9.1181 -9.044196,0 0,-7.3713 0.659401,-1.7769 0,-3.65555 -1.189236,-7.41544 -0.689478,3.97954 -0.411835,-0.13189 -0.07173,-3.78982 -1.779229,-12.64219 z m 1.249391,0.32392 1.013393,0 0,2.64454 -1.013393,0 z m 223.557854,11.16112 1.03906,0 0,2.9003 -1.03906,0 z m -127.22657,12.1035 0.4961,0 0,1.5742 -0.4961,0 z m 0.97852,0 0.48438,0 0,1.5742 -0.48438,0 z m 1.00391,0 0.48437,0 0,1.5742 -0.48437,0 z m -149.187282,2.1304 0,1.736 -1.785254,0.756 0,-1.7339 z m 7.496429,1.6969 0.977884,0 0,1.5244 -0.977884,0 z m 1.448337,0.078 0.965558,0 0,1.5264 -0.965558,0 z m -4.706582,0.039 0.846404,0 0,0.7705 -0.846404,0 z m -1.90441,3.3898 1.433958,0 0,1.2798 -1.433958,0 z m 5.462594,0.339 1.187431,0 0,3.1821 -1.187431,0 z m 119.328414,0.9557 c 0.53422,-0.066 1.04307,0.5862 1.03906,0.5957 l 0,2.875 -2.04492,0 0,-2.875 c -4e-5,-1e-4 0.36595,-0.517 1.00586,-0.5957 z m 3.93945,0 c 0.53422,-0.066 1.05871,0.5862 1.05469,0.5957 l 0,2.875 -2.0586,0 0,-2.875 c -4e-5,-1e-4 0.36399,-0.517 1.00391,-0.5957 z m -115.939895,-0.6163 3.389724,0 0,0.9389 -3.389724,0 z m 4.953107,0.056 2.923381,0.8854 -0.275288,0.8853 -2.919271,-0.8853 z m 269.183328,1.3131 1.32617,0 0,1.3262 -1.32617,0 z m 2.13281,0 1.32422,0 0,1.3262 -1.32422,0 z m 2.13086,0 1.33984,0 0,1.3262 -1.33984,0 z m -63.65748,1.0039 1.6875,0 0,4.3516 -1.6875,0 z m 3.13672,0 1.69727,0 0,4.3516 -1.69727,0 z m -81.1875,0.1055 1.52344,0 0,2.2305 -1.52344,0 z m 2.52735,0 1.53711,0 0,2.2305 -1.53711,0 z m -154.173018,0.7453 0,2.0338 -1.448336,0.4294 0,-2.0339 z m 183.057778,3.3777 1.16406,0 0,2.2442 -1.16406,0 z m 2.54102,0 1.16601,0 0,2.2442 -1.16601,0 z m 2.52929,0 1.16407,0 0,2.2442 -1.16407,0 z m 2.54102,0 1.16406,0 0,2.2442 -1.16406,0 z m 2.52734,0 1.17969,0 0,2.2442 -1.17969,0 z"
       id="path4878"
       inkscape:connector-curvature="0"
       sodipodi:nodetypes="ccccccccccccccccccccccccccccccccccccccccccccccccccccccccccccccccccccccccccccccccccccccccccccccccccccccccccccccccccccccccccccccccccccccccccccccccccccccccccccccccccccccccccccccccccccccccccccccccccccccccccccccccccccccccccccccccccccccccccccccccccccccc" />
    <g
       id="g5546"
       transform="matrix(0.35909771,0.00998175,-0.00998175,0.35909771,95.356231,343.51086)"
       style="fill:#ffb400;fill-opacity:1"
       inkscape:export-filename="/home/seb/work/freifunk-bs-logo/freifunk-bs-logo.png"
       inkscape:export-xdpi="600.03082"
       inkscape:export-ydpi="600.03082">
      <path
         sodipodi:nodetypes="caaaasssaaacaaaacaaaaaassssssssaaaacacsscssssaaaaaacccaacssccscaaacaaacaaaac"
         inkscape:connector-curvature="0"
         inkscape:original-d="m 544.54551,1887.009 c -0.95941,-0.4437 -2.10097,-0.4391 -3.15318,-0.3377 -0.50823,0.048 -1.01509,0.2072 -1.46398,0.4504 -0.51553,0.2794 -0.84244,0.8349 -1.35136,1.1261 -0.86161,0.4932 -1.87077,0.665 -2.80284,1.0066 -0.6271,0.2299 -1.22976,0.5361 -1.87676,0.7019 -0.43598,0.1111 -1.85381,0.3055 -2.3387,0.2861 -0.5958,-0.024 -0.24992,-0.2475 -0.6394,0.145 -0.21673,0.2184 -0.14191,0.6074 -0.12511,0.9146 0.0217,0.3978 0.19747,0.7718 0.29001,1.1591 0.17386,0.7278 0.26076,1.4792 0.49828,2.1887 0.11954,0.357 0.46295,1.0306 0.46295,1.0306 0,0 2.05952,-0.3862 3.05304,-0.1594 0.41261,0.093 1.09459,0.187 1.11365,0.6098 0.0248,0.5506 -0.8666,0.7038 -1.37303,0.9214 -0.3695,0.1587 -0.78275,0.1859 -1.17727,0.2639 -0.52535,0.1039 -1.58341,0.2718 -1.58341,0.2718 0,0 -0.084,0.4605 -0.033,0.6825 0.10513,0.4584 0.35816,0.8917 0.67567,1.2388 0.27411,0.2994 0.60823,0.6512 1.01353,0.6755 0.23917,0.014 0.40255,-0.3067 0.64153,-0.3241 0.81082,-0.058 1.76757,0.1714 2.31258,0.7747 1.17,1.295 0.95613,3.3732 1.15228,5.1074 0.15276,1.3507 -0.274,2.7493 0.0137,4.0779 0.21361,0.9865 0.48464,1.9928 0.85197,2.9558 0.4782,1.2534 1.11961,2.4332 2.01002,3.3995 0.61745,0.6701 2.71378,1.6494 3.59187,1.9857 0.69248,0.2653 0.17571,-0.1253 0.68743,0.3792 0.21554,0.2125 0.36202,0.4989 0.45047,0.7883 0.48802,1.5972 0.40267,3.1209 0.49997,4.8102 0.0803,1.3947 0.4119,2.9531 0.1757,4.3115 -0.0633,0.3642 -0.20547,0.7366 -0.45046,1.0134 -0.14503,0.1641 -0.35473,0.2709 -0.56305,0.338 -0.43022,0.1386 -0.94333,-0.082 -1.35136,0.1122 -0.27646,0.1318 -0.54169,0.3717 -0.63587,0.6631 -0.17674,0.5468 0.23922,1.7074 0.23922,1.7074 0,0 1.52522,-0.1791 2.29175,-0.2047 1.28233,-0.043 3.84817,0.086 3.84817,0.086 0,0 0.67355,-2.3865 0.90091,-3.6036 0.2559,-1.37 0.35537,-3.5684 0.56973,-5.3842 0.29768,-2.5212 0.66902,-4.5258 0.66902,-4.5258 0,0 11.72713,-0.8577 17.2294,-1.3864 3.89478,-0.3741 1.29341,-0.6825 4.16715,0.034 1.78003,0.4444 2.98326,1.4117 4.51033,2.4899 1.15229,0.8135 2.67755,1.6558 3.71044,2.5777 0.49866,0.445 0.94476,0.9763 1.23875,1.5765 0.34043,0.6949 0.48389,1.4826 0.56307,2.2523 0.0962,0.9343 0.0834,1.8969 -0.11257,2.8154 -0.0422,0.1976 -0.0652,0.4396 -0.22523,0.563 -0.47915,0.37 -1.25807,-0.04 -1.80181,0.2253 -0.14307,0.07 -0.26964,0.1938 -0.33784,0.3378 -0.16155,0.3409 -0.11257,1.1261 -0.11257,1.1261 l 4.95497,-0.1122 0,-7.6578 c 0,0 1.33948,1.0566 1.68921,1.8018 0.25713,0.548 0.15745,1.2004 0.22523,1.8019 0.0939,0.8335 0.25139,2.5037 0.25139,2.5037 0,0 -0.53466,0.076 -1.02185,0.15 -0.38016,0.058 -0.7003,0.084 -0.91875,0.2743 -0.3307,0.2892 -0.45045,1.2387 -0.45045,1.2387 l 4.84238,0 c 0,0 -0.44974,-2.216 -0.51368,-4.7053 -0.0462,-1.7952 -0.16199,-4.9794 -0.16199,-4.9794 0,0 -1.51568,-1.109 -2.13967,-1.8019 -0.94061,-1.0443 -1.61095,-2.3049 -2.36488,-3.4911 -0.98414,-1.5484 -2.03098,-3.071 -2.81532,-4.7296 -0.61423,-1.2989 -1.46398,-4.0542 -1.46398,-4.0542 0,0 -3.12551,-2.4016 -4.955,-3.0406 -3.21322,-1.1222 -6.75361,-0.8526 -10.13521,-1.2386 -2.47531,-0.2826 -5.0332,-0.117 -7.43247,-0.7884 -0.67921,-0.19 -1.91443,-0.9008 -1.91443,-0.9008 0,0 -1.98872,-1.6982 -2.81534,-2.7027 -1.58796,-1.9298 -2.63883,-4.2468 -4.05409,-6.3064 -0.79087,-1.151 -1.55468,-2.3302 -2.47749,-3.3784 -0.68428,-0.7772 -1.31242,-1.7049 -2.25227,-2.1396 z"
         inkscape:path-effect="#path-effect5517"
         id="path5515"
         d="m 544.54551,1887.009 c -1.00789,-0.3473 -2.0946,-0.4637 -3.15318,-0.3377 -0.51101,0.061 -1.02528,0.1814 -1.46398,0.4504 -0.50057,0.307 -0.87192,0.7871 -1.35136,1.1261 -0.40737,0.288 -0.88192,0.4664 -1.36087,0.6062 -0.47896,0.1397 -0.96823,0.2439 -1.44197,0.4004 -0.63441,0.2096 -1.23638,0.5114 -1.87676,0.7019 -0.75552,0.2248 -1.55046,0.2902 -2.3387,0.2861 -0.1118,-6e-4 -0.22426,-0 -0.33462,0.015 -0.11036,0.018 -0.2198,0.057 -0.30478,0.1296 -0.0617,0.053 -0.10861,0.1218 -0.13972,0.1968 -0.0311,0.075 -0.0468,0.1558 -0.0511,0.2369 -0.009,0.1622 0.0275,0.3231 0.0657,0.4809 0.0937,0.3871 0.2019,0.7707 0.29001,1.1591 0.16564,0.7302 0.26074,1.4787 0.49828,2.1887 0.11968,0.3577 0.27501,0.7035 0.46295,1.0306 1.0102,-0.1441 2.03332,-0.1976 3.05304,-0.1594 0.23001,0.01 0.46525,0.023 0.6772,0.1128 0.10598,0.045 0.20488,0.1087 0.28304,0.1932 0.0782,0.084 0.1349,0.1902 0.15341,0.3038 0.0249,0.1529 -0.0213,0.3128 -0.11004,0.4398 -0.0887,0.1271 -0.21732,0.2229 -0.35753,0.2888 -0.28044,0.1319 -0.59889,0.1475 -0.90546,0.1928 -0.398,0.059 -0.78587,0.1708 -1.17727,0.2639 -0.52134,0.124 -1.05056,0.2149 -1.58341,0.2718 -0.0643,0.2207 -0.0757,0.4566 -0.033,0.6825 0.0882,0.4665 0.39304,0.8574 0.67567,1.2388 0.12737,0.1719 0.2541,0.348 0.42056,0.4823 0.0832,0.067 0.17614,0.1234 0.27705,0.1589 0.10091,0.035 0.21008,0.05 0.31592,0.034 0.11937,-0.017 0.23026,-0.072 0.33352,-0.1342 0.10327,-0.062 0.20131,-0.1336 0.30801,-0.1899 0.19489,-0.1028 0.41579,-0.1535 0.63614,-0.1553 0.22035,-0 0.44006,0.044 0.64477,0.1259 0.40942,0.1631 0.75252,0.4631 1.03167,0.8041 0.56566,0.6911 0.88944,1.556 1.04342,2.4357 0.15397,0.8797 0.1466,1.7794 0.10886,2.6717 -0.0575,1.3604 -0.18411,2.7307 0.0137,4.0779 0.14928,1.0167 0.4806,1.9977 0.85197,2.9558 0.47971,1.2376 1.05167,2.4811 2.01002,3.3995 0.99424,0.9528 2.31425,1.4719 3.59187,1.9857 0.24422,0.098 0.49401,0.2007 0.68743,0.3792 0.22477,0.2075 0.35235,0.4986 0.45047,0.7883 0.51887,1.5323 0.37053,3.1977 0.49997,4.8102 0.11556,1.4397 0.45592,2.8946 0.1757,4.3115 -0.0727,0.3675 -0.19426,0.7401 -0.45046,1.0134 -0.15173,0.1619 -0.3481,0.283 -0.56305,0.338 -0.22022,0.056 -0.4513,0.043 -0.6785,0.036 -0.2272,-0.01 -0.46092,-0.01 -0.67286,0.076 -0.14663,0.057 -0.27746,0.1513 -0.38416,0.2668 -0.10671,0.1155 -0.18974,0.2518 -0.25171,0.3963 -0.11903,0.2776 -0.16053,0.588 -0.11862,0.8871 0.0419,0.2991 0.16711,0.5861 0.35784,0.8203 0.76063,-0.1 1.52543,-0.1683 2.29175,-0.2047 1.28264,-0.061 2.56953,-0.032 3.84817,0.086 0.39548,-1.1747 0.69706,-2.381 0.90091,-3.6036 0.2969,-1.7806 0.38591,-3.5884 0.56973,-5.3842 0.15534,-1.5176 0.37865,-3.0282 0.66902,-4.5258 5.75395,-0.3112 11.49973,-0.7735 17.2294,-1.3864 1.38884,-0.1486 2.81188,-0.3039 4.16715,0.034 1.67565,0.4178 3.06797,1.5402 4.51033,2.4899 1.25967,0.8294 2.60452,1.5522 3.71044,2.5777 0.4927,0.4569 0.93703,0.9761 1.23875,1.5765 0.34963,0.6957 0.49637,1.4765 0.56307,2.2523 0.0807,0.9384 0.0496,1.8876 -0.11257,2.8154 -0.0177,0.1011 -0.037,0.2024 -0.0709,0.2993 -0.0339,0.097 -0.0831,0.1898 -0.15431,0.2637 -0.10829,0.1124 -0.26133,0.1739 -0.41586,0.196 -0.15453,0.022 -0.31187,0.01 -0.46661,-0.013 -0.15474,-0.021 -0.30922,-0.047 -0.46529,-0.05 -0.15608,-0 -0.3159,0.02 -0.45405,0.092 -0.1427,0.075 -0.25447,0.1998 -0.33784,0.3378 -0.2016,0.3337 -0.24411,0.7591 -0.11257,1.1261 l 4.95497,-0.1122 0,-7.6578 c 0.78816,0.3176 1.42303,0.9948 1.68921,1.8018 0.19026,0.5768 0.1969,1.1952 0.22523,1.8019 0.0391,0.8382 0.1231,1.6744 0.25139,2.5037 -0.34057,0.05 -0.68119,0.1003 -1.02185,0.15 -0.31896,0.046 -0.6495,0.097 -0.91875,0.2743 -0.19664,0.1294 -0.34997,0.3235 -0.43043,0.5447 -0.0805,0.2213 -0.0876,0.4685 -0.02,0.694 l 4.84238,0 c -0.22939,-1.5614 -0.40077,-3.1312 -0.51368,-4.7053 -0.11884,-1.6568 -0.1729,-3.3183 -0.16199,-4.9794 -0.79488,-0.4936 -1.51801,-1.1026 -2.13967,-1.8019 -0.93524,-1.0521 -1.62933,-2.2909 -2.36488,-3.4911 -0.95913,-1.565 -2.00231,-3.0839 -2.81532,-4.7296 -0.63775,-1.2909 -1.12985,-2.6537 -1.46398,-4.0542 -1.43334,-1.3224 -3.12688,-2.3616 -4.955,-3.0406 -3.20878,-1.1918 -6.71227,-1.2532 -10.13521,-1.2386 -2.5046,0.011 -5.07054,0.045 -7.43247,-0.7884 -0.6662,-0.2351 -1.30865,-0.5373 -1.91443,-0.9008 -1.03929,-0.7873 -1.98626,-1.6964 -2.81534,-2.7027 -1.59064,-1.9306 -2.72622,-4.1865 -4.05409,-6.3064 -0.74217,-1.1849 -1.54887,-2.3332 -2.47749,-3.3784 -0.6886,-0.775 -1.44294,-1.4916 -2.25227,-2.1396 l -10e-5,0 z"
         style="fill:#ffffff;fill-opacity:1;stroke:none" />
      <path
         style="fill:#ffb400;fill-opacity:1;stroke:none"
         d="m 587.62533,1924.0237 c 0.71133,0.8372 1.50097,1.6078 2.35524,2.2985 1.05017,0.8491 2.21063,1.5832 3.4903,2.0148 0.8387,0.2829 1.7496,0.432 2.61063,0.2269 0.78542,-0.1871 1.50005,-0.6783 1.9296,-1.362 0.43974,-0.6999 0.56669,-1.5885 0.34051,-2.3835 -0.18338,0.206 -0.42032,0.3639 -0.68103,0.4539 -0.49818,0.1719 -1.05101,0.093 -1.5607,0.227 -0.38528,0.1013 -0.73208,0.3222 -1.02155,0.5959 -0.29747,0.2813 -0.53983,0.6206 -0.7094,0.9932 -0.88804,-0.1745 -1.74143,-0.5235 -2.49714,-1.0215 -0.81301,-0.5357 -1.50375,-1.234 -2.18498,-1.9296 -0.88459,-0.9033 -1.76428,-1.8114 -2.63901,-2.7242 l 0.56753,2.6106 z"
         id="path5521"
         inkscape:path-effect="#path-effect5523-8-8"
         inkscape:original-d="m 587.62533,1924.0237 c 0,0 1.48086,1.6361 2.35524,2.2985 1.07076,0.8113 2.209,1.6112 3.4903,2.0148 0.83314,0.2624 1.76739,0.4548 2.61063,0.2269 0.76003,-0.2053 1.51876,-0.6904 1.9296,-1.362 0.41884,-0.6847 0.34051,-2.3835 0.34051,-2.3835 0,0 -0.42629,0.3563 -0.68103,0.4539 -0.49084,0.1883 -1.06443,0.054 -1.5607,0.227 -0.37214,0.13 -0.73025,0.3303 -1.02155,0.5959 -0.30063,0.2742 -0.7094,0.9932 -0.7094,0.9932 0,0 -1.7332,-0.5469 -2.49714,-1.0215 -0.82539,-0.5128 -1.48224,-1.2586 -2.18498,-1.9296 -0.91434,-0.8732 -2.63901,-2.7242 -2.63901,-2.7242 z"
         inkscape:connector-curvature="0"
         sodipodi:nodetypes="caaaacaaacaacc" />
    </g>
    <g
       id="g4985"
       transform="translate(-32.159119,-39.118374)" />
    <text
       sodipodi:linespacing="125%"
       id="text4926"
       y="901.7063"
       x="65.259583"
       style="font-style:normal;font-variant:normal;font-weight:normal;font-stretch:normal;font-size:11.18794918px;line-height:125%;font-family:'Droid Sans';-inkscape-font-specification:'Droid Sans, Normal';text-align:start;letter-spacing:0px;word-spacing:0px;writing-mode:lr-tb;text-anchor:start;fill:#000000;fill-opacity:1;stroke:none;stroke-width:1px;stroke-linecap:butt;stroke-linejoin:miter;stroke-opacity:1"
       xml:space="preserve"><tspan
         style="font-style:normal;font-variant:normal;font-weight:normal;font-stretch:normal;font-size:12.5px;line-height:125%;font-family:'Droid Sans';-inkscape-font-specification:'Droid Sans, Normal';text-align:start;writing-mode:lr-tb;text-anchor:start"
         y="901.7063"
         x="65.259583"
         id="tspan4928"
         sodipodi:role="line">☐ Lars Andresen: ffbs@larsan.de</tspan><tspan
         id="tspan5184"
         style="font-style:normal;font-variant:normal;font-weight:normal;font-stretch:normal;font-size:12.5px;line-height:125%;font-family:'Droid Sans';-inkscape-font-specification:'Droid Sans, Normal';text-align:start;writing-mode:lr-tb;text-anchor:start"
         y="917.3313"
         x="65.259583"
         sodipodi:role="line">☐ Chris Fiege: chris@tinyhost.de</tspan><tspan
         id="tspan5186"
         style="font-style:normal;font-variant:normal;font-weight:normal;font-stretch:normal;font-size:12.5px;line-height:125%;font-family:'Droid Sans';-inkscape-font-specification:'Droid Sans, Normal';text-align:start;writing-mode:lr-tb;text-anchor:start"
         y="932.9563"
         x="65.259583"
         sodipodi:role="line">☐ Kasalehlia: kasa@stratum0.org</tspan><tspan
         style="font-style:normal;font-variant:normal;font-weight:normal;font-stretch:normal;font-size:12.5px;line-height:125%;font-family:'Droid Sans';-inkscape-font-specification:'Droid Sans, Normal';text-align:start;writing-mode:lr-tb;text-anchor:start"
         y="948.5813"
         x="65.259583"
         sodipodi:role="line"
         id="tspan5199">☐ Emantor: emantor@emantor.de</tspan><tspan
         id="tspan5190"
         style="font-style:normal;font-variant:normal;font-weight:normal;font-stretch:normal;font-size:12.5px;line-height:200%;font-family:'Droid Sans';-inkscape-font-specification:'Droid Sans, Normal';text-align:start;writing-mode:lr-tb;text-anchor:start"
         y="971.68195"
         x="65.259583"
         sodipodi:role="line">☐ __________________________________</tspan></text>
  </g>
</svg>
